<?xml version="1.0" encoding="UTF-8"?>
<svg id="OBJECTS" xmlns="http://www.w3.org/2000/svg" viewBox="0 0 500.01 499.99">
  <defs>
    <style>
      .cls-1 {
        fill: #f6f7e0;
      }

      .cls-2 {
        fill: #877ef0;
      }

      .cls-3 {
        fill: #cdb098;
      }

      .cls-4 {
        fill: #cc3b30;
      }

      .cls-5 {
        fill: #92806d;
      }

      .cls-6 {
        fill: #e0e3cd;
      }

      .cls-7 {
        fill: #fd4d0a;
      }

      .cls-8 {
        fill: #adc3f4;
      }

      .cls-9 {
        fill: #ccd7f3;
      }

      .cls-10 {
        fill: #33479d;
      }

      .cls-11 {
        fill: #ad9680;
      }

      .cls-12 {
        fill: #cac8b4;
      }

      .cls-13 {
        fill: #e4eae6;
      }

      .cls-14 {
        fill: #95806d;
      }

      .cls-15 {
        fill: #cdb299;
      }

      .cls-16 {
        fill: #656fcb;
      }

      .cls-17 {
        fill: #7b88d0;
      }

      .cls-18 {
        fill: #ececf0;
      }

      .cls-19 {
        fill: #bea38d;
      }

      .cls-20 {
        fill: #f7f7e0;
      }
    </style>
  </defs>
  <ellipse class="cls-9" cx="246.83" cy="389.99" rx="201.22" ry="17.5"/>
  <g>
    <g>
      <path class="cls-18" d="M155.65,166.03c1.66,1.17,1.98,3.66,5.09,4.29-3.1,.75-3.53,3.15-5.06,4.54-.06-.29-.11-.58-.17-.88-.11-.22-.23-.45-.34-.67,0,0,.06-.02,.06-.02-.43-1.4-1.31-2.31-2.8-2.53-.06-.26-.12-.52-.17-.79,2.19-.41,3.22-1.82,3.4-3.97v.03Z"/>
      <path class="cls-18" d="M250.77,53.21c-2.33,.76-3.07,2.51-3.9,4.38-.36-2.04-1.25-3.48-3.29-4.32,1.8-.97,3.01-2.24,3.29-4.69,.74,2.31,1.76,3.82,3.9,4.63Z"/>
      <path class="cls-18" d="M191.44,103.85c.2-.43,.71-.87-.05-1.25,1.13-.83,1.69-2,2.1-3.94,.73,2.25,1.63,3.77,3.92,4.52-2.18,.91-3.21,2.26-3.78,4.89-.54-2.07-1.1-3.31-2.18-4.21Z"/>
      <path class="cls-18" d="M188.78,279.18c.57,2.61,2.38,4.01,5.24,5.06-3.63,1.09-5.05,3.71-6.01,7.06-.28-1.5-.46-2.65-1.12-3.63-.64-1.45-1.99-1.91-3.31-2.42-.55-.21-.86-.73-.86-1.24,0-1.05,.75-.24,1.13-.37,2.79-.94,3.61-3.33,4.17-6.19,.34,.78,.55,1.26,.76,1.74Z"/>
      <path class="cls-18" d="M218.8,141.29c-3.29,.75-4.27,3.41-5.09,6.29-.66-1.52-.64-3.26-2.01-4.35-.27-.3-.54-.6-.81-.9-.45-.58-1.03-.91-1.77-.96-.49-.16-.98-.32-1.47-.47l.08-.14s-.13-.09-.13-.1c.51-.15,1.01-.3,1.52-.45,.94-.09,1.63-.59,2.2-1.3,.19-.26,.38-.51,.57-.77,0,0-.03,.06-.03,.06,.21-.37,.42-.73,.63-1.1,0,0-.06,.05-.06,.05,.55-.49,.68-1.13,.68-1.82,.15-.31,.3-.63,.51-1.06,.76,1.36,.68,3.19,2.27,4l.04,.04c.12,1.79,2.76,1.17,2.85,2.99Z"/>
      <path class="cls-18" d="M293.13,100.52c-.28,.44-.61,.85-.82,1.32-.22,.46-.32,.98-.6,1.88-.99-2.12-1.25-4.35-3.33-5.33-.26-.39-.65-.49-1.09-.46,0,0,.04,.03,.04,.03,.52-.52-2.18-.36-.24-1.26,1.92-.89,3.38-2.27,3.49-4.6,.48-.15,.6-.49,.54-.95,.35,0,.78-.07,.87,.37,.59,3.02,2.8,4.55,5.29,5.83-1.78,.55-2.96,1.87-4.17,3.17Z"/>
      <path class="cls-18" d="M173.58,248.99c-.45-.14-.75-.4-.75-.91,3.31-.39,4.34-2.92,5.3-6.2,1.02,3.34,2.45,5.74,6.17,6.5-3.42,1.15-5.23,2.97-5.69,5.95q-.66,.51-1.11-.76c-.38-2.32-1.67-3.87-3.92-4.59Z"/>
      <path class="cls-18" d="M291.06,186.88c-2.67,.84-3.26,3.23-4.16,5.73-1.58-2.52-1.83-6.11-5.94-6.24,3.59-1.07,5.23-3.42,5.8-7.38,1.05,3.61,2.28,6.28,5.76,6.84-.49,.35-.97,.7-1.46,1.05Z"/>
      <path class="cls-18" d="M212.54,219.65c-.31,.73-.62,1.45-1.03,2.41-.66-3.18-1.92-5.69-5.65-6.67,1.79-.75,3.25-1.23,4-2.63,1.07-1.03,1.17-2.49,1.75-4.05,.83,3.12,2.27,5.47,5.63,6.61-2.28,1.05-4.02,2.17-4.7,4.35Z"/>
      <path class="cls-18" d="M244.04,201.17c-2.47,1.05-3.59,2.57-4.35,5.27-.71-2.62-1.59-4.32-4.37-5.17,2.74-.96,3.84-2.54,4.35-4.74,.68,2.15,1.81,3.75,4.37,4.64Z"/>
      <path class="cls-18" d="M283.65,140.43c-.16,.54-.59,.8-1.05,1.03-1.72,.69-2.13,2.42-2.98,3.84-.28-.4-.52-.75-.76-1.1-.11-1.92-1.64-2.55-3.36-3.45,2.44-.89,3.77-2.45,3.89-4.87,.09-.08,.16-.18,.21-.29,.56,2.27,1.44,4.28,4.05,4.84Z"/>
      <path class="cls-18" d="M333.91,235.81c1.21-.95,.88-2.63,1.84-3.92,.66,3.22,2.21,5.53,5.68,6.52-2.78,1.12-4.73,2.69-5.25,5.52-.42,1.13-.82,1.13-1.05-.06-.54-2.8-2.29-4.45-5.04-5.34,1.46-.78,3.08-1.16,3.83-2.72Z"/>
      <path class="cls-18" d="M314.38,267c-2.74,.99-3.77,2.59-4.62,5.1-.73-2.42-1.62-4.19-4.35-4.98,2.61-.91,3.81-2.48,4.27-5.51,.82,2.82,1.78,4.56,4.7,5.39Z"/>
      <path class="cls-18" d="M192.42,183.35c-2.52,.91-3.58,2.7-4.39,5.27-.53-2.72-1.61-4.49-4.42-5.27,2.81-.78,3.95-2.45,4.39-5.13,.84,2.43,1.89,4.24,4.41,5.12Z"/>
      <path class="cls-18" d="M287.79,221.97c2.02-.95,3.38-2.01,3.74-4.14,.76,1.76,1.67,3.2,3.81,3.93-1.99,1-3.11,2.26-3.7,4.84-.69-2.53-1.45-4.16-3.84-4.63Z"/>
      <path class="cls-18" d="M229.24,284.5s0,0,0,0c-1.95,.48-2.86,1.95-3.59,4.64-.55-2.56-1.31-4.08-3.64-4.76,1.95-.96,3.12-2.13,3.66-3.99,.61,1.99,2.18,2.96,3.57,4.1Z"/>
      <path class="cls-18" d="M248.44,159.59c.82,2.09,1.63,3.54,4.26,4.18-2.52,.73-3.47,2.13-4.18,4.25-.84-1.86-1.43-3.57-4.26-4.07,2.55-.78,3.51-2.15,4.17-4.36Z"/>
      <path class="cls-18" d="M251.71,332.36c-.48-1.69-2.59-1.84-3.23-3.39,2.51-.48,3.4-2.29,3.78-4.78,.96,2.12,1.74,4.22,4.71,5.02-2.67,.94-3.71,2.62-4.47,4.89-.38-.82-.58-1.28-.79-1.74Z"/>
      <path class="cls-18" d="M256.31,257.21c-.15,.4-.3,.8-.66,1.76-.78-3.58-2.04-6.23-6.2-7,3.99-.83,5.48-3.14,6.24-6.33,.86,3,2.49,5.23,5.41,6.3-.05,.08-.08,.16-.14,.22-.06,.07-.14,.11-.21,.17-2.45,.74-3.8,2.47-4.43,4.87Z"/>
      <path class="cls-18" d="M342.42,205.51c.03-2.43-2.25-3.15-3.46-4.66,2.47-.33,3.13-2.27,3.8-4.51,.83,2.1,1.68,3.95,4.37,4.77-2.76,.86-2.7,3.5-4.38,4.75-.02,.01-.13-.07-.18-.13-.06-.06-.1-.15-.15-.22Z"/>
      <path class="cls-18" d="M304.2,312.41c-.48-2.99-1.59-4.66-4.27-5.52,2.67-.79,3.82-2.44,4.26-5.24,.77,2.6,1.86,4.37,4.46,5.22-2.6,.98-3.68,2.74-4.45,5.53Z"/>
      <g>
        <path class="cls-9" d="M173.26,152.58c1.65-.57,1.17-2.7,2.54-3.48,.77-1.19,1.9-1.81,3.24-2.1-.06-.94-1.06-.84-1.5-1.36-2.51-1.03-3.02-3.48-3.94-6.21-.57,3.88-2.11,6.36-6.21,7.25,3.78,.86,5.43,2.83,5.87,5.89Z"/>
        <path class="cls-9" d="M142.11,210.75c-.26,.6-.43,.99-.6,1.38-.48,1.72-1.87,2.52-3.5,3.25,2.89,.38,3.12,3.06,4.52,4.65,.28-1.48,.73-2.86,2.23-3.58,.17-.14,.34-.28,.52-.42,.38-.15,.76-.31,1.14-.46-.07-.24-.15-.49-.23-.73-2.52-.07-2.79-2.55-4.08-4.08Z"/>
        <path class="cls-9" d="M229.17,74.64c.94-2.29,1.96-4.1,4.69-5.08-2.87-.75-3.87-2.56-4.64-5.02-.63,2.53-1.51,4.41-4.14,5.1,2.61,.62,3.35,2.62,4.1,4.99Z"/>
        <path class="cls-9" d="M188.28,108.18c.61-2.25,1.42-3.68,3.16-4.33,.2-.43,.71-.87-.05-1.25-2.08-.64-2.47-2.61-3.38-4.46-.49,2.39-1.43,4.26-3.86,5.13,2.42,.74,3.05,2.75,4.13,4.91Z"/>
        <path class="cls-9" d="M335.13,243.88c-.54-2.8-2.29-4.45-5.04-5.34,1.46-.78,3.08-1.16,3.83-2.72-2.86-5.66-6.19-10.96-11.17-15.07-7.9-6.5-16.98-9.79-27.15-10.28-.62-.03-1.24-.09-1.86-.14-4.77,.3-9.53,.51-14.21,1.7-4.98,1.27-9.93,2.59-14.69,4.5-9.25,3.7-18.29,8.04-28.22,9.64-8.93,1.44-17.5,1-24.07-6.51-.31,.73-.62,1.45-1.03,2.41-.66-3.18-1.92-5.69-5.65-6.67,1.79-.75,3.25-1.23,4-2.63-1.68-11.07,5.91-23.07,16.46-26.02,10.23-2.86,19.97,6,18.08,16.44-.79,4.36-3.99,6.14-8.1,4.47-1.49-.61-2.87-1.42-4.13-2.45-1.12-.93-2.28-1.81-3.78-3,.2,2.29,.98,3.8,1.64,5.33,3.36,7.77,8.35,10.97,16.79,10.46,7.68-.46,14.07-3.92,19.69-9.02,7.42-6.74,10.91-15.26,10.37-25.09-.38-6.82-3.02-13.16-6.79-18.94-6.81-10.43-16.02-17.84-27.75-22.08-7.74-2.11-15.59-2.52-23.54-1.58-3.29,.75-4.27,3.41-5.09,6.29-.66-1.52-.64-3.26-2.01-4.35-.5,.1-1,.2-1.5,.3-2.1,.89-4.21,1.78-6.31,2.67-.57,.32-1.14,.64-1.71,.96-1.37,.79-2.74,1.58-4.11,2.37l-.08-.05c-.21,.45-.51,.74-1.05,.63v.05c-.18,.83-.9,1.09-1.55,1.42-.98,.86-1.96,1.72-2.94,2.57-2.11,2.35-4.21,4.71-6.32,7.06-.15,.17-.3,.34-.45,.52-1.97,3.6-3.94,7.2-5.91,10.81,.01,.15-.03,.28-.14,.4-.5,1.66-1.01,3.33-1.91,4.83-.09,.35-.18,.71-.27,1.06-.17,1.12-.41,2.22-1.01,3.2-.07,.36-.13,.73-.2,1.09-.13,.53-.26,1.06-.4,1.6-.11,.37-.23,.73-.34,1.1-.58,4.03-1.39,8.04-1.7,12.09-.58,7.54,.27,14.95,2.79,22.12,.14,.37,.28,.74,.42,1.1l.14,.18-.15,.14c-.16,.11-.31,.21-.47,.32,.18,1.3,1.96,1.24,2.16,2.52,1.78,2.51,3.55,5.02,5.33,7.52,1.09,.89,2.21,1.74,3.27,2.67,10.26,8.92,21.98,13.48,35.73,12.06,1.55-.58,3.31-.05,4.8-.92,.38-.08,.75-.16,1.13-.24,.36-.05,.72-.09,1.07-.14,1.77-.58,3.54-1.16,5.31-1.74,.37-.15,.74-.29,1.11-.44,.15-.1,.31-.16,.48-.17,7.66-3.14,15.29-6.33,23.81-6.25,12.41,.12,22.67,9.59,23.76,21.98,.79,9.04-6.05,16.78-15.12,17.26-5.87,.31-11.29-1.29-16.49-3.76-4.82-2.29-9.55-4.77-14.32-7.17l-.57-.42,.02,.04c-.72-.08-1.29-.39-1.6-1.09-1.36,.03-2.59-.4-3.72-1.14-.54-.18-1.08-.36-1.62-.53-.27-.16-.54-.31-.81-.47-.45-.05-.9-.09-1.34-.14l-.25,.04-.25-.05c-1.18,.1-2.16-.55-3.23-.88-.98-.06-1.96-.07-2.93-.19-8.06-.94-15.34,1.11-22.07,5.54-5.16,3.39-8.53,8.25-11.42,13.53,.57,2.61,2.38,4.01,5.24,5.06-3.63,1.09-5.05,3.71-6.01,7.06-.28-1.5-.46-2.65-1.12-3.63-.89,6.63,.12,12.95,3.17,18.9,3.76,7.33,9.52,11.69,17.98,12.15,4.86,.27,9.56-.6,14.28-1.49,5.23-.99,10.43-2.28,15.81-2.21,6.74-.84,13.28-.2,19.6,2.48,10.67,4.53,14.65,14.65,9.9,25.26-1.83,4.09-4.68,7.54-6.91,11.37,.16,.15,.31,.31,.47,.46,16.9-8.85,20.23-27.42,12.62-41.69-3.29-6.17-9.11-8.62-15.4-10.35-6.59-1.81-13.48-2.39-19.94-4.78-2.43-.9-4.78-1.93-6.67-3.76-2.75-2.65-4.4-5.61-2.58-9.51-1.95,.48-2.86,1.95-3.59,4.64-.55-2.56-1.31-4.08-3.64-4.76,1.95-.96,3.12-2.13,3.66-3.99,.61,1.99,2.18,2.96,3.57,4.1,4.11-4.89,9.34-5.62,15.39-4.79,7.56,1.04,13.63,4.83,19.74,8.94,4.22,2.84,8.2,6.06,12.87,8.26,3.59,1.69,7.34,2.64,11.17,3.42,9.6,.25,18.78-1.65,27.58-5.45,9.48-4.09,15.87-11.02,18.93-20.89,3.07-9.89,3.8-19.91,1.26-30.05-.42,1.13-.82,1.13-1.05-.06Zm-86.69-84.29c.82,2.09,1.63,3.54,4.26,4.18-2.52,.73-3.47,2.13-4.18,4.25-.84-1.86-1.43-3.57-4.26-4.07,2.55-.78,3.51-2.15,4.17-4.36Zm-60.41,29.03c-.53-2.72-1.61-4.49-4.42-5.27,2.81-.78,3.95-2.45,4.39-5.13,.84,2.43,1.89,4.24,4.41,5.12-2.52,.91-3.58,2.7-4.39,5.27Zm103.6,37.98c-.69-2.53-1.45-4.16-3.84-4.63,2.02-.95,3.38-2.01,3.74-4.14,.76,1.76,1.67,3.2,3.81,3.93-1.99,1-3.11,2.26-3.7,4.84Zm18.14,45.49c-.73-2.42-1.62-4.19-4.35-4.98,2.61-.91,3.81-2.48,4.27-5.51,.82,2.82,1.78,4.56,4.7,5.39-2.74,.99-3.77,2.59-4.62,5.1Z"/>
        <polygon class="cls-9" points="236.41 263.46 236.41 263.47 236.42 263.47 236.41 263.46"/>
        <path class="cls-9" d="M283.05,169.14s-.03-.05-.04-.08c0,.03,0,.07,0,.1l.03-.03Z"/>
        <path class="cls-9" d="M259.73,131.54c3.83,6.12,11.43,10.94,19.65,4.33,.09-.08,.16-.18,.21-.29,2.24-2.64,3.96-5.5,4.02-9.1,.07-4.52-2.39-6.61-6.81-5.68-1.73,.36-3.41,.97-5.36,1.54,.27-2.59,1.52-4.36,3.74-5.34,4.81-2.13,11.34,.2,13.86,4.85,3.05,5.63,2.49,10.2-1.87,14.93-1.15,1.25-2.35,2.44-3.53,3.65-.15,.54-.59,.8-1.05,1.03-.92,1.75-1.85,3.49-2.77,5.24-.16,.6-.32,1.2-.47,1.8l.04,.14s-.13,.1-.13,.09c-1.61,7.31,.4,13.95,3.75,20.34-.14-1.74-.28-3.48-.43-5.22-.55-6.7-.52-13.27,4.44-18.63,2.68-2.91,6.05-4.96,9.31-7.13,6.82-4.54,10.91-10.59,9.68-19.1-1.19-8.22-5.06-14.78-12.89-18.47-.28,.44-.61,.85-.82,1.32-.22,.46-.32,.98-.6,1.88-.99-2.12-1.25-4.35-3.33-5.33-.36-.15-.72-.31-1.08-.46,0,0,.04,.03,.04,.03-3.61-.45-7.21-1.01-10.87-.62-4.76,.51-9.17,1.93-12.81,5.17-5.68,5.06-7.45,11.67-7.32,18.99,.72,3.49,1.46,6.96,3.4,10.04Z"/>
        <path class="cls-9" d="M177.5,253.58c-1.74-1.16-3.18-2.58-3.92-4.59-.45-.14-.75-.4-.75-.91-.57-1.61-1.3-3.18-1.32-4.94-.17-.31-.27-.82-.51-.89-.56-.17-.35,.41-.39,.65-.31,1.75-.52,3.54-1.71,4.98-.24,.75-.3,1.62-.75,2.21-.92,1.21-1.35,3.15-3.53,2.83-.07,.29-.14,.57-.21,.86-1.47,1.49-3.72,1.39-5.68,2.57,6.96,.95,11.27,6.1,12.02,13.9,1.87-6.74,4.81-12.54,12.75-14.07-1.91-.72-3.4-1.28-4.89-1.84q-.66,.51-1.11-.76Z"/>
        <path class="cls-9" d="M226.08,117.02c5.24,1.48,7.97,4.55,8.7,9.34-.14,.24-.29,.47-.43,.71,1.09,.99,1.32,.52,1.57-.71,.63-3.16,2.25-5.76,4.97-7.58,1.09-.73,2.68-.58,3.51-1.96-5.25-1.35-7.77-5.02-8.69-10.08-.05-.26,.28-1.24-.7-.73-.05,.36-.1,.71-.15,1.06-.44,5.17-3.15,8.49-8.78,9.96Z"/>
        <path class="cls-9" d="M346.72,161.68c-.08-.34-.15-.68-.23-1.02-.17-.53-.33-1.06-.5-1.59-.33-1.07-.67-2.14-1-3.22-.15-.38-.29-.75-.44-1.13-.17-.35-.35-.71-.52-1.06-1.08-1.72-2.16-3.44-3.24-5.16-2.19-2.1-4.33-4.22-7.1-5.61-10.14-5.08-25.23-1.55-32.91,7.54-4.95,5.87-6.13,12.45-4.7,19.77,.93,4.74,1.74,9.58,.56,14.33-1.97,7.9-7.28,13.48-13.5,18.43,9.52-2.48,18.92-5.23,26.61-11.89,0,0,0,.02,0,.02,.31-.37,.61-.73,.92-1.1,.41-.52,.82-1.03,1.22-1.55,1.49-2.66,2.38-5.52,2.71-8.55,0-.36,0-.72,0-1.08-.01-.71-.03-1.42-.04-2.14-.54-2.91-.38-5.77,.56-8.59,.3-.72,.6-1.43,.9-2.15,.87-2.06,2.13-3.74,4.42-4.37,0,0,0,.04,0,.04,.4-.58,.97-.72,1.63-.62,0,0-.04,.08-.04,.08,.2-.13,.4-.26,.6-.39,.89-.24,1.79-.28,2.7-.07,.59-.03,1.19-.06,1.65,.42,.38,.19,.75,.39,1.13,.58,2.81,1.96,3.3,4.3,1.58,7.57-.09,.72-.44,1.26-1.07,1.61-1.9,3.04-4.32,2.69-6.95,1.09,0,.34,.01,.67,.02,1.01,.34,.51,.33,1.06,.24,1.63,.25,1.05,.5,2.1,.75,3.15,.65,.91,1.3,1.82,1.96,2.73,.13,.05,.21,.14,.25,.27,.9,.56,1.79,1.12,2.69,1.67,2.2,.69,4.45,1.11,6.77,1.05,.39-.06,.78-.13,1.16-.19,1.41-.45,2.82-.91,4.23-1.36,.2-.12,.39-.24,.59-.36,1.6-1.28,3.18-2.58,4.38-4.27,.23-.41,.47-.81,.7-1.22,1.6-3.73,1.98-7.65,1.74-11.65-.38-.85-.48-1.75-.43-2.68Z"/>
        <path class="cls-9" d="M320.49,128.92c1.86-4.41,2.34-4.97,5.94-6.89-3.4-.89-4.97-3.31-5.92-6.4-.48,3.47-2.21,5.72-6.2,6.58,4.04,.79,5.46,3.3,6.17,6.71Z"/>
        <path class="cls-9" d="M283.05,169.14s-.03,.03-.03,.03c.09,.12,.18,.25,.27,.37-.08-.13-.16-.26-.24-.4Z"/>
        <path class="cls-9" d="M248.48,328.97c-.57-1.19-1.14-2.39-1.71-3.58-.42,3.12-1.9,5.55-5.73,6.76,3.98,.98,5.2,3.53,5.87,7.35,.65-3.62,2.14-5.83,4.79-7.14-.48-1.69-2.59-1.84-3.23-3.39Z"/>
        <path class="cls-9" d="M265.3,256.04c-2.16-.89-3.66-1.95-4.56-3.69-2.45,.74-3.8,2.47-4.43,4.87,2.19,.99,2.43,3.31,3.49,5.48,.75-3.22,2.46-5.32,5.5-6.66Z"/>
        <path class="cls-9" d="M338.96,200.85c-1.84-2.31-2.92-4.91-3.07-7.88,0,0,.05-.07,.05-.07-.28,.07-.55,.15-.82,.23,.06,4.04-1.13,7.45-4.84,9.58-.73,.34-1.45,.69-2.18,1.03-.57,.22-1.14,.44-1.99,.78,1.56,.54,2.87,.56,3.79,1.51,4.06,1.87,4.68,5.86,5.79,9.99,.97-4.7,2.51-8.48,6.72-10.49,.03-2.43-2.25-3.15-3.46-4.66Z"/>
        <path class="cls-9" d="M363.77,219.8c-.31,2.74-1.7,3.91-3.77,5.05,2.44,.77,3.2,2.63,4.12,4.69,.85-2.18,1.64-3.96,4.28-4.67-2.42-1.09-3.47-2.72-4.63-5.07Z"/>
      </g>
      <path class="cls-18" d="M354.42,156.39c.56,3.25,1.89,5.93,5.27,7.13-.11,.98-1.25,.78-1.69,1.4-1.1,.57-1.96,1.36-2.34,2.58-.74,.84-.74,1.97-1.23,3.19-.93-3.16-1.8-6.19-5.63-6.51-.02-.21-.04-.42-.06-.64,.65-.12,1.38-.04,1.78-.74,.18-.17,.36-.33,.54-.5,1.1,0,1.59-.62,1.68-1.65,1-.84,1.21-1.95,1.13-3.17,.51-.2,.47-.67,.54-1.09Z"/>
    </g>
    <g>
      <path class="cls-8" d="M37.43,223.21c3.38-5.1,7.8-9.33,11.74-13.97,5.08-5.98,10.29-11.85,15.34-17.86,1.47-1.75,2.63-2.26,4.57-.62,19.04,16.15,38.11,32.25,57.2,48.33,1.14,.96,1.72,1.92,1.15,3.37-1.37,3.85-4.57,6.36-7.1,9.3-6.27,7.28-12.47,14.61-18.88,21.77-.79,.89-1.45,1.95-2.8,2.09-1.32-.33-1.97-1.59-3.06-2.23-17.77-14.82-35.32-29.92-53.1-44.73-1.89-1.57-4.08-2.97-5.06-5.44Z"/>
      <path class="cls-10" d="M37.43,223.21c8,6.69,16.02,13.35,23.98,20.08,11.62,9.83,23.21,19.7,34.81,29.56,.75,1.2,0,2.12-.68,2.93-1.89,2.26-3.5,4.77-5.61,6.83-3.25,3.17-6.01,6.59-6.93,11.18-6.18-4.4-11.73-9.55-17.48-14.49-4.44-3.82-9.1-7.4-13.51-11.27-5.87-5.16-11.93-10.12-17.91-15.16-2.58-2.17-5.23-4.24-7.75-6.47-4.14-3.67-4.39-6.25-.59-10.21,3.53-3.67,6.54-7.75,9.92-11.54,.5-.56,1.16-.97,1.75-1.45Z"/>
      <path class="cls-20" d="M98.65,275.27c8.89-10.27,17.79-20.54,26.69-30.79,.63-.73,1.39-1.35,2.09-2.01,2.21,1.9,4.41,3.79,6.62,5.69,.75,1.72-.66,2.62-1.51,3.6-8.58,9.89-17.17,19.77-25.74,29.67-1.55,1.31-2.52,3.24-4.36,4.25-.54,.15-1.12,.18-1.59-.11-1.68-1.06-2.91-.76-4.19,.82-1.24,1.54-1.98,2.83-.31,4.5,.46,.46,.51,1.19,.27,1.86-.45,1.02-1.21,1.81-2,2.55-2.58,2.39-4.93,2.41-7.48,.1-2.58-2.34-2.91-4.78-.78-7.44,3.19-3.99,6.68-7.72,10.06-11.54,.59-.66,1.27-1.19,2.24-1.13Z"/>
      <path class="cls-8" d="M106.11,280.93c7.74-8.99,15.49-17.97,23.22-26.98,1.62-1.89,3.15-3.87,4.72-5.8,.89-.35,1.9-1.07,2.58,.1,.6,1.04-.29,1.81-.93,2.54-9.2,10.55-18.4,21.1-27.59,31.65-1.34,.38-1.87-.3-2-1.52Z"/>
      <path class="cls-17" d="M98.65,275.27c-3.84,4.44-7.68,8.88-11.5,13.33-2.2,2.57-1.98,3.75,.77,6.24,2.18,1.98,4.12,2.22,6.08-.24,.74-.93,1.61-1.76,2.42-2.64,1.28-.17,2.14,.17,2.01,1.68-.91,1.08-1.74,2.24-2.73,3.24-3.08,3.12-5.84,3.19-9.13,.28-1.22-1.08-2.38-2.24-3.56-3.36-1.29-4.05,1.38-6.61,3.69-9.11,3.45-3.74,6.8-7.53,9.53-11.83,1.12,.49,1.9,1.33,2.43,2.42Z"/>
      <path class="cls-7" d="M98.43,293.64c-.43-.84-1.19-1.3-2.01-1.68-.46-.46-.84-1.04-1.39-1.35-1.85-1.06-1.81-2.18-.28-3.47,.25-.21,.49-.46,.64-.74,1.78-3.3,3.99-3.76,6.7-1.05,1.12,.15,2.14,.42,2.25,1.82,2.98,1.75,2.28,4.48,1.89,7.13-.21,1.38-.4,2.76-.66,4.57-2.56-1.88-4.86-3.56-7.15-5.23Z"/>
      <path class="cls-17" d="M104.35,287.18c-.75-.61-1.5-1.22-2.25-1.82,1.34-1.47,2.68-2.95,4.02-4.42,.67,.51,1.33,1.01,2,1.52-1.26,1.58-2.51,3.15-3.76,4.73Z"/>
    </g>
    <g>
      <g>
        <path class="cls-10" d="M116.94,119.44s0,0,0,0c0,0,0,0,0,0-2.19,.38-3.47,2.07-3.94,3.85-1.02,3.91-1.81,7.91-1.81,12,1.5-1.05,3.01-2.09,3.88-3.79,2.16,1.13,4.39,1.37,6.72,.48,.72-4.1,1.44-8.2,2.16-12.29-2.33-.3-4.63-1.46-7.02-.24Z"/>
        <path class="cls-10" d="M107.12,181.25s0,0,0,0c-1.81,.39-2.74,1.79-3.67,3.19-1.16,3.88-1.85,7.83-1.92,11.89,.86-1.93,2.53-2.92,4.35-3.74,2.13-.49,4.18,.27,6.27,.44,.6-3.89,1.21-7.79,1.82-11.68-2.28-.46-4.55-1.15-6.85-.09Z"/>
        <path class="cls-10" d="M114.47,135.55h0c-1.72,.6-2.98,1.72-3.81,3.34-1.07,3.41-1.66,6.89-1.73,10.47,1.01-2.08,2.67-3.37,4.88-3.99,1.95-.11,3.87,.1,5.75,.59,.54-3.42,1.08-6.84,1.62-10.25-2.23-.36-4.46-1.02-6.72-.16Z"/>
      </g>
      <path class="cls-16" d="M123.96,119.68c17.01,2.68,34.02,5.37,51.03,8.02,1.72,.27,2.2,1.12,1.94,2.78-3.83,23.85-7.62,47.7-11.43,71.55-.88,.32-1.76,.11-2.64-.03-15.79-2.51-31.58-5-47.37-7.52-1.24-.2-2.53-.28-3.5-1.25-.5-.72-.52-1.55-.4-2.36,.5-3.3,.85-6.63,1.67-9.88,.74-6.73,2-13.38,3.05-20.06,.8-5.07,1.4-10.16,2.54-15.17,.35-3.41,.82-6.81,1.62-10.15,.06-1.27,.22-2.53,.6-3.75,.22-3.31,.91-6.55,1.45-9.81,.16-.97,.55-1.83,1.44-2.37Z"/>
      <path class="cls-9" d="M119.57,145.96c-8.41,49.08-1.15,30.33-16.32,37.83,2.13-12.26,3.01-24.05,6.32-36.38,1.85-2.95,7.75-4.12,10-1.45Z"/>
      <path class="cls-2" d="M112.15,193.03c16.81,2.68,33.63,5.35,50.44,8.03,1.02,.16,2.09,.18,2.9,.97-.08,.55-.15,1.11-.23,1.66-.69,.98-1.64,1-2.67,.76-17.7-2.79-35.4-5.61-53.09-8.42-1.42-.23-2.81-.51-3.94,.72-.39,.62-.89,1.18-1.16,1.89-.91,2.45,.43,4.79,2.98,5.23,.87,.15,1.78,.16,2.58,.62,.88,1.01,1.95,.38,2.96,.32,1.13,.07,2.25,.26,3.34,.55,.94,.19,1.4,1.84,2.72,.89,12.22,1.74,24.38,3.85,36.58,5.71,1.16,0,2.27,.35,3.42,.43,.76,.06,1.6,.36,2.21-.42,.17-.14,.36-.23,.58-.28,1.06,.47,1.28,1.58,1.83,2.43-.04,1.51-.68,2.01-2.26,1.76-18.39-2.96-36.79-5.82-55.18-8.8-4.73-.76-6.73-5.62-4.62-10.74,.22-2.86,2.52-3.57,4.64-4.47,2.13-.3,4.22-.43,5.98,1.17Z"/>
      <path class="cls-9" d="M111.2,135.29c1.62-3.88,5.89-4.56,10.6-3.32-.07,2.44-.7,3.32-1.33,3.63-1.12,.55-2.24-.66-4.06-.56-1.74,.1-3.12,1.33-4.1,2.52-.58,.52-1.28,1.04-1.61,.84-.47-.29,0-1.91,.51-3.11Z"/>
      <path class="cls-10" d="M163.08,203.91c.73-.07,1.46-.15,2.19-.22-.55,3.47-1.11,6.94-1.66,10.42-1.1-.34-2.06-.8-1.75-2.24-.53-.27-.58-.77-.59-1.28,.02-.48,.04-.97,.17-1.44,.06-.47,.1-.94,.22-1.39,.05-.47,.11-.93,.22-1.38,.05-.35,.07-.71,.18-1.05,.13-.62,.36-1.17,1.01-1.41Z"/>
      <path class="cls-9" d="M128.27,165.49c.76-4.78,1.5-9.57,2.28-14.35,.44-2.65,1.35-3.33,3.96-2.92,7.8,1.21,15.61,2.44,23.4,3.72,3.23,.53,3.86,1.44,3.35,4.75-1.38,8.83-2.79,17.66-4.2,26.49-.14,.88-.42,1.74-.63,2.6-.35,1.4-1.28,1.95-2.67,1.73-8.61-1.36-17.22-2.72-25.83-4.1-1.96-.31-2.23-1.68-1.96-3.34,.78-4.86,1.54-9.71,2.31-14.57Z"/>
      <path class="cls-9" d="M148.17,139.93c-4.42-.7-8.83-1.42-13.25-2.09-1.3-.2-2.48-.65-2.25-2.17,.22-1.45,1.37-1.73,2.74-1.51,8.83,1.42,17.67,2.82,26.5,4.2,1.34,.21,2.33,.66,2.05,2.27-.3,1.67-1.5,1.57-2.76,1.37-4.34-.69-8.69-1.38-13.03-2.07Z"/>
      <path class="cls-7" d="M111.26,198.82c2.48-.59,4.81,.42,7.2,.74,.95,.13,.66,1.01,.58,1.64-.22,1.84-.49,3.67-.73,5.5-1.32,1.62-1.17-.82-1.94-.71-1.22-1-2.51-1.52-4.03-.65-.69-.31-1.75,2.4-2.16-.26-.22-.43-.48-.85-.41-1.36,.02-.48,.06-.95,.18-1.42,.06-.47,.11-.93,.23-1.39,.05-.47,.14-.94,.33-1.38,.16-.34,.39-.6,.76-.72Z"/>
      <path class="cls-13" d="M112.35,205.35q2.27-1.73,4.03,.65c-1.34-.22-2.69-.43-4.03-.65Z"/>
      <path class="cls-20" d="M163.08,203.91c-18.23-2.91-36.46-5.82-54.7-8.72-1.57-.25-2.97,.06-3.78,1.64,0,0,0,0,0,0-2.62,3.66-1.21,7.15,3.18,7.86,.8,.13,1.6,.26,2.4,.4,.07-.48,.14-.95,.21-1.42,.07-.44,.15-.88,.22-1.32h0l.2-1.33c.07-.44,.15-.89,.22-1.33h0c.04-.15,.07-.29,.11-.44,1.35,.27,2.73,.33,4.09,.57,2.92,.51,2.9,.52,2.59,3.41-.12,1.17-.8,2.49,.48,3.49,.88,.13,1.77,.24,2.65,.38,11.7,1.83,23.4,3.67,35.1,5.5,1.32,.23,2.65,.42,3.95,.7,1.2,.26,1.67-.23,1.64-1.37,0,0,0,0,0,0,0,0,.2-.06,.2-.06,.03-.46,.06-.91,.09-1.37,.06-.45,.13-.91,.19-1.36,.08-.43,.15-.86,.23-1.29,.07-.45,.13-.91,.2-1.36,.04-.29,.07-.59,.11-.88h0c.13-.56,.27-1.12,.4-1.69Z"/>
    </g>
    <g>
      <g>
        <path class="cls-15" d="M426.02,380.15c-.27-.92-.53-1.84-.8-2.77-1.23,.55-2.48,.23-3.72,.1,.43,.02,.85,.03,1.28,.05,.85,.03,1.63,.12,2.31-.5-.89-1.95-2-3.84-2.62-5.88-1.04-3.4-4.22-5.32-5.5-8.54-.78-1.97-1.65-4-3.46-5.36-.78-.63-1.68-.89-2.67-1-11.15-1.22-22.16-3.35-33.2-5.3-6.09-1.03-12.12-2.41-18.18-3.58-12.22-2.36-24.5-4.1-36.98-4.13-2.93,.05-5.86,.02-8.79,.03-3.22-.07-6.37,.52-9.54,.96-14.18,1.98-27.34,6.49-38.42,15.9-2.8,2.38-5.83,4.65-7.37,8.21,.02,.81,.61,1.17,1.21,1.46,4.93,2.43,8.31,6.38,10.88,11.12,.46,.85,.88,1.75,1.97,1.97,1.54,.27,3.03,0,4.51-.38,11.67-3.03,23.6-4.05,35.59-4.31,8.48-.18,16.95,.59,25.38,1.42,10.8,1.07,21.6,2.06,32.41,3.03,1.87,0,3.7,.45,5.57,.45,15.88,0,31.76,0,47.64-.01,1.03,0,2.11,.11,2.95-.73-.15-.74-.3-1.48-.45-2.23Z"/>
        <path class="cls-15" d="M229.94,345.35c-9.29-4.42-19.32-5.48-29.38-6.06-9.32-.54-18.6,.28-27.86,1.53-16.43,2.21-32.5,6.21-48.7,9.56-10.44,2.16-20.93,4.04-31.46,5.73-1.41,.23-2.81,.33-4.03,1.14-1.21,.98-1.58,2.48-2.32,3.75-1.17,1.98-1.87,4.57-3.57,5.82-1.9,1.4-2.51,3.07-3.2,4.98-.96,2.65-1.98,5.27-2.97,7.91,.62,.59,1.39,.41,2.12,.43,.3,0,.6,.01,.9,.02-.53,0-1.06,0-1.59,0-.67,0-1.35-.03-1.9,.46-.15,.58-.3,1.17-.45,1.75,1.04,1,2.37,.75,3.6,.73,12.33-.12,24.66,.39,36.98-.45,6.81-.56,13.64-.89,20.45-1.31,7.2-.44,14.39-1.04,21.59-1.55,9.94-.72,19.89-1.3,29.85-1.62,6.18-.2,12.34,.43,18.5,.85,6.71,.45,13.32,1.39,19.75,3.44,.75,.14,1.49,.38,2.27,.19,.97-.45,1.3-1.41,1.74-2.25,3.76-7.21,9.62-11.37,17.76-12.25,1.13-.12,2.42-.04,3.16-1.25,0-1.09-.49-2.02-.99-2.93-4.68-8.44-11.59-14.49-20.24-18.61Z"/>
      </g>
      <path class="cls-19" d="M329.79,289.72c6.51-4.6,13.46-8.45,20.53-12.07,6.08-3.11,12.27-5.98,18.41-8.96,2.27-.85,4.54-1.71,7.16-2.7-1.42,5.1-2.76,9.86-4.07,14.62-.45,1.62-1.95,1.24-2.98,1.42-7.1,1.24-14.15,2.7-21.16,4.36-6,1.42-11.94,3.08-17.76,5.14-.62,.22-1.21,.62-1.93,.43-.2-1.39,1.47-1.26,1.8-2.23Z"/>
      <path class="cls-5" d="M329.79,289.72c.12,1.32-1.67,1.1-1.8,2.23-.98,.6-1.98,1.18-3.13,1.38,1.29-1.69,3.23-2.49,4.93-3.6Z"/>
      <path class="cls-16" d="M272.01,382.5c1.52-.09,3.06-.03,4.55-.49,26.19-.8,52.38-.15,78.57-.34,3.94-.03,7.88,.13,11.8,.47,1.02,.09,2.08,.18,3.1-.12,17.54,.85,35.1,.22,52.65,.41,1.26,.01,2.53-.03,3.79-.05,2.44,.34,3.64,1.44,3.51,3.2-.13,1.77-1.44,2.69-3.93,2.69-48.75,0-97.51,0-146.26,.02-.93,0-1.95-.34-2.79,.41-1.7,.29-3.41,.27-5.1-.05-1.36-.26-2.63-.78-2.48-2.56,.14-.47,.37-.82,.92-.54,1.81,.93,1.87-.03,1.54-1.41-.13-.56-.37-1.12,.12-1.63Z"/>
      <path class="cls-16" d="M75.53,382.36c12.33-.06,24.67,.48,36.99-.34,1.26-.08,2.52-.02,3.78-.03,3.49,.46,6.98-.07,10.46-.14,3.2-.06,6.4-.18,9.6-.18,28.24-.04,56.48,0,84.72-.05,1.93,0,3.81,.57,5.74,.35l1.7,.49c.38,.47,.15,.96,.07,1.45-.1,.63-.48,1.42,.3,1.74,.85,.35,1.01-.56,1.33-1.08,.4-.64,.53-1.61,1.66-1.33,1.13,.77,1.47,1.85,1.05,3.1-.5,1.46-1.6,2.28-3.14,2.43-2.2,.21-4.44-.12-6.61,.45-.52-1.35-1.69-.93-2.66-.93-36.85-.01-73.69-.01-110.54-.01-11.26,0-22.53,0-33.79,0-1.2,0-2.41,.08-3.29-.97-.74-.87-.94-1.84-.55-2.92,.54-1.49,1.75-1.91,3.17-2.01Z"/>
      <path class="cls-7" d="M257.71,368.44c.3,.06,.61,.12,.91,.18,6.35,2.81,10.35,7.89,13.4,13.89,.13,.49,.2,1,.39,1.46,.39,.94,.61,1.91-.37,2.55-1.19,.78-1.63-.38-2.21-1.07-2.35-6.99-6.43-12.64-13.8-14.58-10.26-2.7-20.55,1.88-24.65,12.4-.31,.74-.61,1.49-.94,2.22-.35,.77-.82,1.52-1.81,1.11-.87-.36-1.04-1.18-.79-2.05,.2-.7,.45-1.39,.68-2.09,2.52-5.48,6.01-10.05,11.6-12.76,3.42-1.66,7.06-2.22,10.79-2.42,.55,.57,1.22,.29,1.86,.28,.92,.07,1.84,.15,2.76,.22,.73,.23,1.45,.45,2.18,.67Z"/>
      <path class="cls-12" d="M313.22,343.87c3.14-.69,6.27-.69,9.41,0-3.14,0-6.27,0-9.41,0Z"/>
      <path class="cls-7" d="M199.04,371.66c-.03-2.23-.06-4.46-.09-6.68-.42-2.23,.22-4.49-.2-6.71-.03-.34-.05-.67-.08-1.01-.4-.44-.43-.89-.06-1.37,.01-2.78,.03-5.56,.04-8.34,.18-.19,.41-.28,.67-.26,6.94-.07,13.77,.81,20.48,2.58,.86,.23,1.75,.37,2.48,.95,.2,.19,.25,.42,.16,.69-.17,8.73-.34,17.47-.52,26.69-1.62-1.19-2.84-2.09-4.07-2.99-.96-.3-1.82-.79-2.6-1.41-.25-.16-.47-.35-.7-.53-5.01-3.9-3.12-3.7-8.49-.53-.5,.38-1.12,.46-1.69,.67-1.83,.41-3.14,1.82-4.96,2.6-.56-.96-.12-2.02-.38-2.95-.29-.47-.32-.93,.03-1.39Z"/>
      <g>
        <path class="cls-10" d="M272.91,388.2c-1.64-.24-3.44-.29-3.08-2.76,.48-.64,.23-1.31-.03-1.9-1.62-3.62-3.57-7.01-6.69-9.59-3.97-3.29-8.5-4.55-13.66-4.28-7.9,.42-13.6,4.17-17.51,10.88-.46,.8-1.02,1.68-.56,2.72,.98,.81,1.64,1.79,1.03,3.05-.61,1.27-1.63,2-3.17,1.91-1.46-.09-2.94,0-4.41-.02-.77,0-1.5,0-1.65,1.01,.49,2.2,2.06,2.98,4.1,2.98,15.19,.02,30.38,.02,45.57,0,2.27,0,3.81-1.08,4.15-3.49-1.27-.96-2.73-.29-4.09-.49Z"/>
        <path class="cls-10" d="M348.02,379.93c-15.35-1.55-30.69-3.11-46.15-1.95-8.54,.64-17.04,1.66-25.31,4.02,.62,.63,1.41,.37,2.12,.37,29.59,.01,59.18,.01,88.77,0,.86,0,1.8,.29,2.58-.36-7.34-.69-14.68-1.34-22.02-2.08Z"/>
        <path class="cls-10" d="M226.82,381.97c-1.57-.47-3.11-1.03-4.71-1.4-11.78-2.71-23.77-3.26-35.77-2.98-23.4,.55-46.69,3.1-70.05,4.41,.69,.67,1.56,.39,2.35,.39,35.36,.01,70.71,0,106.07,0,.71,0,1.51,.27,2.1-.41Z"/>
      </g>
      <path class="cls-4" d="M199.07,347.48c.89-2.05,2.76-1.82,4.49-1.91,6.53,.36,12.98,1.25,19.22,3.29,.57,.87,.63,1.64-.44,2.18-5.29-1.29-10.63-2.29-16.05-2.92-1.93-.23-3.84-.19-5.75-.13-.62,.02-1.17,.22-1.47-.51Z"/>
      <g>
        <path class="cls-14" d="M375.56,356.93c-8.05-1.7-16.14-3.2-24.23-4.73-9.27-1.75-18.63-2.86-28.05-3.33-13.23-.66-26.05,1.62-38.45,6.22-3.81,1.41-7.57,2.97-11,5.18,3.67-1.21,7.23-2.66,10.88-3.9,9.68-3.28,19.58-5.45,29.84-5.8,10.75-.37,21.34,.9,31.93,2.6,14.28,2.29,28.46,5.08,42.69,7.65,2.72,.49,5.4,1.37,8.25,1.09-7.28-1.68-14.54-3.46-21.86-5Z"/>
        <path class="cls-14" d="M273.78,368.49c24.97-10.53,50.84-10.63,77.08-6.46-26.35-5.43-52.3-6.22-77.08,6.46Z"/>
        <path class="cls-14" d="M282.43,373.41c20.02-6.29,40.36-5.51,60.78-2.85-20.47-3.73-40.84-5.19-60.78,2.85Z"/>
        <path class="cls-14" d="M201.39,345.25c-7.44-.02-14.86,0-22.29,.78-7.16,.75-14.27,1.78-21.35,3.05-8.55,1.53-16.93,3.82-25.41,5.67-4.05,.88-8.03,2.05-12.05,3.08,.51,.32,.96,.36,1.38,.26,14.14-3.38,28.33-6.42,42.74-8.51,11.37-1.65,22.75-2.34,34.22-2.03,.14-.03,.29-.05,.43-.07,1.36-.97,3.12-.97,4.49-1.91-.67-.48-1.44-.31-2.17-.31Z"/>
        <path class="cls-14" d="M197.07,363.35c-8.55-.63-17.11-.21-25.64,.39-7.16,.5-14.31,1.36-21.41,2.51-4.69,.76-9.41,1.3-14.02,2.56,20.9-2.65,41.78-5.58,62.94-3.83,.05-2.24-.63-1.54-1.87-1.63Z"/>
        <path class="cls-14" d="M144.6,375.1c18.09-1.95,36.22-2.85,54.41-2.05,0-.46,.02-.92,.02-1.39-18.24-.38-36.43,.02-54.43,3.43Z"/>
        <path class="cls-14" d="M198.66,357.26c-.02-.45-.04-.91-.06-1.37-.84-.38-1.74-.34-2.63-.34-8.93-.03-17.8,.79-26.64,1.83-5.16,.61-10.3,1.48-15.44,2.24,14.9-1.48,29.75-3.47,44.78-2.36Z"/>
        <path class="cls-14" d="M222.79,348.86c.09,.77-.02,1.51-.44,2.18,.03,.15,.06,.31,.09,.46,8.04,1.92,14.69,6.3,20.78,11.71-5.07-7.27-12.21-11.57-20.42-14.35Z"/>
        <path class="cls-14" d="M214.45,373.2c-2.87-.66-5.73-1.51-8.71-.7-.64,.03-1.06,.39-1.38,.9,4.5,.6,8.99,1.2,13.49,1.8-.71-.58-1.43-1.16-2.14-1.74-.48,.21-.83-.16-1.25-.26Z"/>
      </g>
      <path class="cls-20" d="M363.19,269.92c-4.59,1.35-11.58,3.51-19.98,6.51-28.25,10.09-48.49,17.55-65.43,34.95-4.13,4.24-9.94,11-15.41,20.81-.62-18.09-2.95-32.81-5.1-43.26-1.86-9.02-3.28-15.78-6.64-24.83-4.7-12.63-11.32-24.27-19.23-35.2-4.21-5.82-8.56-11.51-12.97-17.17-1.03-1.32-2.01-1.91-3.71-.82-7.37,4.72-14.8,9.33-22.22,13.96-5.71,3.56-11.44,7.1-17.16,10.65,3.89,3.58,7.77,7.18,11.56,10.86,5.45,5.3,10.84,10.66,15.98,16.28,3.92,4.29,7.94,8.5,11.75,12.88,8.23,9.45,16.12,19.18,23.29,29.47,5.2,7.46,10.31,14.99,14.12,23.31,2.95,6.44,4.85,13.13,5.61,20.16,.06,.55-.2,1.46,.6,1.57,0,.01,0,.02-.02,.04,0,4.67,0,9.34,0,14.36,4.17-5.74,8.09-11.13,12.01-16.52,.97,.08,1.34-.93,1.82-1.55,7.02-9.18,14.46-18.01,22.28-26.5,9.19-9.97,19.23-19.03,30.56-26.59l-.03,.03c1.68-1.25,3.59-2.13,5.3-3.33,11.7-7.6,24.03-14.02,36.74-19.73,.22-.1,.81-.43,1.64-.85,2.95-1.5,5.48-2.64,7.36-3.43-2.79,.84-7.24,2.2-12.7,3.93Z"/>
      <path class="cls-20" d="M247.18,344.29c-.59-1.29-1.31-2.51-2.22-3.61-.33-.29-.66-.59-.98-.89-.09-.25-.2-.49-.33-.71-5.92-9.67-12.88-18.54-20.61-26.78-5.22-5.56-10.62-10.95-16.49-15.84-8.3-6.92-16.96-13.35-25.84-19.48-2.39-1.64-4.77-3.29-7.16-4.93,0,.19-.03,.35-.1,.48-1.68-1.84-3.61-3.31-6.16-3.8-.24,.29-.42,.65-.71,.85-3.43,2.29-6.71,4.78-10.02,7.24-7.42,5.5-14.17,11.76-20.92,18.01-6.78,6.28-13.05,13.08-19.41,19.78-.41,.44-.85,.85-.84,1.51,.48,.68,1.22,.89,1.97,.86,2.18-.09,4.29,.44,6.44,.6,8.6,.61,17.18,1.42,25.77,2.22,9.62,.89,19.22,1.89,28.81,3.12,12.86,1.65,25.61,3.78,38.11,7.25,8.66,2.41,17.05,5.38,24.24,11.03,1.71,1.34,3.16,2.94,4.71,4.45,.52,.51,1.2,1.31,1.88,.86,.86-.57,.2-1.5-.12-2.21Z"/>
      <path class="cls-20" d="M253.59,365.71c-.24-1.65-.38-3.33-1.18-4.85-.32-.45-.54-.96-.78-1.46-1.64-7.49-6.03-13.33-11.85-18.16-5.09-4.23-11.19-6.66-17.41-8.82-12.75-4.44-25.95-6.81-39.26-8.66-6.98-.97-13.97-1.82-21-2.36-7.24-.56-14.46-1.38-21.69-2.08h0c-2.83-.08-5.63-.75-8.49-.51-.01,.02-.03,.03-.04,.05-.04-.09-.08-.19-.14-.29-1.88-.71-3.89-.66-5.84-.94-1-.14-2.04-.47-2.94,.33-.02,.47-.22,.85-.55,1.18-6.23,6.33-12.02,13.05-17.92,19.67-5.41,6.08-10.89,12.09-15.99,18.44,8.48-.95,16.87-2.51,25.22-4.16,14.55-2.88,29.03-6.1,43.57-9.08,9.97-2.04,20.04-3.47,30.2-4.06,8.69-.5,17.4-.09,26.02,1.27,8.62,1.36,16.76,3.95,23.86,9.27,5.94,4.45,10.79,9.75,13.52,16.77,.4,1.01,1.16,.81,1.93,.57,.78-.53,.87-1.3,.75-2.13Z"/>
      <path class="cls-20" d="M257.33,356.43c-.16-.65-.35-1.29-.5-1.94,.11-8.52-1.67-16.7-5-24.55-4.96-11.69-12.55-21.74-20.04-31.83-6.11-8.24-12.5-16.27-19.26-23.98-5.93-6.76-11.87-13.52-18.36-19.77h0c-2.27-2.39-4.5-4.81-7.03-6.94,.03-.06,.07-.11,.09-.18-1.65-2.76-4.21-4.56-6.76-6.36-.03-.02-.13,.05-.2,.08-.28,.54-.7,.94-1.24,1.23-8.88,4.8-17.05,10.67-25.16,16.62,.64,.98,1.65,1.48,2.59,2.08,15.4,9.79,30.66,19.78,45.18,30.87,9.51,7.27,18.14,15.45,25.96,24.47,7.82,9.02,14.9,18.61,20.55,29.17,3.45,6.45,6.52,13.08,6.81,20.6,.03,.76-.06,1.75,1.19,1.76,.84-.46,.8-1.33,.95-2.11,.57-3.06,.46-6.14,.24-9.22Z"/>
      <path class="cls-1" d="M412.43,355.07c-6.85-10.11-13.82-20.14-20.44-30.39-2.03-3.14-4.54-4.67-8-5.53-8.84-2.19-17.73-3.98-26.73-5.39-5.19-.81-10.39-1.79-15.59-1.99-7.4-.29-14.84-.5-22.24,.74-7.88,1.33-15.46,3.48-22.54,7.23-.57,.3-3.82,2.62-3.94,2.66-.54,.51-1.12,.98-1.6,1.54-4.08,4.83-8.24,9.59-12.19,14.52-4.87,6.09-9.65,12.26-13.92,18.8h0c-2.86,3.48-5.34,7.23-7.51,11.17,.26,.3,.56,.35,.91,.18,.64-.9,1.19-1.88,1.93-2.69,5.55-5.99,11.97-10.74,19.42-14.18,10.57-4.88,21.73-7.12,33.25-7.88,3.14-.35,6.27-.34,9.41,0,4.68-.04,9.31,.54,13.97,.83,9.42,.58,18.56,2.75,27.82,4.26,4.45,.73,8.75,2.19,13.28,2.54h0c1.87,.75,3.9,.79,5.85,1.16,9.94,1.88,19.92,3.5,29.97,4.6-.13-.84-.62-1.49-1.08-2.17Z"/>
      <path class="cls-3" d="M215.7,373.46c-2.58,.55-5.01-.68-7.55-.68-.8,0-1.61-.18-2.41-.28,1.12-1.24,2.74-1.72,4.03-2.71,.82-.63,1.38,.04,1.94,.48,1.34,1.05,2.66,2.13,3.99,3.19Z"/>
      <path class="cls-11" d="M153.87,258.81c36.07,19.88,105.9,73.3,100.08,109.33-2.46-2.93-1.89-11.26-5.8-16.03-20.28-34.55-110.12-29.06-133.11-35.07,44.58,1.39,115.48,7.62,132.19,29.34-24.17-45.01-62.98-63.14-93.36-87.57Z"/>
      <path class="cls-5" d="M270.25,347.91c15.61-19.9,32.59-40.93,54.64-54.61-43.1,29.69-73.3,92.46-68.26,71.03,4.57-49.43-55.63-100.61-77.66-124.58-1.47-.78-5.92-6.31-1.34-2.9,40.05,38.73,84.95,85.65,81.12,124.28-1.59,7.46,7.4-11.5,11.5-13.22Z"/>
    </g>
    <g>
      <path class="cls-1" d="M355.77,117.43c.58-1.84,1.61-3.28,3.36-4.26,12.15-6.81,24.28-13.65,36.37-20.55,1.25-.72,1.93-.61,2.54,.61,1.1,.82,1.8,1.94,2.46,3.11,9.54,16.96,19.08,33.92,28.69,50.84,.65,1.15,1.52,2.25,1.34,3.71-.37,1.21-1.46,1.64-2.41,2.18-10.99,6.29-22.05,12.45-33.08,18.66-2.55,1.44-4.91,2.85-5.33,6.08-.04,.29-.3,.51-.56,.66-1.42-.24-1.72-1.54-2.29-2.52-6.38-11.08-12.55-22.28-18.91-33.37-3.51-6.13-6.97-12.28-10.41-18.45-.72-1.29-1.49-2.58-1.84-4.05-.37-.9-.37-1.79,.07-2.66Z"/>
      <path class="cls-1" d="M346.13,120.66c1.01-.82,2.14-1.44,3.37-1.87,.55,.18,.79,.64,1.05,1.1,6.2,11.39,12.73,22.61,19.06,33.93,3.97,7.09,8.1,14.09,11.97,21.23,.58,1.07,1.13,2.13,.61,3.38-.47,.92-1.34,1.37-2.18,1.85-10.9,6.18-21.83,12.29-32.75,18.42-1.12,.63-2.23,1.63-3.72,.88-1.73-1.62-2.56-3.83-3.68-5.82-9.09-16.09-18.2-32.16-27.25-48.28-.62-1.1-1.32-2.18-1.27-3.52-.16-.68-1-1.28,.25-1.98,9.74-5.38,19.44-10.83,29.15-16.27,.75,.13,1.09,.73,1.42,1.3,2.13,3.72,4.26,7.45,6.37,11.18,.4,.71,.75,1.45,.59,2.31-.43,1.06-1.44,1.46-2.34,1.97-6.65,3.83-13.36,7.55-20,11.4,6.53-3.56,12.99-7.25,19.46-10.91,1.08-.61,2.1-1.47,3.46-1.42,1.28,.69,1.83,1.79,1.76,3.22-1.25,2.01-3.46,2.74-5.37,3.78-5.67,3.1-11.2,6.45-16.87,9.56,5.93-3.22,11.84-6.5,17.7-9.85,1.66-.95,3.22-2.14,5.17-2.5,1.32,.66,1.85,1.76,1.82,3.19-.56,1.37-1.88,1.87-3.02,2.52-6.09,3.47-12.18,6.93-18.32,10.32-.26,.14-.53,.27-.77,.66,6.49-3.63,12.81-7.29,19.21-10.81,1.15-.63,2.21-1.59,3.68-1.4,1.16,.77,1.76,1.83,1.7,3.24-.86,1.43-2.39,1.96-3.73,2.7-5.65,3.13-11.22,6.42-16.92,9.46-.5,.27-1.04,.5-1.7,1.23,6.86-3.83,13.31-7.63,19.9-11.18,.97-.52,1.86-1.27,3.07-1.21,1.29,.68,1.84,1.76,1.74,3.2-.68,1.38-2.07,1.87-3.28,2.56-6.32,3.6-12.67,7.14-18.95,10.8,6.8-3.66,13.48-7.56,20.22-11.33,.83-.47,1.6-1.12,2.66-1,1.2,.72,1.91,1.72,1.83,3.18-.35,1-1.25,1.43-2.08,1.91-6.76,3.9-13.63,7.59-20.34,11.57,6.21-3.28,12.27-6.83,18.4-10.25,1.47-.82,2.8-2.02,4.63-2.01,1.03,.83,2.37,1.32,2.97,2.64-.32,.84-1.07,1.2-1.78,1.59-7.14,3.99-14.28,7.98-21.35,12.09,8.59-4.73,17.08-9.64,25.73-14.26,.65-.24,1.32-.16,1.98-.05-2.92-4.76-5.57-9.68-8.31-14.54-4.67-8.29-9.36-16.57-14.03-24.85-.53-.95-1.3-1.87-.93-3.1Z"/>
      <path class="cls-16" d="M311.33,141.96c7,12.34,14.01,24.68,21,37.03,3.81,6.72,7.6,13.46,11.4,20.19,1.04,1.46,2.21,.76,3.33,.17,3.82-2.03,7.54-4.22,11.3-6.34,7.01-3.95,14.01-7.91,21.01-11.87,2.25-1.27,4.5-1.79,7.06-1.11,2.18,.58,4.83-.98,5.37-3.2,.55-2.29,1.88-3.76,3.88-4.89,10.69-6.07,21.42-12.05,32.09-18.15,1.19-.68,2.71-1.13,2.53-3-8.64-15.35-17.29-30.7-25.92-46.06-2.14-3.82-4.23-7.66-6.34-11.5,1.86-1.37,2.99-.88,4.12,1.14,10.42,18.66,20.94,37.27,31.42,55.9,1.35,2.41,1.28,2.7-1.22,4.11-11.03,6.21-22.05,12.44-33.11,18.58-1.66,.92-2.61,1.79-2.24,3.94,.35,2.03-.55,3.79-2.46,4.87-1.95,1.1-3.84,2.28-5.83,3.3-1.84,.95-4.73,.5-5.97-1.1-.85-1.1-1.44-.88-2.38-.34-6.66,3.8-13.34,7.58-20.02,11.34-4.87,2.74-9.8,5.36-14.61,8.21-1.97,1.17-2.94,.78-4.01-1.16-3.99-7.24-8.12-14.41-12.19-21.6-6.38-11.28-12.69-22.59-19.16-33.82-1.2-2.08-1.25-3.47,.95-4.64Z"/>
      <path class="cls-6" d="M381.78,178.3c.21-.94-.13-1.69-.59-2.52-5.23-9.4-10.7-18.67-15.83-28.13-4.5-8.29-9.36-16.37-14.06-24.55-.78-1.36-1.44-2.78-1.8-4.31,1.39-1,2.87-.62,4.35-.31,1.21-.53,1.57,.62,2.25,1.14,2.76,5.5,5.91,10.78,8.91,16.15,3.25,5.82,6.59,11.6,9.81,17.44,4.25,7.71,8.65,15.34,12.99,23,.44,.77,.92,1.52,1.38,2.27,.28,.82-.43,.65-.68,.53-2-1.04-4.05-.97-6.16-.45-.2,.05-.41-.1-.58-.25Z"/>
      <path class="cls-16" d="M356.1,119.61c-1.03,.17-1.44-.88-2.25-1.14,.41-.77,1.26-.73,1.92-1.05,.11,.73,.22,1.46,.33,2.18Z"/>
      <path class="cls-6" d="M381.78,178.3c2.47-1.25,4.87-1.39,7.17,.41,.03,.03,.14,0,.18-.03,.04-.05,.05-.13,.07-.2-.17-3.12,1.31-5.06,4.03-6.57,11.86-6.57,23.64-13.29,35.45-19.97,.57-.32,1.08-.76,1.62-1.15,1.43,1.52,.43,2.22-.91,2.97-11.29,6.34-22.55,12.75-33.86,19.07-1.79,1-2.77,2.38-3.08,4.36-.35,2.28-4.07,4.42-6.18,3.59-1.93-.76-3.75-.6-5.57,.43-11.21,6.34-22.47,12.59-33.64,19.01-1.84,1.06-2.74,.97-3.35-1.04,.72,.58,1.28-.02,1.81-.32,11.91-6.7,23.82-13.42,35.72-20.14,.19-.11,.35-.28,.52-.42Z"/>
      <path class="cls-6" d="M342.77,130.64c.5,.75,1.33,1.51-.22,2.37-6.84,3.78-13.65,7.61-20.46,11.46-.87,.49-1.42,.54-1.99-.44-.59-1.04-.08-1.51,.7-1.96,6.74-3.81,13.47-7.63,20.22-11.42,.5-.28,1.06-.62,1.75,0Z"/>
      <path class="cls-6" d="M376,169.06c.67,1.13-.23,1.41-.93,1.8-4.01,2.27-8.02,4.56-12.03,6.83-5.5,3.11-11.01,6.21-16.54,9.28-.54,.3-1.23,1.29-1.85,.17-.59-1.07,.6-1.23,1.12-1.53,9.37-5.34,18.77-10.63,28.17-15.92,.62-.35,1.24-.84,2.06-.63Z"/>
      <path class="cls-6" d="M342.32,181.94c2.47-1.44,4.76-2.82,7.09-4.12,7.51-4.21,15.04-8.4,22.57-12.59,.52-.29,1.08-1.1,1.67-.18,.6,.92-.33,1.16-.84,1.45-8.4,4.76-16.81,9.51-25.22,14.25-1.36,.77-2.72,1.53-4.09,2.27-.37,.2-.82,.48-1.18-.02-.3-.42-.28-.83,0-1.06Z"/>
      <path class="cls-6" d="M378.5,173.44c.7,1.24-.39,1.43-1.02,1.79-3.75,2.14-7.52,4.24-11.29,6.36-5.65,3.17-11.29,6.35-16.95,9.5-.59,.33-1.38,1.21-1.92,.34-.63-1.03,.58-1.34,1.22-1.7,9.4-5.32,18.8-10.62,28.23-15.88,.49-.27,1.01-1.03,1.73-.4Z"/>
      <path class="cls-6" d="M364.76,163.53c.95-.24,1.87-.06,2.78,.17-8.61,4.88-17.21,9.76-25.83,14.62-.53,.3-1.28,.98-1.75,.16-.54-.95,.48-1.21,1.09-1.55,7.9-4.47,15.8-8.93,23.7-13.4Z"/>
      <path class="cls-6" d="M360.92,159.93c.31,.5,.62,1,.93,1.51-7.08,3.95-14.16,7.9-21.24,11.85-.58,.33-1.18,.63-1.77,.94-.49,.25-.99,.88-1.5,.05-.49-.8,.21-1.03,.71-1.31,3.04-1.72,6.09-3.43,9.13-5.17,4.59-2.62,9.16-5.24,13.74-7.87Z"/>
      <path class="cls-6" d="M348.86,138.54c.25,.43,.5,.87,.75,1.3-7.56,4.29-15.12,8.59-22.67,12.88-.56,.32-1.12,1.01-1.66,.07-.52-.9,.29-1.13,.86-1.45,7.57-4.27,15.14-8.54,22.72-12.81Z"/>
      <path class="cls-6" d="M356.15,151.46c.26,.43,.52,.86,.78,1.29-7.51,4.24-15.03,8.48-22.54,12.72-.58,.32-1.26,.88-1.75,.09-.54-.89,.43-1.11,.95-1.41,7.51-4.24,15.04-8.47,22.56-12.7Z"/>
      <path class="cls-6" d="M351.23,142.76c.24,.44,.48,.88,.73,1.31-6.05,3.47-12.09,6.95-18.15,10.42-1.48,.85-2.99,1.65-4.49,2.46-.53,.28-1.12,1.06-1.67,.11-.54-.93,.43-1.16,.92-1.44,4.57-2.62,9.18-5.19,13.77-7.79,2.97-1.68,5.93-3.38,8.89-5.07Z"/>
      <path class="cls-6" d="M353.61,146.99c.31,.51,.62,1.02,.93,1.53-7.45,4.17-14.89,8.33-22.34,12.49-.6,.33-1.35,1.16-1.9,.27-.54-.89,.5-1.21,1.11-1.56,7.09-4.04,14.19-8.07,21.28-12.11,.32-.18,.62-.41,.93-.61Z"/>
      <path class="cls-6" d="M358.54,155.7c.25,.43,.5,.86,.75,1.29-7.61,4.34-15.22,8.68-22.83,13.02-.5,.29-1.05,.83-1.48,0-.57-1.1,.56-1.26,1.08-1.56,6.32-3.62,12.66-7.18,19-10.75,1.16-.66,2.32-1.33,3.48-2Z"/>
      <path class="cls-6" d="M322.87,147.58c.82-.5,1.64-1.02,2.48-1.49,6.08-3.42,12.15-6.85,18.26-10.22,.51-.28,1.24-1.36,1.82-.26,.45,.84-.46,1.27-1.11,1.63-6.67,3.74-13.33,7.5-20.01,11.21-.43,.24-.93,.99-1.53,.26-.29-.35-.45-.8,.09-1.12Z"/>
      <path class="cls-7" d="M346.13,120.66c8.06,14.26,16.12,28.52,24.21,42.82-.53,.26-2.2,1-4.33,.61-2.31-.43-3.64-1.89-4.01-2.33-2.54-3.96-5.08-8.08-7.59-12.37-5.18-8.84-9.71-17.43-13.68-25.68,1.69-1.22,3.51-2.21,5.41-3.06Z"/>
    </g>
    <g>
      <path class="cls-16" d="M475.81,217.07c-8.55-6.99-17.09-14.01-25.63-21.02h0c-4.26-3.69-8.59-7.3-13.14-10.63-1.44-.65-1.81,.69-2.38,1.4-5.85,7.3-11.66,14.65-17.46,21.99-8.38,10.59-16.63,21.29-25.16,31.77-.82,1.01-1.78,2.01-1.65,3.49,.12,.43,.3,.85,.63,1.14,3.56,3.13,7.23,6.13,11.02,8.98,.49,.37,1.04,.61,1.65,.44,.25,1.24,1.16,2.01,2.08,2.75,8.22,6.68,16.46,13.35,24.74,19.96,.68,.54,1.31,1.23,2.32,1.02,14.48-19.32,28.94-38.64,43.45-57.94,1.05-1.4,.78-2.34-.47-3.36Zm-29.75,31.37c-2.49,3.1-4.75,6.39-7.07,9.62-2.03,2.83-2.3,2.88-4.95,.76-5.47-4.35-10.87-8.78-16.32-13.15-1.27-1.02-2.46-2.21-4.11-2.66-.05-.93-.94-1.38-1.55-1.94-1.8-1.69-3.82-3.13-5.72-4.7-1.45-1.2-1.66-2.29-.37-3.75,2.15-2.45,4.01-5.15,6.08-7.66,4.09-4.96,4.06-4.93,9.14-.84,1.26,1.02,2.28,2.62,4.22,2.47,.12,1.49,1.35,2.2,2.37,3.03,5.91,4.79,11.75,9.67,17.67,14.44,1.71,1.37,2.09,2.56,.62,4.39Z"/>
      <path class="cls-10" d="M434.35,183.23c-.38-.37-.72-.78-1.13-1.11-4.84-3.99-7.07-3.75-10.94,1.15-5.25,6.65-10.5,13.3-15.74,19.96-9.12,11.58-18.22,23.17-27.33,34.76-.02,.53,.33,.88,.75,.88,2.64-.04,4.71,1.47,6.98,2.45,.18,.01,.34,0,.5-.01,.98,1.02,2.32,1.64,3.28,2.69,5.49-7,10.97-14,16.46-21,4.24-5.39,8.48-10.79,12.75-16.16,5.69-7.15,11.41-14.28,17.12-21.41-.74-.92-1.63-1.66-2.69-2.19Z"/>
      <path class="cls-1" d="M383.34,241.5c-1.31-1.06-2.64-1.01-3.66,.16-.22,.03-.45,.07-.68,.14-3.74,2.46-3.98,5.22-.72,8.09,2.59,2.28,5.37,4.33,8.04,6.5,11.44,9.33,22.88,18.65,34.37,27.92,1.12,.9,2.15,2.21,3.91,1.81,1.26-1.66,2.51-3.32,3.77-4.97,.5-.59,1.01-1.19,1.51-1.78-15.5-12.63-30.99-25.28-46.53-37.87Z"/>
      <path class="cls-7" d="M413.54,243.6c-2.89-2.41-5.75-4.87-8.69-7.21-1.28-1.02-1.58-1.91-.47-3.27,3.33-4.09,6.65-8.19,9.85-12.38,1.29-1.69,2.3-1.68,3.84-.32,2.43,2.15,5.05,4.1,7.58,6.14,7.2,5.95,14.35,11.97,21.64,17.8,1.54,1.23,1.43,2.02,.42,3.37-3.18,4.23-6.38,8.45-9.4,12.8-1.17,1.69-1.93,1.35-3.27,.26-7.12-5.78-14.32-11.47-21.49-17.19Z"/>
      <path class="cls-16" d="M391.08,262.81c-4.23-4.18-17.36-12.1-17-16.7,.94-4.65,5.21-10.3,10.5-7.06,7.68,4.91,13.49,11.23,21.14,17,8.58,8.36,20.39,14.43,26.68,22.97-4.04,3.15-13.23-8.65-16.38-10.01-10.18-8.18-19.85-16.06-29.99-24.29-1.84-1.31-3.41-3.73-6.05-2.82-8.1,4.83,1.38,8.69,5.26,12.47,13.37,11.62,27.94,21.18,40.04,33.29,.56,6.18-34.81-24.16-34.2-24.85Z"/>
    </g>
    <g>
      <path class="cls-7" d="M192.98,98.14c1.71,3.07,3.42,6.13,5.14,9.2,.41,.62,.51,1.31,.39,2.02-.53,2.96,.88,4.83,3.12,6.63,3.06,2.46,6.01,3,9.32,.74,4.93-.37,9.62,1.16,14.37,2.02,14.15,2.56,28.31,5.09,42.46,7.69,7.87,1.44,15.74,2.87,23.62,4.28,1.1,.2,2.2,.35,3.13,1.05,1.29,.28,2.56,.62,3.86,.83,1.27,.2,2.28,.7,1.97,2.12-.28,1.27-1.43,1.22-2.5,1.03-6.5-1.16-13.01-2.32-19.51-3.48-20.91-3.74-41.82-7.46-62.72-11.23-1.75-.32-3.3-.39-4.95,.57-6.34,3.67-17.85-4.53-16.47-11.76,.35-1.84,.1-3.41-1.21-4.77-2.87-2.12-4.21-5.06-4.55-8.53-12-21.38-24.01-42.76-36.01-64.15-.56-.99-1.25-2.16,.02-2.95,1.43-.89,2.16,.27,2.78,1.42,.68,1.24,1.44,2.44,2.16,3.65,1.15,.55,1.83,1.53,2.43,2.6,9.41,16.91,19.02,33.71,28.3,50.69,.89,2.4,2.58,4.35,3.69,6.63,.58,1.18,1.34,2.29,1.16,3.7Z"/>
      <path class="cls-16" d="M188.45,96.53c1.52,2.84,3.03,5.69,4.55,8.53-3.22,4.52-6.43,9.03-9.8,13.77-1.26-1.79-.08-4.3-1.6-4.95-1.37-.58-3.31,.16-5.78,.39,4.46-6.27,8.55-12.01,12.63-17.74Z"/>
      <g>
        <path class="cls-20" d="M168.75,38.09c-.5-.65-.98-1.24-1.88-1.43-3.17-.68-6.32-1.43-9.47-2.15,10.09,18.05,20.17,36.1,30.26,54.15,4.06,.27,7.04-1.75,9.62-4.59-7.65-16.48-17.55-31.56-28.53-45.98Z"/>
        <path class="cls-20" d="M293.42,130.01s0,0,0,0c-2.07-4.71-5.08-7.92-10.65-8.71-5.2-.74-10.24-2.54-15.38-3.77-16.32-3.89-32.64-7.83-49.44-9.08-.66-.05-1.49,.3-2.33-.64,7.8-.6,15.17,.16,22.51,1.3,16.41,2.56,32.48,6.55,48.36,11.33,.83,.25,2.08,1.21,2.56-.33,.36-1.15-.89-1.11-1.6-1.32-20.11-5.91-40.33-11.3-61.33-13.03-.55-.05-1.43,.38-1.69-.79,.96-.12,1.85-.26,2.75-.33,13.98-1.2,27.84,.18,41.65,2.13,6.14,.86,12.23,2.06,18.35,3.07,.71,.12,1.74,.66,1.94-.64,.15-1.03-.82-.97-1.45-1.18-.29-.1-.6-.11-.9-.17-16.5-3.17-33.08-5.63-49.94-5.54-3.68,.02-7.37,.22-11.05,.34,.7-.58,1.45-.81,2.21-.96,11.75-2.26,23.63-2.78,35.54-2.61,7.42,.11,14.83,.59,22.25,.86,.68,.02,1.77,.64,1.98-.66,.26-1.63-1.1-1.1-1.86-1.19-1.72-.2-3.44-.31-5.17-.4-18.32-.94-36.61-1.26-54.72,2.44-3.4,.69-6.72,1.78-10.75,2.86,5.83-4.74,11.43-8.57,17.25-12.09,13.42-8.13,27.52-14.91,41.93-21.08,.83-.35,2.4-.46,1.77-1.9-.55-1.24-1.61-.21-2.35,.09-8.2,3.34-16.22,7.08-24.1,11.09-13.62,6.93-26.84,14.51-38.74,25.01,1.24-3.99,2.52-7.41,3.37-10.94,4.67-19.29,4.81-38.88,3.67-58.54-.07-1.22-.18-2.43-.28-3.65-.04-.5-.07-1.09-.76-1.08-.68,0-1.17,.34-1.14,1.12,.03,.61,.09,1.22,.13,1.83,1.03,16.07,1.02,32.12-1.24,48.1-.26,1.81-.59,3.61-.91,5.41-.31,1.67-.66,3.34-.99,5.01,.82-20.01-1.22-39.71-4.41-59.31-.16-1,.4-3.01-1.43-2.74-1.61,.24-.5,1.88-.39,2.82,.82,6.76,1.92,13.5,2.61,20.27,1.53,15.09,2.68,30.21,.25,45.32-.34,2.1-.55,4.27-1.92,6.36-1-4.38-1.77-8.47-2.87-12.47-5.47-19.88-13.64-38.73-22.18-57.43-.39-.85-.41-2.78-1.93-2.09-1.46,.66-.04,1.94,.26,2.89,.33,1.06,.91,2.04,1.36,3.06,7.05,15.69,13.73,31.52,18.87,47.96,1.34,4.29,2.64,8.6,2.82,13.22-.85-2.01-1.69-4.03-2.54-6.04-3.58,.5-6.74,1.73-8.65,5.08,.78,3.76,2.64,6.94,5.18,9.76,4.12,2.18,8.36,4.18,11.67,7.61,.16,.09,.32,.16,.49,.23,.02,.68,.72,.99,1.34,1.35,15.4,2.72,30.8,5.45,46.21,8.15,12.3,2.16,24.6,4.28,36.91,6.41-.37-.58-.73-1.17-1.1-1.75Z"/>
      </g>
      <path class="cls-16" d="M187.66,88.66c3.37-1.18,6.44-3.01,9.62-4.59,1.95,2.77,3.11,5.89,4.1,9.1-2.77,1.7-5.89,2.83-8.41,4.97-1.82-3.14-3.88-6.13-5.32-9.48Z"/>
      <path class="cls-16" d="M210.28,115.09c.37,.7,.75,1.41,1.12,2.11-3.14,2.58-5.65,2.78-8.73,.71-5.44-3.67-6.17-5.36-4.57-10.59,4.7,1.58,8.84,4.04,12.17,7.76Z"/>
    </g>
  </g>
</svg>