<?xml version="1.0" encoding="UTF-8"?>
<svg id="Capa_1" data-name="Capa 1" xmlns="http://www.w3.org/2000/svg" viewBox="0 0 1823.21 1764.61">
  <defs>
    <style>
      .cls-1 {
        fill: #fff;
      }

      .cls-2 {
        fill: #0061a2;
      }

      .cls-3 {
        fill: #5860ab;
      }

      .cls-4 {
        stroke-width: 10.45px;
      }

      .cls-4, .cls-5 {
        stroke: #699fd5;
      }

      .cls-4, .cls-5, .cls-6 {
        fill: none;
        stroke-miterlimit: 10;
      }

      .cls-7 {
        isolation: isolate;
      }

      .cls-8 {
        fill: #9eabd3;
      }

      .cls-9 {
        fill: #447fc1;
      }

      .cls-10 {
        fill: #0093c6;
      }

      .cls-11 {
        fill: #3dafe4;
      }

      .cls-5 {
        stroke-width: 11.28px;
      }

      .cls-12 {
        fill: #cc4e7e;
      }

      .cls-13 {
        fill: #63b8e7;
      }

      .cls-14 {
        fill: #80bbe6;
      }

      .cls-15 {
        fill: #004e89;
      }

      .cls-16 {
        fill: #196eab;
      }

      .cls-17 {
        fill: #424888;
      }

      .cls-18 {
        fill: #7c294b;
      }

      .cls-19 {
        fill: #a1426f;
      }

      .cls-6 {
        stroke: #196eab;
        stroke-width: 31.34px;
      }

      .cls-20 {
        fill: #6174b8;
      }

      .cls-21 {
        fill: #394472;
      }
    </style>
  </defs>
  <g>
    <g>
      <line class="cls-4" x1="14.44" y1="1218.87" x2="91.72" y2="1218.87"/>
      <line class="cls-4" x1="103.23" y1="1218.87" x2="141.88" y2="1218.87"/>
    </g>
    <g>
      <line class="cls-5" x1="1631.1" y1="963.21" x2="1721.11" y2="963.21"/>
      <line class="cls-5" x1="1734.54" y1="963.21" x2="1779.55" y2="963.21"/>
    </g>
    <g>
      <line class="cls-5" x1="1219.66" y1="1758.97" x2="1129.64" y2="1758.97"/>
      <line class="cls-5" x1="1116.22" y1="1758.97" x2="1071.21" y2="1758.97"/>
    </g>
    <g>
      <line class="cls-4" x1="1690.81" y1="288.88" x2="1613.53" y2="288.88"/>
      <line class="cls-4" x1="1602.02" y1="288.88" x2="1563.38" y2="288.88"/>
    </g>
    <g>
      <line class="cls-4" x1="653.95" y1="1639.24" x2="576.67" y2="1639.24"/>
      <line class="cls-4" x1="565.15" y1="1639.24" x2="526.52" y2="1639.24"/>
    </g>
    <g>
      <line class="cls-4" x1="890.99" y1="3.69" x2="901.76" y2="14.47"/>
      <line class="cls-4" x1="909.36" y1="22.07" x2="920.14" y2="32.84"/>
      <line class="cls-4" x1="920.14" y1="3.69" x2="909.36" y2="14.47"/>
      <line class="cls-4" x1="901.76" y1="22.07" x2="890.99" y2="32.84"/>
    </g>
    <g>
      <line class="cls-4" x1="18.33" y1="505.31" x2="29.1" y2="516.09"/>
      <line class="cls-4" x1="36.7" y1="523.69" x2="47.47" y2="534.46"/>
      <line class="cls-4" x1="47.47" y1="505.31" x2="36.7" y2="516.09"/>
      <line class="cls-4" x1="29.1" y1="523.69" x2="18.33" y2="534.46"/>
    </g>
    <g>
      <line class="cls-4" x1="1140.05" y1="525.61" x2="1150.82" y2="536.38"/>
      <line class="cls-4" x1="1158.42" y1="543.98" x2="1169.19" y2="554.76"/>
      <line class="cls-4" x1="1169.19" y1="525.61" x2="1158.42" y2="536.38"/>
      <line class="cls-4" x1="1150.82" y1="543.98" x2="1140.05" y2="554.76"/>
    </g>
    <g>
      <line class="cls-4" x1="1734.61" y1="1218.87" x2="1745.38" y2="1229.64"/>
      <line class="cls-4" x1="1752.98" y1="1237.24" x2="1763.76" y2="1248.01"/>
      <line class="cls-4" x1="1763.76" y1="1218.87" x2="1752.98" y2="1229.64"/>
      <line class="cls-4" x1="1745.38" y1="1237.24" x2="1734.61" y2="1248.01"/>
    </g>
    <g>
      <line class="cls-4" x1="861.85" y1="1510.97" x2="872.62" y2="1521.75"/>
      <line class="cls-4" x1="880.22" y1="1529.35" x2="890.99" y2="1540.12"/>
      <line class="cls-4" x1="890.99" y1="1510.97" x2="880.22" y2="1521.75"/>
      <line class="cls-4" x1="872.62" y1="1529.35" x2="861.85" y2="1540.12"/>
    </g>
    <path class="cls-4" d="M1595.16,85.68c0,7.39-5.98,13.37-13.37,13.37s-13.37-5.99-13.37-13.37,5.99-13.37,13.37-13.37,13.37,5.99,13.37,13.37Z"/>
    <path class="cls-4" d="M304.75,128.09c0,7.39-5.98,13.37-13.37,13.37s-13.37-5.99-13.37-13.37,5.99-13.37,13.37-13.37,13.37,5.99,13.37,13.37Z"/>
    <path class="cls-4" d="M362.66,1033.47c0,7.39-5.98,13.37-13.37,13.37s-13.37-5.98-13.37-13.37,5.98-13.37,13.37-13.37,13.37,5.98,13.37,13.37Z"/>
  </g>
  <g>
    <g>
      <path class="cls-8" d="M929.72,1243.92c-271.91,0-492.35-125.67-492.35-280.72s220.45-280.7,492.35-280.7,492.34,125.69,492.34,280.7-220.42,280.72-492.34,280.72Z"/>
      <g>
        <g>
          <path class="cls-18" d="M500.78,827.46v99.04c0,135.08,192.05,244.56,428.94,244.56s428.93-109.48,428.93-244.56v-99.04H500.78Z"/>
          <path class="cls-12" d="M929.72,1072.02c-236.88,0-428.94-109.48-428.94-244.56s192.05-244.55,428.94-244.55,428.93,109.5,428.93,244.55-192.03,244.56-428.93,244.56Z"/>
          <path class="cls-1" d="M929.72,1020.1c-186.6,0-337.89-86.24-337.89-192.65s151.28-192.64,337.89-192.64,337.88,86.26,337.88,192.64-151.27,192.65-337.88,192.65Z"/>
          <ellipse class="cls-12" cx="929.71" cy="827.46" rx="255.86" ry="145.87"/>
          <path class="cls-1" d="M929.72,923.18c-92.72,0-167.88-42.85-167.88-95.72s75.16-95.71,167.88-95.71,167.88,42.86,167.88,95.71-75.16,95.72-167.88,95.72Z"/>
          <path class="cls-12" d="M929.72,875.85c-46.88,0-84.88-21.66-84.88-48.39s38-48.39,84.88-48.39,84.87,21.67,84.87,48.39-38,48.39-84.87,48.39Z"/>
          <path class="cls-18" d="M929.72,843.82c-15.85,0-28.7-7.32-28.7-16.36s12.85-16.36,28.7-16.36,28.7,7.33,28.7,16.36-12.85,16.36-28.7,16.36Z"/>
        </g>
        <g>
          <polygon class="cls-9" points="929.71 444.7 929.71 258.41 1015.9 213.14 1015.9 390.73 929.71 444.7"/>
          <polygon class="cls-11" points="929.71 444.7 929.71 258.41 843.53 213.14 843.53 390.73 929.71 444.7"/>
          <line class="cls-6" x1="929.71" y1="248.83" x2="929.71" y2="831.53"/>
        </g>
      </g>
    </g>
    <path class="cls-8" d="M1098.4,1397.99l130.81-55.05c4.46,2.63,9.72,7.1,10.23,7.76,6.12,8.05-1.77,19.04,8.48,25.96,12.63,8.52,43.7,6.65,69.41-4.16,.72-.3,1.42-.61,2.12-.92,24.15-10.77,33.84-25.81,21.56-34.09-7.85-5.29-21.37-4.96-32.39-6.99-5.7-1.05-11.56-2.61-16.16-4.71-1-.46-5.93-3.3-8.82-5.75l130.98-55.11,246.68,166.45-316.22,133.06-102.06-68.87c.4-.19,.82-.38,1.26-.58,5.04-2.25,12.32-4.68,13.47-4.94,15.22-3.34,35.81,.71,48.96-4.82,16.11-7.18,12.82-23.45-7.01-36.83-20.05-13.53-49.43-18.98-65.61-12.17-10.05,4.48-9.66,11.52-13.54,17.29-2.05,3.05-5.05,6.18-9.05,8.65-.48,.29-2.32,1.22-4.65,2.26-1.93,.86-4.18,1.79-6.28,2.5l-102.18-68.95Z"/>
    <g class="cls-7">
      <path class="cls-21" d="M1345.22,1275.66c-.03-2.95-1.56-5.62-4.76-7.79-.51-.34-1.05-.65-1.61-.95-.17-.09-.36-.18-.54-.26-.4-.19-.82-.38-1.24-.56-.11-.04-.2-.09-.31-.14-.09-.03-.19-.06-.28-.09-.68-.26-1.37-.5-2.09-.71-.01,0-.02,0-.04,0h-.01c-.73-.22-1.48-.4-2.25-.58-.09-.02-.17-.05-.26-.07-.1-.02-.22-.04-.32-.06-.9-.19-1.82-.37-2.76-.53-.03,0-.05,0-.07-.01-.08-.02-.16-.02-.23-.04-.97-.16-1.95-.3-2.94-.43-.11-.01-.21-.03-.32-.04-1.04-.14-2.09-.25-3.14-.37-.06-.01-.12-.02-.18-.03-.85-.1-1.7-.19-2.55-.29-1-.11-2-.23-2.98-.36-.18-.03-.36-.05-.55-.07-.97-.13-1.93-.26-2.87-.42-.49-.08-.98-.16-1.46-.25-.99-.18-1.98-.39-2.97-.61-.18-.04-.36-.07-.54-.11-.72-.16-1.44-.33-2.16-.51-.02,0-.04-.01-.06-.02-.72-.18-1.43-.38-2.14-.58-.22-.07-.45-.14-.67-.2-.49-.15-.97-.3-1.45-.46-.23-.08-.47-.15-.7-.24-.49-.17-.98-.35-1.45-.53-.18-.07-.37-.14-.55-.21-.61-.24-1.2-.49-1.77-.75-.89-.41-5.31-2.96-7.9-5.14l.58,65.82c2.59,2.19,7,4.73,7.9,5.15,.57,.26,1.16,.51,1.77,.75,.05,.01,.09,.04,.13,.06,.14,.05,.28,.1,.41,.15,.48,.18,.97,.36,1.47,.53,.23,.08,.45,.15,.68,.23,.49,.16,.99,.32,1.49,.47,.14,.04,.27,.09,.42,.13,.07,.02,.14,.04,.21,.06,.71,.21,1.43,.41,2.16,.59h.01c.73,.19,1.47,.36,2.21,.53,.07,.02,.14,.03,.21,.05,.1,.02,.2,.04,.3,.06,1,.22,2,.43,2.99,.61,.41,.07,.81,.15,1.23,.21,.08,.01,.16,.02,.24,.04,.94,.15,1.89,.29,2.86,.42,.19,.03,.38,.05,.57,.07,.97,.13,1.95,.24,2.93,.35,0,0,.02,0,.03,0,.64,.07,1.29,.15,1.93,.22,.26,.03,.52,.06,.78,.09,1.07,.12,2.13,.25,3.18,.38,.08,.01,.17,.03,.25,.04,1,.13,2,.28,2.97,.43,.1,.01,.21,.03,.31,.05,.94,.16,1.86,.33,2.76,.53,.19,.04,.39,.08,.58,.13,.77,.18,1.53,.36,2.25,.58,.73,.21,1.44,.46,2.13,.72,.2,.08,.39,.15,.59,.23,.43,.18,.84,.36,1.24,.56,.18,.09,.36,.17,.53,.26,.56,.29,1.1,.6,1.61,.94,3.21,2.17,4.74,4.85,4.77,7.79l-.58-65.82Z"/>
      <path class="cls-17" d="M1249.86,1420.61c.22-.05,.45-.1,.68-.15,.31-.07,.61-.14,.92-.2,.25-.05,.51-.09,.76-.13,.21-.04,.43-.07,.64-.11l.48,55.15,91.34,61.63-.58-65.82-75.65-51.06c1.1,.13,2.22,.29,3.34,.47,.26,.04,.52,.09,.77,.13,.42,.07,.83,.15,1.25,.23,.3,.06,.6,.12,.9,.18,.4,.08,.8,.16,1.2,.25,.28,.06,.56,.13,.84,.19,.65,.15,1.3,.31,1.95,.47,.18,.05,.36,.09,.54,.14,.81,.21,1.62,.43,2.43,.67,.16,.05,.31,.09,.47,.14,1.11,.33,2.23,.68,3.34,1.06,.06,.02,.11,.04,.17,.06,1.11,.38,2.21,.79,3.3,1.21,.09,.04,.18,.07,.27,.1,1.25,.49,2.5,1.02,3.73,1.57,.06,.03,.12,.05,.18,.08,1.24,.56,2.47,1.16,3.68,1.78,.04,.02,.08,.04,.12,.06,1.22,.64,2.43,1.3,3.6,1.99,.02,.01,.04,.02,.06,.03,1.19,.71,2.36,1.44,3.49,2.21,10.08,6.8,15.38,14.44,15.44,20.95-.19-21.94-.39-43.88-.58-65.82-.06-6.51-5.36-14.14-15.44-20.95-1.13-.76-2.3-1.5-3.49-2.2-.02-.01-.05-.02-.07-.04-1.17-.69-2.37-1.35-3.6-1.99-.04-.02-.08-.04-.13-.06-1.2-.62-2.43-1.22-3.67-1.78-.06-.03-.12-.05-.18-.08-1.22-.55-2.47-1.08-3.72-1.57-.03,0-.05-.02-.07-.03-.06-.02-.13-.04-.19-.07-1.1-.43-2.22-.84-3.33-1.22-.04-.02-.09-.03-.13-.05-1.12-.38-2.24-.73-3.37-1.07-.09-.03-.17-.06-.26-.08-.06-.02-.11-.03-.17-.05-.82-.24-1.64-.46-2.46-.68-.17-.04-.33-.08-.5-.12-.67-.17-1.34-.33-2.01-.48-.12-.03-.25-.06-.37-.09-.14-.03-.28-.06-.42-.09-.42-.09-.84-.18-1.25-.26-.29-.06-.58-.12-.87-.17-.42-.08-.84-.16-1.26-.23-.2-.04-.41-.08-.61-.11-.05-.01-.1-.02-.16-.03-1.13-.18-2.26-.34-3.37-.47-.09,0-.18-.03-.26-.04-.06,0-.13-.01-.2-.02-.97-.11-1.94-.2-2.91-.26-.08,0-.16-.02-.24-.02-.11,0-.21,0-.32-.02-1.78-.11-3.53-.15-5.23-.1-.1,0-.2,0-.31,0-.09,0-.17,0-.26,.01-.83,.03-1.64,.07-2.44,.13-.02,0-.04,0-.04,0-.06,0-.11,.02-.16,.02-.84,.07-1.65,.17-2.46,.28-.08,.01-.18,.02-.26,.03-.06,0-.12,.02-.18,.03-.33,.05-.66,.11-.98,.17-.23,.04-.47,.08-.69,.12-.34,.07-.67,.14-1,.21-.18,.04-.36,.07-.53,.12-.03,0-.05,.01-.07,.02-.71,.17-1.4,.37-2.08,.58-.16,.05-.31,.1-.46,.15-.67,.22-1.34,.46-1.97,.73-.51,.23-.97,.46-1.43,.7-.13,.08-.26,.15-.39,.22-.16,.09-.33,.17-.48,.26-.13,.08-.25,.16-.37,.24-.16,.1-.33,.21-.48,.31-.25,.17-.48,.34-.71,.52-.14,.1-.28,.2-.4,.31-.05,.04-.1,.07-.14,.11-.27,.22-.53,.45-.77,.69-.03,.03-.06,.06-.09,.09-.19,.19-.39,.38-.57,.58-.05,.06-.1,.12-.15,.18-.09,.1-.17,.2-.25,.3-.17,.2-.34,.41-.49,.62-.07,.1-.15,.19-.22,.29-.04,.05-.08,.1-.11,.16-.08,.11-.14,.22-.21,.33-.13,.2-.26,.4-.39,.61-.09,.16-.18,.32-.27,.47-.11,.2-.22,.4-.33,.6-.04,.07-.08,.14-.11,.21-.04,.08-.08,.16-.11,.23-.18,.35-.34,.7-.5,1.06-.04,.08-.07,.15-.11,.23-.21,.47-.41,.95-.62,1.42-.15,.36-.31,.72-.47,1.08-.06,.14-.12,.28-.18,.42-.19,.43-.4,.86-.61,1.29-.11,.23-.24,.45-.36,.67-.06,.11-.11,.21-.17,.32-.19,.32-.39,.65-.6,.97-.14,.2-.28,.4-.42,.6-.21,.29-.43,.58-.66,.87-.1,.13-.19,.25-.29,.37-.3,.37-.62,.74-.96,1.11-.03,.03-.05,.06-.08,.09-.35,.38-.73,.77-1.12,1.14-.11,.11-.23,.21-.35,.32-.29,.27-.58,.53-.89,.79-.15,.13-.3,.25-.46,.38-.3,.25-.62,.49-.94,.73-.15,.11-.3,.22-.45,.33-.48,.34-.97,.67-1.48,.99-.04,.02-.1,.06-.16,.09-.02,.01-.04,.02-.07,.04-.06,.03-.13,.07-.21,.11-.04,.02-.07,.04-.12,.06-.08,.04-.16,.08-.25,.13-.06,.03-.11,.05-.17,.09-.08,.04-.17,.09-.27,.13-.08,.04-.15,.08-.24,.12-.08,.05-.18,.09-.27,.13-.1,.05-.2,.1-.31,.16-.09,.04-.2,.09-.3,.14-.11,.05-.22,.1-.34,.16-.15,.07-.32,.15-.48,.22-.08,.03-.15,.07-.22,.1-.25,.11-.49,.22-.76,.34-1.72,.77-3.74,1.6-5.62,2.24l-91.44-61.7,.58,65.82,91.44,61.7c1.88-.63,3.9-1.47,5.62-2.24,.5-.22,.97-.44,1.42-.65,0,0,.02,0,.03-.01,.21-.1,.4-.19,.59-.28,.02,0,.04-.02,.05-.02,.15-.07,.29-.14,.42-.2,.06-.03,.12-.06,.17-.08,.11-.05,.21-.1,.31-.15,.06-.03,.14-.07,.2-.1,.09-.04,.16-.08,.23-.12,.07-.03,.14-.07,.19-.1,.06-.03,.11-.06,.16-.08,.06-.03,.12-.06,.17-.09,.04-.02,.07-.04,.11-.06,.04-.02,.08-.04,.1-.06,.01,0,.02-.01,.02-.01,.53-.32,1.02-.66,1.5-1,.15-.1,.29-.21,.43-.32,.33-.24,.65-.49,.96-.75,.07-.06,.16-.12,.23-.18,.07-.06,.14-.13,.21-.19,.3-.26,.6-.52,.88-.79,.12-.11,.24-.22,.36-.34,.39-.37,.76-.75,1.12-1.14,0,0,0-.01,.01-.02,.03-.03,.05-.06,.08-.09,.33-.36,.64-.73,.94-1.1,.1-.13,.2-.25,.3-.38,.22-.29,.44-.57,.64-.86,.05-.08,.12-.15,.17-.23,.09-.12,.17-.25,.26-.37,.21-.32,.41-.64,.6-.97,.07-.12,.13-.24,.19-.36,.11-.2,.22-.39,.32-.59,0-.01,.01-.02,.02-.03,.22-.43,.42-.86,.62-1.3,.06-.14,.12-.27,.18-.4,.16-.36,.32-.72,.47-1.08,.2-.48,.41-.96,.63-1.44,.03-.07,.06-.13,.09-.2,.17-.37,.34-.73,.52-1.09,.07-.14,.14-.28,.21-.42,.11-.21,.22-.42,.34-.62,.09-.16,.17-.31,.27-.46,.12-.21,.26-.41,.4-.61,.1-.16,.21-.32,.32-.48,.07-.1,.15-.19,.22-.3,.15-.2,.32-.41,.48-.61,.09-.1,.17-.2,.26-.3,.22-.25,.46-.5,.71-.74,.03-.03,.06-.07,.09-.1,.28-.27,.59-.54,.91-.8,.13-.1,.26-.2,.39-.3,.23-.18,.47-.35,.72-.52,.15-.1,.31-.21,.48-.31,.28-.17,.56-.35,.86-.52,.13-.07,.25-.14,.39-.21,.45-.24,.92-.48,1.43-.7,.63-.27,1.3-.5,1.97-.73,.15-.05,.31-.1,.46-.15,.67-.21,1.36-.41,2.07-.58Z"/>
      <polygon class="cls-3" points="1627.1 1351.9 1627.67 1417.72 1344.68 1536.81 1344.1 1470.99 1627.1 1351.9"/>
      <path class="cls-20" d="M1123.33,1322.02l117.07-49.27c3.99,2.35,8.7,6.36,9.16,6.95,5.47,7.21-1.59,17.04,7.59,23.23,11.31,7.62,39.11,5.96,62.11-3.72,.64-.27,1.28-.54,1.9-.82,21.62-9.64,30.29-23.1,19.3-30.51-7.02-4.74-19.13-4.44-28.99-6.26-5.1-.94-10.34-2.34-14.46-4.22-.89-.41-5.31-2.96-7.9-5.14l117.22-49.32,220.77,148.97-283,119.08-91.33-61.63c.36-.17,.74-.35,1.13-.52,4.51-2.02,11.02-4.19,12.06-4.42,13.62-2.99,32.05,.64,43.81-4.31,14.42-6.42,11.48-20.99-6.27-32.96-17.94-12.11-44.23-16.99-58.72-10.89-8.99,4.01-8.64,10.31-12.12,15.48-1.83,2.73-4.52,5.53-8.1,7.74-.43,.26-2.08,1.09-4.16,2.02-1.72,.77-3.74,1.6-5.62,2.24l-91.44-61.7Z"/>
    </g>
    <g>
      <path class="cls-8" d="M618.01,1494.86c-7.84-5.3-21.38-4.96-32.39-6.99-5.71-1.05-11.58-2.61-16.17-4.71-1-.46-5.94-3.31-8.82-5.75l130.97-55.11-102.05-68.86c.41-.2,.86-.41,1.32-.61,5.04-2.25,12.27-4.67,13.42-4.92,15.21-3.34,35.8,.71,49.48-5.05,15.58-6.95,12.3-23.22-7.54-36.6-20.05-13.54-49.43-18.98-66.1-11.96-9.55,4.26-9.17,11.31-13.06,17.08-2.05,3.05-5.05,6.18-9.05,8.65-.48,.29-2.32,1.22-4.64,2.26-1.93,.86-4.18,1.79-6.28,2.5l-102.17-68.95-316.22,133.06,246.68,166.45,130.83-55.05c4.44,2.63,9.7,7.1,10.22,7.77,6.12,8.05-1.77,19.04,8.48,25.96,12.63,8.52,43.7,6.65,69.41-4.16,.72-.3,1.43-.61,2.13-.92,24.15-10.77,33.82-25.8,21.55-34.08Z"/>
      <g class="cls-7">
        <g>
          <path class="cls-18" d="M646.03,1257.87c0,.16,0,.32-.02,.48,0,.17,0,.34-.02,.51,0,.14-.03,.28-.05,.42-.02,.16-.04,.33-.06,.49-.03,.16-.06,.32-.09,.47-.02,.12-.05,.24-.07,.36-.04,.17-.09,.33-.14,.48-.03,.12-.06,.23-.1,.34-.02,.07-.05,.13-.07,.2-.16,.45-.34,.89-.55,1.31,0,.01,0,.02-.01,.03-.21,.41-.46,.81-.73,1.2-.04,.06-.08,.13-.13,.19-.27,.38-.57,.75-.89,1.11-.09,.1-.18,.2-.28,.3-.1,.11-.21,.21-.31,.32-.12,.12-.25,.23-.37,.35-.11,.1-.23,.21-.35,.31-.11,.09-.22,.18-.33,.27-.2,.16-.42,.32-.63,.48-.11,.08-.23,.17-.35,.24-.24,.16-.48,.32-.73,.47-.11,.07-.21,.14-.33,.21-.22,.13-.44,.25-.67,.37-.12,.07-.25,.14-.37,.21-.37,.18-.74,.36-1.13,.54-1.47,.62-3.02,1.11-4.65,1.5-1.3,.31-2.63,.56-4.01,.76-1.31,.19-2.64,.33-4.01,.45-1.89,.15-3.84,.24-5.8,.3-4.29,.12-8.7,.08-12.98,.2-1.93,.06-3.83,.14-5.69,.29l.58,65.82c1.86-.15,3.76-.24,5.69-.29,4.28-.12,8.69-.08,12.98-.2,1.96-.06,3.9-.15,5.8-.3,1.36-.11,2.7-.26,4.01-.45,1.37-.2,2.71-.45,4-.76,1.63-.39,3.18-.88,4.65-1.5,.39-.17,.76-.35,1.13-.54,.1-.05,.2-.11,.31-.17,.25-.13,.5-.27,.74-.41,.02-.01,.05-.03,.07-.04,.07-.05,.14-.09,.21-.14,.26-.16,.52-.32,.76-.49,.12-.08,.23-.16,.34-.24,.22-.16,.43-.32,.63-.48,.06-.05,.13-.1,.19-.15,.05-.04,.09-.08,.14-.13,.12-.1,.23-.21,.35-.31,.13-.11,.25-.23,.37-.35,.11-.1,.21-.21,.32-.32,.06-.07,.13-.13,.19-.2,.03-.03,.05-.07,.08-.1,.33-.36,.63-.73,.9-1.11,.02-.02,.04-.05,.06-.07,.03-.04,.05-.08,.07-.12,.27-.4,.52-.8,.72-1.21h0s0-.02,0-.02c.22-.43,.4-.88,.56-1.33,.01-.04,.03-.07,.04-.1,0-.03,.02-.05,.02-.08,.04-.13,.08-.26,.12-.39,.04-.14,.08-.29,.12-.43,.03-.13,.06-.27,.08-.4,.02-.11,.05-.22,.07-.33,0-.04,.01-.08,.02-.12,.03-.17,.05-.35,.07-.53,.01-.12,.03-.25,.04-.38,.02-.19,.02-.39,.03-.59,0-.1,.01-.19,.01-.29v-.13l-.58-65.82Z"/>
          <path class="cls-18" d="M592.96,1274.07s-.04,0-.07,.02c-1.22,.3-7.53,2.42-11.95,4.39-.41,.18-.81,.36-1.18,.55l.58,65.82c.37-.18,.77-.36,1.18-.55,4.42-1.97,10.72-4.09,11.94-4.39,.03,0,.05-.01,.07-.02,1.03-.23,2.1-.42,3.18-.58,1.29-.19,2.62-.33,3.97-.44l-.58-65.82c-1.35,.11-2.68,.25-3.98,.44-1.09,.16-2.15,.35-3.18,.58Z"/>
        </g>
        <path class="cls-19" d="M671.68,1406.46l-.58-65.82-117.22,49.32,.48,54.77c-13.61,1.63-25.84,.35-32.44-4.1-4.39-2.97-5.06-6.76-5.17-10.7-.01-1.09-.02-2.17-.03-3.26-.03-3.24-.26-6.45-2.39-9.27-.46-.59-5.17-4.6-9.14-6.95l-117.09,49.27,.58,65.82,117.09-49.27c3.97,2.35,8.69,6.35,9.14,6.95,1.92,2.52,2.29,5.36,2.37,8.26,.01,1.08,.02,2.17,.03,3.26,.04,4.3,.43,8.5,5.19,11.72,11.31,7.62,39.11,5.96,62.12-3.72,.65-.28,1.29-.55,1.91-.83,15.3-6.82,24.11-15.56,24.05-22.72-.14-15.62-.27-31.23-.41-46.85l61.51-25.88Z"/>
        <path class="cls-18" d="M637.24,1269.55l.58,65.82c-12.25,5.16-30.67,1.53-44.29,4.52-1.03,.23-7.5,2.39-12.01,4.4-.41,.18-.8,.37-1.18,.55l-.58-65.82c.37-.18,.77-.36,1.18-.55,4.51-2.01,10.98-4.18,12.01-4.4,13.61-2.99,32.04,.64,44.29-4.52Z"/>
        <polygon class="cls-18" points="388.1 1459.72 167.33 1310.76 167.91 1376.58 388.68 1525.55 388.1 1459.72"/>
        <path class="cls-12" d="M605.23,1405.59c-7.02-4.74-19.13-4.44-28.98-6.26-5.11-.94-10.36-2.34-14.47-4.22-.89-.41-5.32-2.96-7.9-5.15l117.22-49.32-91.33-61.63c.37-.18,.77-.36,1.18-.55,4.51-2.01,10.98-4.18,12.01-4.4,13.61-2.99,32.04,.64,44.29-4.52,13.94-6.22,11.01-20.78-6.75-32.75-17.94-12.11-44.24-16.99-59.16-10.7-8.55,3.81-8.21,10.12-11.69,15.29-1.83,2.73-4.52,5.53-8.1,7.74-.43,.26-2.08,1.09-4.16,2.02-1.72,.77-3.74,1.6-5.62,2.24l-91.44-61.7-283,119.08,220.77,148.97,117.09-49.27c3.97,2.35,8.68,6.36,9.14,6.95,5.47,7.2-1.58,17.04,7.59,23.23,11.3,7.62,39.11,5.96,62.12-3.72,.65-.27,1.29-.55,1.91-.83,21.61-9.64,30.27-23.09,19.28-30.5Z"/>
      </g>
    </g>
    <g>
      <path class="cls-13" d="M0,696.78l290.15-122.09,226.35,152.74-120.18,50.57c2.65,2.25,7.17,4.86,8.1,5.28,4.21,1.92,9.59,3.36,14.82,4.32,10.11,1.87,22.52,1.56,29.72,6.42,11.26,7.6,2.39,21.4-19.77,31.27-.64,.29-1.3,.57-1.96,.85-23.59,9.92-52.1,11.64-63.69,3.82-9.41-6.35-2.17-16.43-7.79-23.81-.46-.61-5.29-4.72-9.38-7.13l-120.03,50.51-93.65-63.19c.38-.18,.78-.37,1.2-.55,4.63-2.06,11.27-4.28,12.33-4.52,13.97-3.07,32.86,.66,44.92-4.42,14.78-6.59,11.77-21.52-6.42-33.8-18.4-12.42-45.35-17.42-60.21-11.17-9.22,4.1-8.85,10.57-12.43,15.87-1.87,2.79-4.63,5.67-8.3,7.93-.44,.27-2.11,1.11-4.23,2.06-1.78,.79-3.86,1.65-5.81,2.31L0,696.78Z"/>
      <g class="cls-7">
        <path class="cls-10" d="M143.53,720.83c.2-.05,.4-.09,.6-.13,.31-.07,.61-.14,.93-.2,.22-.04,.45-.08,.67-.12,.22-.04,.43-.08,.65-.11l.46,52.5,86.93,58.66-.55-62.64-72.02-48.59c1.06,.13,2.12,.27,3.19,.45,.23,.04,.47,.08,.7,.12,.41,.07,.82,.14,1.23,.22,.27,.05,.55,.11,.82,.16,.4,.08,.8,.16,1.2,.25,.25,.06,.5,.11,.75,.17,.63,.14,1.26,.29,1.89,.45,.17,.04,.33,.08,.5,.13,.78,.2,1.55,.42,2.33,.64,.14,.04,.28,.08,.41,.12,1.07,.32,2.14,.66,3.21,1.02,.04,.01,.08,.03,.12,.04,1.07,.37,2.14,.76,3.19,1.17,.08,.03,.15,.06,.23,.09,1.2,.47,2.39,.97,3.56,1.5,.05,.03,.11,.05,.16,.07,1.19,.54,2.36,1.1,3.51,1.7,.04,.02,.08,.04,.11,.06,1.16,.6,2.31,1.24,3.42,1.89,.02,.01,.04,.02,.06,.04,1.14,.67,2.25,1.37,3.32,2.1,9.59,6.48,14.64,13.74,14.7,19.94-.18-20.88-.37-41.76-.55-62.64-.05-6.19-5.1-13.46-14.69-19.94-1.08-.73-2.19-1.43-3.32-2.1-.02-.01-.04-.03-.07-.04-1.12-.66-2.26-1.29-3.42-1.89-.04-.02-.08-.04-.12-.06-1.15-.59-2.31-1.16-3.5-1.69-.06-.03-.12-.05-.18-.08-1.17-.53-2.35-1.02-3.54-1.49-.02,0-.05-.02-.07-.03-.06-.03-.13-.05-.2-.07-1.04-.41-2.08-.79-3.14-1.15-.05-.02-.1-.03-.15-.05-1.05-.36-2.11-.69-3.17-1.01-.09-.03-.18-.06-.28-.09-.06-.02-.12-.03-.18-.05-.77-.22-1.54-.44-2.31-.64-.17-.05-.34-.09-.52-.13-.62-.16-1.24-.31-1.86-.45-.12-.03-.25-.06-.37-.09-.14-.03-.28-.06-.42-.09-.38-.08-.76-.16-1.14-.24-.29-.06-.58-.12-.87-.17-.39-.07-.77-.14-1.16-.21-.2-.04-.41-.08-.61-.11-.05,0-.1-.01-.16-.02-1.06-.17-2.13-.32-3.18-.45-.09-.01-.19-.03-.28-.04-.07,0-.14-.01-.2-.02-.92-.1-1.84-.19-2.75-.25-.08,0-.15-.02-.23-.02-.1,0-.2,0-.31-.01-.85-.05-1.71-.09-2.54-.11h-.03s-.03,0-.04,0c-.79-.02-1.57,0-2.34,0-.1,0-.21,0-.31,0-.09,0-.18,.01-.27,.01-.78,.03-1.54,.07-2.29,.13,0,0-.04,0-.07,0-.06,0-.11,.01-.17,.02-.78,.07-1.55,.15-2.3,.26-.08,.01-.17,.02-.26,.03-.06,0-.12,.02-.18,.03-.3,.05-.6,.1-.89,.15-.24,.04-.48,.08-.72,.13-.29,.06-.57,.12-.86,.18-.2,.04-.4,.08-.59,.13-.03,0-.05,.02-.08,.02-.67,.16-1.32,.35-1.96,.55-.15,.05-.3,.09-.44,.14-.64,.21-1.27,.44-1.87,.69-.48,.22-.93,.44-1.36,.67-.13,.07-.25,.14-.37,.21-.15,.09-.31,.17-.46,.25-.13,.08-.24,.16-.36,.24-.15,.1-.31,.2-.45,.3-.24,.16-.46,.33-.68,.49-.13,.1-.26,.19-.38,.29-.04,.03-.09,.07-.13,.1-.26,.21-.5,.43-.73,.65-.03,.03-.06,.06-.09,.09-.18,.18-.36,.36-.52,.54v.02h0s0-.02,0-.02c-.06,.06-.1,.12-.15,.17-.08,.09-.16,.18-.24,.28-.17,.2-.32,.39-.47,.59-.07,.09-.14,.18-.21,.27-.04,.05-.07,.1-.11,.14-.07,.1-.13,.21-.2,.31-.13,.19-.26,.39-.38,.59-.09,.14-.17,.29-.25,.43-.11,.2-.22,.4-.33,.6-.03,.06-.07,.12-.1,.18-.03,.07-.07,.14-.1,.2-.17,.35-.34,.7-.5,1.05-.03,.06-.06,.12-.08,.17-.21,.48-.42,.96-.63,1.44-.13,.31-.27,.62-.4,.93-.06,.14-.13,.28-.19,.43-.19,.41-.38,.82-.58,1.23-.11,.2-.22,.4-.33,.61-.06,.11-.12,.22-.18,.33-.18,.31-.37,.62-.58,.92-.13,.19-.28,.39-.41,.59-.2,.27-.4,.55-.62,.82-.09,.12-.18,.24-.28,.36-.29,.36-.6,.72-.92,1.07-.02,.02-.04,.05-.06,.07-.34,.37-.7,.73-1.07,1.09-.11,.1-.22,.21-.33,.31-.27,.25-.55,.51-.85,.75-.14,.12-.28,.24-.43,.35-.29,.24-.6,.47-.91,.71-.14,.1-.28,.21-.42,.31-.46,.32-.92,.64-1.41,.94-.02,.01-.06,.03-.09,.05-.05,.03-.09,.05-.15,.08-.03,.01-.06,.03-.09,.05-.07,.03-.13,.07-.21,.11-.04,.02-.1,.05-.15,.08-.08,.04-.16,.08-.25,.13-.05,.03-.12,.06-.17,.09-.1,.05-.19,.09-.3,.15-.08,.04-.16,.08-.24,.12-.1,.05-.2,.1-.31,.15-.12,.06-.25,.12-.37,.18-.08,.04-.15,.07-.23,.11-.14,.07-.29,.13-.43,.2-.08,.04-.16,.07-.24,.11-.23,.1-.47,.21-.71,.32-1.65,.73-3.59,1.53-5.39,2.14l-87.02-58.72,.55,62.64,87.02,58.72c1.81-.61,3.74-1.4,5.39-2.14,.24-.11,.48-.22,.71-.32,.04-.02,.08-.04,.12-.06,.19-.09,.37-.17,.54-.25,.07-.03,.13-.06,.2-.1,.14-.06,.27-.13,.4-.19,.09-.04,.17-.08,.25-.12,.1-.05,.21-.1,.3-.15,.07-.03,.13-.06,.19-.09,.1-.05,.2-.1,.29-.14,.05-.03,.1-.05,.14-.07,.09-.04,.17-.09,.25-.13,.04-.02,.07-.04,.11-.06,.07-.04,.14-.07,.2-.1,.03-.02,.05-.03,.08-.04,.04-.02,.09-.05,.12-.07,0,0,.02-.01,.02-.02,.49-.3,.96-.62,1.41-.94,.15-.11,.29-.21,.43-.32,.31-.23,.61-.46,.89-.69,.08-.06,.16-.12,.23-.18,.08-.06,.14-.13,.21-.19,.28-.24,.56-.49,.82-.73,.12-.11,.24-.22,.35-.33,.37-.36,.72-.72,1.06-1.08,0,0,0,0,.01-.01,.02-.02,.04-.05,.06-.07,.32-.35,.62-.7,.91-1.05,.1-.12,.19-.24,.28-.35,.22-.28,.42-.55,.62-.83,.05-.07,.11-.13,.15-.2,.09-.13,.18-.25,.26-.38,.2-.3,.39-.61,.58-.92,.08-.14,.16-.29,.24-.44,.09-.16,.18-.32,.26-.48,0,0,0-.02,0-.02,.21-.41,.41-.83,.6-1.25,.05-.12,.1-.23,.16-.35,.16-.37,.32-.74,.48-1.12,.18-.43,.37-.86,.56-1.29,.04-.08,.08-.16,.11-.24,.15-.34,.31-.67,.48-1,.07-.14,.14-.27,.21-.41,.1-.2,.21-.39,.32-.59,.08-.15,.17-.3,.26-.44,.12-.2,.25-.39,.38-.59,.1-.15,.2-.3,.3-.45,.07-.09,.14-.19,.21-.28,.15-.19,.3-.39,.46-.58,.08-.1,.16-.19,.25-.29,.21-.24,.43-.47,.67-.7,.03-.03,.06-.06,.1-.1,.27-.26,.56-.51,.86-.76,.12-.1,.25-.19,.38-.29,.22-.17,.44-.33,.68-.49,.15-.1,.3-.2,.45-.3,.26-.17,.53-.33,.82-.49,.12-.07,.25-.14,.37-.21,.43-.23,.87-.45,1.36-.67,.6-.25,1.23-.48,1.87-.69,.15-.05,.3-.1,.44-.15,.64-.2,1.29-.39,1.97-.55Z"/>
        <path class="cls-11" d="M503.12,718.08l-.55-62.64-111.56,46.94,.45,52.13s-.07,0-.11,.01c-.24,.03-.48,.06-.72,.08-.89,.1-1.78,.19-2.65,.26-.09,0-.18,.01-.26,.02-.64,.05-1.28,.1-1.92,.13-.24,.01-.47,.02-.72,.03-.48,.02-.96,.05-1.43,.06-.18,0-.35,0-.52,.01-1.12,.03-2.23,.04-3.31,.02-.15,0-.29,0-.43-.01-.9-.02-1.79-.06-2.66-.11-.07,0-.14,0-.2-.01-.82-.05-1.61-.13-2.39-.21-.2-.02-.39-.04-.58-.07-.67-.08-1.32-.17-1.96-.27-.08-.01-.16-.02-.23-.04-.69-.12-1.37-.25-2.02-.39-.17-.04-.34-.08-.5-.11-.62-.14-1.22-.3-1.8-.46-.08-.02-.17-.05-.25-.07-.12-.04-.24-.08-.36-.11-.32-.1-.64-.2-.95-.31-.16-.06-.31-.12-.47-.17-.26-.1-.52-.2-.78-.3-.15-.06-.29-.12-.43-.18-.25-.11-.5-.22-.74-.33-.14-.07-.27-.13-.41-.2-.25-.12-.49-.25-.72-.38-.11-.06-.23-.12-.33-.18-.34-.2-.67-.4-.97-.61-4.19-2.83-4.82-6.45-4.93-10.21,0-1.02-.02-2.03-.02-3.05-.03-3.09-.24-6.16-2.29-8.84-.43-.57-4.91-4.38-8.71-6.62l-111.42,46.89,.55,62.64,111.42-46.89c3.8,2.24,8.28,6.05,8.71,6.62,1.83,2.41,2.19,5.13,2.27,7.9,0,1.01,.01,2.02,.02,3.04,.04,4.1,.4,8.1,4.94,11.17,.31,.21,.64,.41,.97,.61,.11,.06,.23,.12,.34,.19,.23,.13,.47,.26,.71,.38,.14,.07,.28,.13,.41,.2,.24,.11,.48,.22,.74,.33,.14,.06,.28,.12,.43,.18,.08,.03,.16,.07,.24,.1,.18,.07,.37,.14,.55,.2,.16,.06,.31,.12,.47,.17,.3,.11,.61,.2,.92,.3,.13,.04,.26,.08,.39,.12,.02,0,.04,.01,.06,.02,.05,.02,.11,.03,.17,.04,.59,.17,1.21,.33,1.83,.47,.09,.02,.17,.05,.26,.07,.07,.02,.15,.03,.22,.04,.67,.14,1.34,.28,2.04,.4,.01,0,.02,0,.02,0,.06,.01,.12,.02,.17,.02,.65,.11,1.33,.2,2.01,.28,.1,.01,.19,.03,.29,.04,.09,.01,.18,.01,.27,.02,.78,.09,1.58,.16,2.4,.22h.05c.05,0,.11,0,.16,.01,.87,.06,1.76,.09,2.67,.11,.09,0,.18,0,.27,.01,.05,0,.09,0,.14,0,1.08,.02,2.18,.01,3.31-.02,.09,0,.18,0,.27,0,.09,0,.18,0,.28-.01,.47-.01,.94-.04,1.42-.06,.24-.01,.47-.02,.71-.03,.68-.04,1.36-.09,2.05-.14,.04,0,.07,0,.11,0h0c.88-.07,1.78-.16,2.68-.26,.24-.03,.47-.05,.7-.08,.79-.09,1.58-.2,2.38-.31,.1-.01,.19-.02,.29-.04,.03,0,.07-.01,.1-.02,.74-.11,1.48-.22,2.23-.35,.13-.02,.25-.05,.38-.07,.63-.11,1.25-.22,1.87-.34,.28-.05,.56-.11,.84-.17,.48-.09,.95-.19,1.43-.29,.31-.07,.63-.14,.94-.21,.45-.1,.89-.2,1.34-.31,.12-.03,.24-.05,.35-.08,.1-.02,.2-.06,.31-.08,1.21-.29,2.42-.61,3.62-.94,.16-.04,.32-.09,.48-.14,1.23-.35,2.45-.72,3.67-1.11,.13-.04,.25-.08,.37-.12,1.25-.41,2.5-.84,3.73-1.3,.07-.03,.15-.06,.22-.09,1.29-.48,2.56-.98,3.82-1.51,.62-.26,1.22-.52,1.82-.79,.85-.38,1.67-.76,2.47-1.15,.27-.13,.54-.27,.81-.4,.52-.26,1.04-.52,1.54-.78,.3-.16,.59-.31,.88-.47,.46-.25,.92-.5,1.36-.76,.28-.16,.56-.32,.83-.48,.17-.1,.34-.19,.51-.29,.28-.17,.54-.34,.82-.51,.24-.15,.48-.3,.72-.45,.49-.32,.97-.64,1.44-.96,.15-.1,.31-.21,.46-.31,.61-.42,1.19-.85,1.75-1.28,.15-.11,.28-.22,.42-.33,.33-.26,.66-.52,.97-.78,.06-.05,.12-.1,.18-.15,.41-.34,.79-.69,1.17-1.03,.17-.15,.35-.31,.51-.46,.52-.5,1.02-1,1.48-1.5h0c.4-.44,.77-.88,1.13-1.32,.11-.14,.21-.28,.32-.42,.19-.24,.38-.48,.55-.72,.05-.07,.08-.13,.13-.19,.09-.12,.16-.24,.24-.37,.2-.31,.39-.61,.56-.92,.07-.13,.15-.26,.21-.38,.04-.07,.09-.15,.12-.22,.17-.32,.31-.64,.45-.96,.02-.06,.04-.11,.07-.16,.09-.22,.18-.45,.26-.67,.05-.14,.09-.28,.13-.42,.02-.07,.05-.15,.07-.22,.09-.32,.17-.64,.22-.96,.01-.06,.01-.13,.02-.2,.01-.07,.02-.13,.03-.2,.05-.36,.08-.72,.08-1.07v-.11c-.13-14.86-.26-29.73-.39-44.59l58.55-24.63Z"/>
        <path class="cls-14" d="M23.12,626.99l269.34-113.34,210.11,141.78-111.56,46.94c2.46,2.08,6.66,4.51,7.52,4.9,3.91,1.79,8.91,3.11,13.76,4.01,9.38,1.73,20.91,1.45,27.59,5.96,10.45,7.06,2.22,19.86-18.35,29.03-.6,.26-1.2,.53-1.82,.79-21.9,9.21-48.37,10.8-59.12,3.54-8.73-5.9-2.02-15.25-7.24-22.11-.43-.57-4.91-4.38-8.71-6.62l-111.42,46.89-86.94-58.66c.36-.17,.73-.34,1.12-.51,4.3-1.92,10.46-3.97,11.44-4.19,12.97-2.85,30.5,.61,41.7-4.1,13.72-6.11,10.92-19.97-5.96-31.37-17.08-11.53-42.1-16.17-55.89-10.37-8.55,3.81-8.22,9.81-11.54,14.73-1.74,2.59-4.3,5.26-7.7,7.36-.41,.25-1.96,1.03-3.93,1.91-1.65,.73-3.59,1.53-5.39,2.14l-87.02-58.72Z"/>
      </g>
    </g>
    <g>
      <path class="cls-13" d="M1823.21,607.03l-129.61-54.54c-4.4,2.6-9.62,7.04-10.12,7.69-6.06,7.97,1.75,18.86-8.41,25.72-12.52,8.44-43.3,6.59-68.77-4.12-.72-.3-1.42-.61-2.11-.91-23.92-10.67-33.51-25.57-21.35-33.77,7.77-5.25,21.18-4.91,32.09-6.92,5.66-1.04,11.47-2.59,16.01-4.67,1-.45,5.89-3.28,8.74-5.7l-129.76-54.6-101.22,68.31c-2.09-.71-4.35-1.64-6.26-2.49-2.29-1.02-4.09-1.93-4.56-2.22-3.97-2.45-6.95-5.55-8.98-8.56-3.85-5.73-3.47-12.71-12.93-16.92-16.52-6.96-45.62-1.56-65.49,11.84-19.64,13.26-22.9,29.38-7.46,36.26,13.56,5.71,33.94,1.69,49.02,5,1.14,.25,8.3,2.64,13.3,4.87,.45,.2,.89,.41,1.3,.6l-101.11,68.22,313.29,131.83,244.39-164.91Z"/>
      <g class="cls-7">
        <path class="cls-15" d="M1575.64,481.92c.02-3.03,1.6-5.78,4.89-8,.52-.35,1.08-.67,1.65-.97,.18-.09,.37-.18,.56-.27,.41-.2,.83-.39,1.27-.57,.11-.04,.21-.1,.32-.14,.09-.04,.2-.06,.3-.1,.69-.26,1.4-.51,2.14-.72,.01,0,.02,0,.04-.01h0c.75-.22,1.52-.41,2.3-.59,.09-.02,.18-.05,.27-.07,.11-.03,.24-.04,.35-.07,.92-.2,1.85-.38,2.8-.54,.03,0,.06-.01,.09-.02,.1-.02,.2-.03,.31-.04,.94-.15,1.9-.29,2.87-.42,.13-.02,.26-.04,.39-.05,1.04-.13,2.1-.26,3.15-.38,.06,0,.12-.02,.18-.02,.24-.03,.47-.05,.71-.08,.71-.08,1.42-.16,2.13-.24,.99-.11,1.98-.23,2.96-.36,.2-.02,.4-.05,.59-.08,.98-.13,1.94-.27,2.89-.42,.51-.08,1.01-.16,1.51-.26,1.02-.19,2.05-.4,3.07-.62,.19-.04,.38-.08,.57-.12,.73-.17,1.47-.34,2.19-.52,.02,0,.05-.01,.07-.02,.74-.19,1.47-.39,2.19-.6,.23-.06,.45-.13,.67-.2,.5-.15,1-.31,1.49-.47,.24-.08,.49-.16,.73-.25,.49-.17,.97-.34,1.45-.52,.2-.08,.4-.15,.6-.23,.63-.25,1.24-.51,1.83-.77,.93-.42,5.46-3.04,8.12-5.29l-.59,67.64c-2.65,2.24-7.19,4.87-8.12,5.29-.59,.27-1.21,.53-1.84,.78-.05,.02-.09,.04-.14,.06-.13,.05-.28,.1-.41,.15-.49,.19-.99,.37-1.5,.54-.23,.08-.47,.16-.71,.24-.49,.16-.98,.32-1.49,.47-.15,.05-.3,.1-.46,.14-.08,.02-.16,.04-.23,.06-.72,.21-1.44,.41-2.17,.6-.03,0-.06,.01-.1,.02-.72,.18-1.44,.36-2.17,.52-.08,.02-.16,.04-.24,.06-.12,.03-.24,.05-.36,.07-1.02,.22-2.04,.43-3.06,.62-.42,.08-.84,.15-1.26,.22-.09,.02-.18,.03-.27,.04-.94,.15-1.89,.29-2.86,.42-.21,.03-.43,.05-.65,.08-.95,.12-1.9,.24-2.86,.35-.03,0-.06,0-.09,.01-.67,.08-1.35,.15-2.03,.23-.34,.04-.68,.08-1.02,.12-1.04,.12-2.08,.24-3.12,.37-.12,.02-.25,.04-.37,.05-.97,.13-1.94,.27-2.89,.42-.13,.02-.26,.04-.39,.06-.96,.16-1.89,.34-2.81,.54-.2,.04-.4,.09-.6,.13-.79,.18-1.57,.37-2.32,.59,0,0-.01,0-.02,0-.75,.22-1.46,.47-2.16,.73-.21,.08-.41,.16-.61,.24-.44,.18-.86,.37-1.27,.57-.18,.09-.37,.18-.55,.27-.57,.3-1.13,.62-1.65,.97-3.29,2.22-4.86,4.97-4.89,8l.59-67.64Z"/>
        <path class="cls-15" d="M1311.48,545.66c-.03-.13-.05-.26-.08-.39-.02-.12-.05-.23-.07-.35,0-.04,0-.08-.02-.12-.03-.18-.05-.36-.07-.53-.02-.14-.03-.27-.04-.4-.01-.19-.02-.37-.02-.56,0-.11-.01-.22-.01-.33v-.14l.59-67.64c0,.15,0,.31,.01,.46,0,.19,.01,.38,.02,.56,.01,.14,.03,.27,.04,.4,.02,.18,.04,.36,.07,.53,.03,.16,.06,.31,.09,.47,.02,.13,.05,.26,.08,.39,.04,.16,.09,.32,.13,.48,.04,.12,.07,.25,.11,.37,.02,.06,.05,.13,.07,.19,.16,.47,.35,.92,.57,1.37,0,0,0,.02,.01,.03,.22,.42,.47,.83,.75,1.24,.04,.07,.09,.13,.13,.2,.28,.39,.59,.77,.92,1.14,.09,.1,.18,.2,.28,.3,.1,.11,.21,.22,.32,.33,.13,.12,.25,.24,.39,.36,.12,.11,.24,.21,.35,.32,.11,.1,.23,.19,.35,.28,.21,.17,.43,.33,.65,.49,.12,.08,.23,.17,.35,.25,.25,.17,.51,.34,.78,.5,.1,.06,.2,.13,.3,.19,.24,.14,.49,.28,.74,.41,.11,.06,.22,.12,.34,.18,.37,.19,.76,.38,1.16,.56,.77,.33,1.57,.61,2.38,.87,.27,.09,.56,.15,.84,.23,.56,.16,1.11,.33,1.69,.46,.15,.04,.31,.06,.46,.1,.65,.15,1.31,.28,1.97,.4,.27,.05,.54,.09,.81,.13,.62,.1,1.25,.19,1.89,.27,.21,.03,.41,.06,.63,.08,.82,.09,1.66,.18,2.51,.24,.53,.04,1.07,.07,1.6,.1,.45,.03,.9,.06,1.35,.08,.55,.03,1.1,.04,1.65,.06,.44,.01,.88,.04,1.33,.05,1.05,.03,2.12,.05,3.18,.06h.09c1.25,.02,2.51,.03,3.76,.04,.8,0,1.6,.02,2.4,.03,.4,0,.79,.01,1.18,.02,.68,.01,1.36,.02,2.03,.04,.17,0,.35,0,.52,.01,.3,0,.59,.02,.88,.03,.52,.02,1.03,.04,1.55,.06,.48,.02,.96,.05,1.43,.08,.5,.03,.99,.06,1.48,.1,.17,.01,.34,.02,.5,.03h0s0,0,0,0c.55,.04,1.1,.1,1.64,.16,.11,.01,.23,.02,.33,.03,.71,.08,1.42,.16,2.11,.27,.08,.01,.16,.03,.24,.04,1.04,.16,2.06,.33,3.05,.55,.03,0,.05,.01,.09,.02,.02,0,.07,.02,.1,.03,.04,.01,.09,.02,.14,.04,.06,.02,.14,.04,.21,.06,.05,.02,.11,.03,.17,.05,.09,.03,.18,.06,.28,.09,.07,.02,.14,.04,.21,.07,.11,.03,.23,.07,.36,.11,.08,.02,.15,.05,.23,.07,.14,.04,.28,.09,.43,.14,.08,.03,.17,.05,.25,.08,.15,.05,.31,.1,.47,.16,.09,.03,.18,.06,.28,.09,.17,.06,.34,.12,.52,.18,.1,.03,.19,.07,.3,.1,.17,.06,.35,.12,.53,.19,.11,.04,.23,.08,.34,.12,.16,.06,.33,.12,.5,.18,.14,.05,.27,.1,.41,.15,.16,.06,.33,.12,.49,.18,.15,.05,.29,.11,.44,.16,.17,.06,.33,.13,.5,.19,.15,.06,.29,.11,.44,.17,.17,.07,.34,.13,.51,.2,.15,.06,.3,.12,.45,.17,.17,.07,.34,.13,.5,.2,.15,.06,.3,.12,.45,.18,.17,.07,.33,.14,.5,.2,.15,.06,.3,.12,.44,.18,.18,.07,.36,.15,.53,.22,.13,.05,.26,.11,.38,.16,.3,.13,.59,.26,.88,.38,.42,.19,.82,.38,1.21,.56l-.59,67.64c-.38-.18-.79-.37-1.21-.56-.29-.13-.58-.26-.88-.39-.1-.04-.2-.08-.29-.12-.21-.09-.41-.17-.62-.26-.12-.05-.24-.1-.36-.15-.19-.08-.38-.16-.58-.24-.14-.05-.27-.11-.4-.16-.18-.07-.37-.15-.55-.22-.14-.05-.28-.11-.42-.16-.18-.07-.36-.14-.54-.21-.15-.06-.29-.11-.44-.17-.17-.06-.34-.13-.51-.19-.14-.05-.28-.11-.43-.16-.17-.06-.34-.13-.51-.19-.14-.05-.27-.1-.4-.15-.17-.06-.33-.12-.49-.18-.15-.05-.3-.1-.44-.15-.14-.05-.28-.1-.41-.14-.15-.05-.29-.1-.43-.15-.13-.05-.27-.09-.39-.14-.13-.04-.25-.09-.38-.13-.12-.04-.25-.09-.37-.12-.12-.04-.23-.08-.34-.11-.12-.04-.23-.08-.34-.11-.11-.03-.2-.07-.3-.1-.1-.03-.2-.06-.29-.09-.09-.03-.18-.06-.27-.08-.08-.03-.16-.05-.24-.07-.07-.02-.14-.04-.21-.06-.07-.02-.14-.04-.2-.06-.05-.02-.1-.03-.14-.04-.07-.02-.14-.03-.19-.05-1-.22-2.01-.4-3.06-.55-.77-.12-1.55-.22-2.33-.31-.13-.01-.27-.02-.4-.04-.69-.07-1.39-.13-2.1-.18-.49-.04-.98-.07-1.47-.09-.48-.03-.96-.06-1.45-.08-.5-.02-1.01-.04-1.52-.06-.48-.02-.96-.04-1.45-.05-.65-.02-1.32-.03-1.98-.04-.41,0-.82-.02-1.24-.02-.79-.01-1.58-.02-2.37-.02-1.04-.01-2.07-.02-3.11-.04-.26,0-.52,0-.78,0-1.05-.01-2.1-.03-3.14-.06-.05,0-.1,0-.15,0h0s0,0,0,0c-.44-.01-.87-.04-1.3-.05-.51-.02-1.04-.03-1.55-.06-.47-.02-.93-.06-1.4-.09-.52-.03-1.04-.06-1.54-.1-.06,0-.12,0-.17-.01-.8-.06-1.58-.14-2.36-.23-.2-.02-.39-.05-.59-.07-.39-.05-.79-.09-1.17-.15v-.02h0v.02c-.25-.04-.5-.08-.75-.12-.27-.04-.53-.09-.79-.13-.67-.12-1.33-.25-1.97-.4-.15-.04-.31-.06-.47-.1-.04-.01-.09-.02-.13-.03-.54-.13-1.06-.29-1.58-.44-.27-.08-.55-.14-.82-.23-.82-.26-1.62-.55-2.39-.88-.4-.18-.78-.36-1.16-.55-.13-.07-.25-.14-.38-.21-.24-.13-.47-.25-.69-.39-.03-.02-.06-.03-.09-.05-.09-.05-.16-.11-.25-.16-.25-.16-.5-.32-.75-.49-.12-.08-.24-.17-.36-.26-.22-.16-.43-.32-.63-.49-.07-.05-.14-.1-.21-.16h0s0,0,0,0c-.05-.04-.1-.09-.15-.13-.12-.1-.23-.2-.35-.31-.14-.12-.27-.24-.4-.37-.11-.11-.21-.21-.31-.32-.06-.07-.14-.14-.2-.21-.03-.03-.05-.07-.08-.1-.33-.37-.64-.75-.92-1.14-.02-.02-.04-.05-.06-.07-.03-.04-.05-.08-.07-.12-.28-.4-.53-.81-.75-1.24,0,0,0,0,0,0,0,0,0-.02-.01-.03-.22-.44-.41-.89-.57-1.35-.01-.04-.03-.08-.05-.12v-.02h0v.02s-.02-.06-.03-.09c-.04-.12-.07-.24-.1-.36-.05-.16-.1-.32-.14-.49Z"/>
        <polygon class="cls-2" points="1285.99 560.26 1285.4 627.9 1576.21 750.27 1576.8 682.63 1285.99 560.26"/>
        <polygon class="cls-15" points="1576.8 682.63 1576.21 750.27 1803.07 597.19 1803.66 529.55 1576.8 682.63"/>
        <path class="cls-16" d="M1803.66,529.55l-120.31-50.63c-4.09,2.41-8.92,6.53-9.39,7.14-5.63,7.4,1.63,17.51-7.8,23.87-11.62,7.84-40.19,6.12-63.83-3.82-.67-.28-1.32-.56-1.96-.85-22.21-9.9-31.1-23.73-19.82-31.35,7.22-4.87,19.66-4.56,29.78-6.43,5.25-.97,10.65-2.4,14.86-4.33,.93-.42,5.46-3.04,8.12-5.29l-120.45-50.69-93.96,63.41c-1.94-.66-4.04-1.52-5.81-2.31-2.12-.95-3.8-1.79-4.23-2.06-3.69-2.27-6.45-5.15-8.33-7.95-3.58-5.32-3.22-11.79-12-15.71-15.34-6.46-42.35-1.45-60.79,10.99-18.24,12.31-21.25,27.27-6.93,33.66,12.58,5.3,31.51,1.56,45.5,4.64,1.06,.23,7.71,2.45,12.35,4.52,.42,.19,.82,.38,1.21,.56l-93.86,63.33,290.81,122.37,226.86-153.08Z"/>
      </g>
    </g>
  </g>
</svg>