<?xml version="1.0" encoding="UTF-8"?>
<svg id="Layer_2" data-name="Layer 2" xmlns="http://www.w3.org/2000/svg" viewBox="0 0 387.78 328.75">
  <defs>
    <style>
      .cls-1, .cls-2, .cls-3, .cls-4, .cls-5 {
        fill: #fff;
      }

      .cls-6, .cls-7, .cls-8, .cls-9, .cls-10 {
        fill: #fafafa;
      }

      .cls-6, .cls-11, .cls-12, .cls-5 {
        opacity: .2;
      }

      .cls-13 {
        opacity: .9;
      }

      .cls-2 {
        opacity: .4;
      }

      .cls-14 {
        fill: #f5f5f5;
      }

      .cls-3, .cls-15 {
        opacity: .3;
      }

      .cls-16 {
        fill: #f8b49c;
      }

      .cls-4 {
        opacity: .5;
      }

      .cls-17 {
        fill: #e0e0e0;
      }

      .cls-18 {
        fill: #e6e6e6;
      }

      .cls-19 {
        fill: #ed847e;
      }

      .cls-12 {
        isolation: isolate;
      }

      .cls-8 {
        opacity: .6;
      }

      .cls-9 {
        opacity: .8;
      }

      .cls-20, .cls-21 {
        fill: #fc9;
      }

      .cls-22 {
        fill: #ebebeb;
      }

      .cls-10, .cls-21 {
        opacity: .7;
      }

      .cls-23 {
        fill: #ffc3bd;
      }

      .cls-24 {
        fill: #263238;
      }
    </style>
  </defs>
  <g id="Background_Complete" data-name="Background Complete">
    <g>
      <g>
        <rect class="cls-18" x="13.05" y="61.39" width="351.78" height="15"/>
        <rect class="cls-17" x="361.85" y="59.8" width="3.44" height="18.17"/>
        <rect class="cls-17" x="245.58" y="59.8" width="3.44" height="18.17"/>
        <rect class="cls-17" x="129.32" y="59.8" width="3.44" height="18.17"/>
        <rect class="cls-17" x="13.05" y="59.8" width="3.44" height="18.17"/>
        <rect class="cls-17" x="294.93" y="59.8" width="23.62" height="18.17"/>
        <rect class="cls-17" x="304.76" y="37.39" width="3.96" height="24.79"/>
        <circle class="cls-17" cx="306.74" cy="35.9" r="10.12" transform="translate(64.45 227.41) rotate(-45)"/>
        <path class="cls-22" d="M313.93,35.9c0,3.97-3.22,7.19-7.19,7.19s-7.19-3.22-7.19-7.19,3.22-7.19,7.19-7.19,7.19,3.22,7.19,7.19Z"/>
      </g>
      <g>
        <rect class="cls-18" x="13.05" y="91.39" width="351.78" height="15"/>
        <rect class="cls-17" x="361.85" y="89.8" width="3.44" height="18.17"/>
        <rect class="cls-17" x="245.58" y="89.8" width="3.44" height="18.17"/>
        <rect class="cls-17" x="129.32" y="89.8" width="3.44" height="18.17"/>
        <rect class="cls-17" x="13.05" y="89.8" width="3.44" height="18.17"/>
      </g>
      <g>
        <path class="cls-18" d="M13.05,122.39v15h250.61c13.15,0,23.81,10.66,23.81,23.81v122.62h15v-122.82c0-21.32-17.29-38.61-38.61-38.61H13.05Z"/>
        <rect class="cls-17" x="245.58" y="120.8" width="3.44" height="18.17"/>
        <rect class="cls-17" x="129.32" y="120.8" width="3.44" height="18.17"/>
        <rect class="cls-17" x="13.05" y="120.8" width="3.44" height="18.17"/>
        <rect class="cls-17" x="293.25" y="273.47" width="3.44" height="18.17" transform="translate(577.52 -12.42) rotate(90)"/>
        <rect class="cls-17" x="293.25" y="168.2" width="3.44" height="18.17" transform="translate(472.26 -117.68) rotate(90)"/>
      </g>
    </g>
  </g>
  <g id="Shadow">
    <ellipse id="_Path_" data-name="&amp;lt;Path&amp;gt;" class="cls-14" cx="193.89" cy="317.43" rx="193.89" ry="11.32"/>
  </g>
  <g id="Text">
    <g>
      <g>
        <polygon class="cls-20" points="201.31 199.19 133.58 200.36 220.32 132.48 201.31 199.19"/>
        <polygon class="cls-8" points="201.31 199.19 133.58 200.36 220.32 132.48 201.31 199.19"/>
      </g>
      <circle class="cls-21" cx="125.24" cy="100.35" r="100.35"/>
    </g>
  </g>
  <g id="Bricks">
    <g>
      <g>
        <path class="cls-24" d="M373.96,311.12c-1.03-.25-1.52-.23-2.83-.41-.86-.12-1.65-.89-2.07-1.76-2.49-1.9-4.24-5.26-5.69-7.4-.98-.2-1.96-.45-2.93-.72-.02,0-.04-.02-.06-.02-1.49,.85-3.06,1.48-5.02,1.33-1.88-.15-3.94-1.98-3.12-4.09,.76-1.95,1.92-3.52,4.08-3.99,.8-.17,1.57-.11,2.37-.17,.05,0,.21,0,.32-.03,.02-.02,.04-.03,.05-.05-.08,0-.33,.16-.17-.1,.8-1.29,2.06-1.66,3.22-1.45,3.95-1.42,5.73-1.25,5.73-5.58,0-.59,.1-1.2,.27-1.83,0-.57,0-1.14,.03-1.72,.09-2,1.55-5.47,.7-6.88-.98-1.64-3.52-2.66-4.68-4.54-.07-.12-.12-.25-.18-.38-.92-.19-1.77-.67-2.46-1.32-.95,.26-2.01,.06-2.91-.87l-1.62-.29c-.5,.32-1.11,.45-1.73,.42-1.33,1.76-4.29,2.5-5.46,0-2.09-4.47-.94-10.39,5.16-9.61,.69,.09,1.42,.36,2.02,.79,1.04-.08,2.05,.02,3.07,.17,.74-.43,1.58-.68,2.43-.68h3.92c.02-.11,.04-.21,.06-.35,.24-1.63,.05-3.36,.04-5,0-2.38,.05-4.96,1.01-7.17-.12-.25-.23-.5-.34-.75-4.08-.81-11.38-.42-13.06-.84-1.06-.26-1.72-.87-2.05-1.61-.42-.39-.77-.88-1-1.44-.53-1.31-.77-2.61-.91-4.02-.1-1.01,.66-2.37,1.6-2.79,.5-.22,.99-.47,1.52-.61,.62-.7,1.34-1.19,2.13-1.6,.79-.9,1.96-1.51,3.52-1.51h.29c1.11-.44,2.22-.98,3.23-1.82,1.58-1.33,3.05-2.9,5.31-2.59,.04,0,.06,.02,.1,.02v-11.99c-6.2-.15-12.52-2.13-16.07-7.53-1.29-1.95-.14-3.73,1.54-4.41,.1-.41,.33-.7,.72-.82,1.58-.49,8.81-2.72,8.81-2.72l-14.94-12.63-15.39-5.22s-4.11,11.18-9.49,11.15-13.81,10.9-14.74,16.49c-.92,5.59,5.94,8.19,0,11.13-5.94,2.94-4.02,10.47-6.56,15.67-2.33,4.78-9.91,.42-13.65,1.38-6.6,1.69-4.99,11.57-13.2,12.48-1.77,.2-3.57-.1-5.35,.03-1.61,.11-3.19,.58-4.6,1.35-.68,.37-1.34,.84-1.69,1.52-1.47,2.93,3.74,6.73,1.49,9.11-2.94,.31-5.34,2.38-8.07,3.52-6.31,2.63-13.4,.02-20.1-1.36-5.95-1.23-12.03-1.43-18.08-1.4-4.39,.02-9.63,.26-7.99,3.94,.12,.09,.25,.17,.37,.26,1.24,.89,2.17,2.18,2.69,3.62,.36,.39,.69,.81,.87,1.31,.35,1,.04,1.98-.54,2.88-.96,4.38-6.75,6.48-13.3,7.51-.05,.25-.04,.52,.08,.77-4.76,.89-9.64,.88-14.48,.87-1.84,0-3.77-.04-5.53-.5-7.99,.33-20.44,1.37-27.04-3.03-6.33-4.22-5.61-10.59-13.62-13.21-4.47-1.46-3.92-5.08-6.06-8.42-3.13-4.87-8.24-3.2-10.63-8.12-1.62-3.32-6.79-3.27-8.8-6.37-1.15-1.77-.93-4.07-.49-6.13,.1-.48,.23-.98,.58-1.32,.39-.37,.98-.46,1.41-.78,.89-.67,.78-2.01,1.12-3.07,1.01-3.05,5.2-3.42,6.52-6.2-6.5-4.85-16.7-7.76-15.39-18.21,.52-4.14-12.66-6.1-16.35-11.98-3.69-5.88-10.93,3.65-16.54-8.5-5.61-12.15-29.16-9.53-31.63-9.52-2.47,0-6.78,12.05-13.02,13.68-3.79,.99-1.22,5.16,1.37,8.96,.81-.21,1.71-.13,2.5,.29,.05,.02,.09,.05,.13,.08,1.07-.22,2.17-.28,3.23,.05,1.97,.61,3,2.34,3.66,4.17,.13,.37,.17,.75,.13,1.12,.51,.42,.86,1.04,1.06,1.64,.27,.83,.07,1.74-.33,2.49-.37,.7-1.18,1.28-1.93,1.48-.1,.03-.2,.03-.31,.05-.06,.05-.11,.11-.18,.16-1.1,.88-2.38,.8-3.59,.25-.45-.2-.88-.45-1.28-.72-.56,1.13-1.81,2.08-4.48,2.65-6.23,1.33-7.72,8.78-6.23,13.38,.18,.57,.19,1.08,.06,1.57,2.44,.04,4.91,.29,7.23,.34,6.32,.26,6.36,9.97,0,9.85-.33-.01-.66,0-.98,0-.56,1.38-1.74,2.5-3.25,3-1.45,.48-2.76,1.32-4.09,2.09,.42,3.9,1.24,8.53,.72,12.54,.67,.13,1.35,.34,1.86,.5,2.14,.7,3.95,2.28,4.87,4.31,.96-.6,2.15-.69,3.29-.08,.91,.48,1.49,1.54,1.58,2.6,.22,.05,.45,.11,.69,.2,.13-.07,.26-.14,.4-.19,.38-.2,.8-.3,1.24-.28,.45-.02,.86,.08,1.24,.28,.4,.13,.75,.35,1.04,.67,.14,.15,.26,.31,.39,.48,.14,.1,.27,.21,.41,.31,.4,.4,.68,.88,.83,1.43,.04,.29,.08,.57,.12,.86,.02,.44-.08,.86-.28,1.24-.13,.4-.35,.75-.67,1.04-.29,.32-.64,.54-1.04,.67-.39,.2-.8,.3-1.24,.28-.22,0-.42-.03-.62-.06-.42,.58-1,1.02-1.69,1.13-1.76,.29-3.73,.3-5.33-.45-.74,.16-1.5,.21-2.29,.11-.53-.07-1.04-.21-1.53-.38-1.09,.68-2.31,1.2-3.58,1.5,.25,3.43-.03,7-.16,10.31,.03,.4,.04,.8,.03,1.22,2.12,.68,4.13,2.1,6.12,3.54,.69,.51,1.21,1.19,1.45,1.95,.03,0,.05-.01,.08-.01,1.66-.07,2.86,.13,4.4,.84,1.92,.88,2.01,3.72,.65,5.07-.35,.35-.7,.67-1.05,.98-.06,1.36-.99,2.71-2.35,3.02-.49,.11-.93,.2-1.35,.25-1.13,.86-2.53,1.38-4.13,1.41-.07,0-.13,0-.19,0-.38,1.35-1.65,2.5-3.1,2.42-.24-.02-.48-.03-.73-.02,0,0-.02,0-.03,0,.11,.01-.65,.39-.39,.17-.32,.26-.41,.45-.81,1.01-1.12,1.56-2.22,3-3.94,3.93-.61,.33-1.2,.44-1.75,.4-1.16,1.61-2.25,3.78-2.25,3.78H377.23s.08-.38,.07-.92c-1.49-.65-2.72-1.59-3.34-2.93Z"/>
        <path class="cls-9" d="M373.96,311.12c-1.03-.25-1.52-.23-2.83-.41-.86-.12-1.65-.89-2.07-1.76-2.49-1.9-4.24-5.26-5.69-7.4-.98-.2-1.96-.45-2.93-.72-.02,0-.04-.02-.06-.02-1.49,.85-3.06,1.48-5.02,1.33-1.88-.15-3.94-1.98-3.12-4.09,.76-1.95,1.92-3.52,4.08-3.99,.8-.17,1.57-.11,2.37-.17,.05,0,.21,0,.32-.03,.02-.02,.04-.03,.05-.05-.08,0-.33,.16-.17-.1,.8-1.29,2.06-1.66,3.22-1.45,3.95-1.42,5.73-1.25,5.73-5.58,0-.59,.1-1.2,.27-1.83,0-.57,0-1.14,.03-1.72,.09-2,1.55-5.47,.7-6.88-.98-1.64-3.52-2.66-4.68-4.54-.07-.12-.12-.25-.18-.38-.92-.19-1.77-.67-2.46-1.32-.95,.26-2.01,.06-2.91-.87l-1.62-.29c-.5,.32-1.11,.45-1.73,.42-1.33,1.76-4.29,2.5-5.46,0-2.09-4.47-.94-10.39,5.16-9.61,.69,.09,1.42,.36,2.02,.79,1.04-.08,2.05,.02,3.07,.17,.74-.43,1.58-.68,2.43-.68h3.92c.02-.11,.04-.21,.06-.35,.24-1.63,.05-3.36,.04-5,0-2.38,.05-4.96,1.01-7.17-.12-.25-.23-.5-.34-.75-4.08-.81-11.38-.42-13.06-.84-1.06-.26-1.72-.87-2.05-1.61-.42-.39-.77-.88-1-1.44-.53-1.31-.77-2.61-.91-4.02-.1-1.01,.66-2.37,1.6-2.79,.5-.22,.99-.47,1.52-.61,.62-.7,1.34-1.19,2.13-1.6,.79-.9,1.96-1.51,3.52-1.51h.29c1.11-.44,2.22-.98,3.23-1.82,1.58-1.33,3.05-2.9,5.31-2.59,.04,0,.06,.02,.1,.02v-11.99c-6.2-.15-12.52-2.13-16.07-7.53-1.29-1.95-.14-3.73,1.54-4.41,.1-.41,.33-.7,.72-.82,1.58-.49,8.81-2.72,8.81-2.72l-14.94-12.63-15.39-5.22s-4.11,11.18-9.49,11.15-13.81,10.9-14.74,16.49c-.92,5.59,5.94,8.19,0,11.13-5.94,2.94-4.02,10.47-6.56,15.67-2.33,4.78-9.91,.42-13.65,1.38-6.6,1.69-4.99,11.57-13.2,12.48-1.77,.2-3.57-.1-5.35,.03-1.61,.11-3.19,.58-4.6,1.35-.68,.37-1.34,.84-1.69,1.52-1.47,2.93,3.74,6.73,1.49,9.11-2.94,.31-5.34,2.38-8.07,3.52-6.31,2.63-13.4,.02-20.1-1.36-5.95-1.23-12.03-1.43-18.08-1.4-4.39,.02-9.63,.26-7.99,3.94,.12,.09,.25,.17,.37,.26,1.24,.89,2.17,2.18,2.69,3.62,.36,.39,.69,.81,.87,1.31,.35,1,.04,1.98-.54,2.88-.96,4.38-6.75,6.48-13.3,7.51-.05,.25-.04,.52,.08,.77-4.76,.89-9.64,.88-14.48,.87-1.84,0-3.77-.04-5.53-.5-7.99,.33-20.44,1.37-27.04-3.03-6.33-4.22-5.61-10.59-13.62-13.21-4.47-1.46-3.92-5.08-6.06-8.42-3.13-4.87-8.24-3.2-10.63-8.12-1.62-3.32-6.79-3.27-8.8-6.37-1.15-1.77-.93-4.07-.49-6.13,.1-.48,.23-.98,.58-1.32,.39-.37,.98-.46,1.41-.78,.89-.67,.78-2.01,1.12-3.07,1.01-3.05,5.2-3.42,6.52-6.2-6.5-4.85-16.7-7.76-15.39-18.21,.52-4.14-12.66-6.1-16.35-11.98-3.69-5.88-10.93,3.65-16.54-8.5-5.61-12.15-29.16-9.53-31.63-9.52-2.47,0-6.78,12.05-13.02,13.68-3.79,.99-1.22,5.16,1.37,8.96,.81-.21,1.71-.13,2.5,.29,.05,.02,.09,.05,.13,.08,1.07-.22,2.17-.28,3.23,.05,1.97,.61,3,2.34,3.66,4.17,.13,.37,.17,.75,.13,1.12,.51,.42,.86,1.04,1.06,1.64,.27,.83,.07,1.74-.33,2.49-.37,.7-1.18,1.28-1.93,1.48-.1,.03-.2,.03-.31,.05-.06,.05-.11,.11-.18,.16-1.1,.88-2.38,.8-3.59,.25-.45-.2-.88-.45-1.28-.72-.56,1.13-1.81,2.08-4.48,2.65-6.23,1.33-7.72,8.78-6.23,13.38,.18,.57,.19,1.08,.06,1.57,2.44,.04,4.91,.29,7.23,.34,6.32,.26,6.36,9.97,0,9.85-.33-.01-.66,0-.98,0-.56,1.38-1.74,2.5-3.25,3-1.45,.48-2.76,1.32-4.09,2.09,.42,3.9,1.24,8.53,.72,12.54,.67,.13,1.35,.34,1.86,.5,2.14,.7,3.95,2.28,4.87,4.31,.96-.6,2.15-.69,3.29-.08,.91,.48,1.49,1.54,1.58,2.6,.22,.05,.45,.11,.69,.2,.13-.07,.26-.14,.4-.19,.38-.2,.8-.3,1.24-.28,.45-.02,.86,.08,1.24,.28,.4,.13,.75,.35,1.04,.67,.14,.15,.26,.31,.39,.48,.14,.1,.27,.21,.41,.31,.4,.4,.68,.88,.83,1.43,.04,.29,.08,.57,.12,.86,.02,.44-.08,.86-.28,1.24-.13,.4-.35,.75-.67,1.04-.29,.32-.64,.54-1.04,.67-.39,.2-.8,.3-1.24,.28-.22,0-.42-.03-.62-.06-.42,.58-1,1.02-1.69,1.13-1.76,.29-3.73,.3-5.33-.45-.74,.16-1.5,.21-2.29,.11-.53-.07-1.04-.21-1.53-.38-1.09,.68-2.31,1.2-3.58,1.5,.25,3.43-.03,7-.16,10.31,.03,.4,.04,.8,.03,1.22,2.12,.68,4.13,2.1,6.12,3.54,.69,.51,1.21,1.19,1.45,1.95,.03,0,.05-.01,.08-.01,1.66-.07,2.86,.13,4.4,.84,1.92,.88,2.01,3.72,.65,5.07-.35,.35-.7,.67-1.05,.98-.06,1.36-.99,2.71-2.35,3.02-.49,.11-.93,.2-1.35,.25-1.13,.86-2.53,1.38-4.13,1.41-.07,0-.13,0-.19,0-.38,1.35-1.65,2.5-3.1,2.42-.24-.02-.48-.03-.73-.02,0,0-.02,0-.03,0,.11,.01-.65,.39-.39,.17-.32,.26-.41,.45-.81,1.01-1.12,1.56-2.22,3-3.94,3.93-.61,.33-1.2,.44-1.75,.4-1.16,1.61-2.25,3.78-2.25,3.78H377.23s.08-.38,.07-.92c-1.49-.65-2.72-1.59-3.34-2.93Z"/>
      </g>
      <g>
        <rect class="cls-24" x="332.52" y="303.38" width="35.34" height="12.05"/>
        <rect class="cls-24" x="294.02" y="303.38" width="35.34" height="12.05"/>
        <rect class="cls-24" x="255.51" y="303.38" width="35.34" height="12.05"/>
        <rect class="cls-24" x="217.01" y="303.38" width="35.34" height="12.05"/>
        <rect class="cls-24" x="178.5" y="303.38" width="35.34" height="12.05"/>
        <rect class="cls-24" x="139.99" y="303.38" width="35.34" height="12.05"/>
        <rect class="cls-24" x="101.49" y="303.38" width="35.34" height="12.05"/>
        <rect class="cls-24" x="62.98" y="303.38" width="35.34" height="12.05"/>
        <rect class="cls-24" x="24.48" y="303.38" width="35.34" height="12.05"/>
        <rect class="cls-24" x="332.52" y="274.63" width="35.34" height="12.05"/>
        <rect class="cls-24" x="294.02" y="274.63" width="35.34" height="12.05"/>
        <rect class="cls-24" x="255.51" y="274.63" width="35.34" height="12.05"/>
        <rect class="cls-24" x="217.01" y="274.63" width="35.34" height="12.05"/>
        <rect class="cls-24" x="139.99" y="274.63" width="35.34" height="12.05"/>
        <rect class="cls-24" x="101.49" y="274.63" width="35.34" height="12.05"/>
        <rect class="cls-24" x="62.98" y="274.63" width="35.34" height="12.05"/>
        <rect class="cls-24" x="24.48" y="274.63" width="35.34" height="12.05"/>
        <rect class="cls-24" x="332.52" y="245.87" width="35.34" height="12.05"/>
        <rect class="cls-24" x="294.02" y="245.87" width="35.34" height="12.05"/>
        <rect class="cls-24" x="255.51" y="245.87" width="35.34" height="12.05"/>
        <rect class="cls-24" x="101.49" y="245.87" width="35.34" height="12.05"/>
        <rect class="cls-24" x="62.98" y="245.87" width="35.34" height="12.05"/>
        <rect class="cls-24" x="24.48" y="245.87" width="35.34" height="12.05"/>
        <rect class="cls-24" x="332.52" y="217.11" width="35.34" height="12.05"/>
        <rect class="cls-24" x="294.02" y="217.11" width="35.34" height="12.05"/>
        <rect class="cls-24" x="113.14" y="205.47" width="12.05" height="35.34" transform="translate(-122 299.48) rotate(-79.46)"/>
        <rect class="cls-24" x="62.98" y="217.11" width="35.34" height="12.05"/>
        <rect class="cls-24" x="24.48" y="217.11" width="35.34" height="12.05"/>
        <rect class="cls-24" x="313.27" y="289" width="35.34" height="12.05"/>
        <rect class="cls-24" x="274.76" y="289" width="35.34" height="12.05"/>
        <rect class="cls-24" x="236.26" y="289" width="35.34" height="12.05"/>
        <rect class="cls-24" x="197.75" y="289" width="35.34" height="12.05"/>
        <rect class="cls-24" x="159.25" y="289" width="35.34" height="12.05"/>
        <rect class="cls-24" x="120.74" y="289" width="35.34" height="12.05"/>
        <rect class="cls-24" x="82.24" y="289" width="35.34" height="12.05"/>
        <rect class="cls-24" x="43.73" y="289" width="35.34" height="12.05"/>
        <rect class="cls-24" x="313.27" y="260.25" width="35.34" height="12.05"/>
        <rect class="cls-24" x="274.76" y="260.25" width="35.34" height="12.05"/>
        <rect class="cls-24" x="236.26" y="260.25" width="35.34" height="12.05"/>
        <rect class="cls-24" x="197.75" y="260.25" width="35.34" height="12.05"/>
        <rect class="cls-24" x="120.74" y="260.25" width="35.34" height="12.05"/>
        <rect class="cls-24" x="82.24" y="260.25" width="35.34" height="12.05"/>
        <rect class="cls-24" x="43.73" y="260.25" width="35.34" height="12.05"/>
        <rect class="cls-24" x="313.27" y="231.49" width="35.34" height="12.05"/>
        <rect class="cls-24" x="274.76" y="231.49" width="35.34" height="12.05"/>
        <rect class="cls-24" x="82.24" y="231.49" width="35.34" height="12.05"/>
        <rect class="cls-24" x="43.73" y="231.49" width="35.34" height="12.05"/>
        <rect class="cls-24" x="327.52" y="188.36" width="35.34" height="12.05"/>
        <rect class="cls-24" x="290.32" y="194.72" width="35.34" height="12.05" transform="translate(-58.67 227.52) rotate(-37.27)"/>
        <rect class="cls-24" x="62.98" y="188.36" width="35.34" height="12.05"/>
        <rect class="cls-24" x="24.48" y="188.36" width="35.34" height="12.05"/>
        <rect class="cls-24" x="313.27" y="202.73" width="35.34" height="12.05"/>
        <rect class="cls-24" x="82.24" y="202.73" width="35.34" height="12.05" transform="translate(-18.58 9.95) rotate(-5.22)"/>
        <rect class="cls-24" x="43.73" y="202.73" width="35.34" height="12.05"/>
        <rect class="cls-24" x="324.92" y="162.33" width="12.05" height="35.34" transform="translate(118.57 491.16) rotate(-84.23)"/>
        <rect class="cls-24" x="43.73" y="173.98" width="35.34" height="12.05"/>
        <g class="cls-13">
          <rect class="cls-7" x="332.52" y="303.38" width="35.34" height="12.05"/>
          <rect class="cls-7" x="294.02" y="303.38" width="35.34" height="12.05"/>
          <rect class="cls-7" x="255.51" y="303.38" width="35.34" height="12.05"/>
          <rect class="cls-7" x="217.01" y="303.38" width="35.34" height="12.05"/>
          <rect class="cls-7" x="178.5" y="303.38" width="35.34" height="12.05"/>
          <rect class="cls-7" x="139.99" y="303.38" width="35.34" height="12.05"/>
          <rect class="cls-7" x="101.49" y="303.38" width="35.34" height="12.05"/>
          <rect class="cls-7" x="62.98" y="303.38" width="35.34" height="12.05"/>
          <rect class="cls-7" x="24.48" y="303.38" width="35.34" height="12.05"/>
          <rect class="cls-7" x="332.52" y="274.63" width="35.34" height="12.05"/>
          <rect class="cls-7" x="294.02" y="274.63" width="35.34" height="12.05"/>
          <rect class="cls-7" x="255.51" y="274.63" width="35.34" height="12.05"/>
          <rect class="cls-7" x="217.01" y="274.63" width="35.34" height="12.05"/>
          <rect class="cls-7" x="139.99" y="274.63" width="35.34" height="12.05"/>
          <rect class="cls-7" x="101.49" y="274.63" width="35.34" height="12.05"/>
          <rect class="cls-7" x="62.98" y="274.63" width="35.34" height="12.05"/>
          <rect class="cls-7" x="24.48" y="274.63" width="35.34" height="12.05"/>
          <rect class="cls-7" x="332.52" y="245.87" width="35.34" height="12.05"/>
          <rect class="cls-7" x="294.02" y="245.87" width="35.34" height="12.05"/>
          <rect class="cls-7" x="255.51" y="245.87" width="35.34" height="12.05"/>
          <rect class="cls-7" x="101.49" y="245.87" width="35.34" height="12.05"/>
          <rect class="cls-7" x="62.98" y="245.87" width="35.34" height="12.05"/>
          <rect class="cls-7" x="24.48" y="245.87" width="35.34" height="12.05"/>
          <rect class="cls-7" x="332.52" y="217.11" width="35.34" height="12.05"/>
          <rect class="cls-7" x="294.02" y="217.11" width="35.34" height="12.05"/>
          <rect class="cls-7" x="113.14" y="205.47" width="12.05" height="35.34" transform="translate(-122 299.48) rotate(-79.46)"/>
          <rect class="cls-7" x="62.98" y="217.11" width="35.34" height="12.05"/>
          <rect class="cls-7" x="24.48" y="217.11" width="35.34" height="12.05"/>
          <rect class="cls-7" x="313.27" y="289" width="35.34" height="12.05"/>
          <rect class="cls-7" x="274.76" y="289" width="35.34" height="12.05"/>
          <rect class="cls-7" x="236.26" y="289" width="35.34" height="12.05"/>
          <rect class="cls-7" x="197.75" y="289" width="35.34" height="12.05"/>
          <rect class="cls-7" x="159.25" y="289" width="35.34" height="12.05"/>
          <rect class="cls-7" x="120.74" y="289" width="35.34" height="12.05"/>
          <rect class="cls-7" x="82.24" y="289" width="35.34" height="12.05"/>
          <rect class="cls-7" x="43.73" y="289" width="35.34" height="12.05"/>
          <rect class="cls-7" x="313.27" y="260.25" width="35.34" height="12.05"/>
          <rect class="cls-7" x="274.76" y="260.25" width="35.34" height="12.05"/>
          <rect class="cls-7" x="236.26" y="260.25" width="35.34" height="12.05"/>
          <rect class="cls-7" x="197.75" y="260.25" width="35.34" height="12.05"/>
          <rect class="cls-7" x="120.74" y="260.25" width="35.34" height="12.05"/>
          <rect class="cls-7" x="82.24" y="260.25" width="35.34" height="12.05"/>
          <rect class="cls-7" x="43.73" y="260.25" width="35.34" height="12.05"/>
          <rect class="cls-7" x="313.27" y="231.49" width="35.34" height="12.05"/>
          <rect class="cls-7" x="274.76" y="231.49" width="35.34" height="12.05"/>
          <rect class="cls-7" x="82.24" y="231.49" width="35.34" height="12.05"/>
          <rect class="cls-7" x="43.73" y="231.49" width="35.34" height="12.05"/>
          <rect class="cls-7" x="327.52" y="188.36" width="35.34" height="12.05"/>
          <rect class="cls-7" x="290.32" y="194.72" width="35.34" height="12.05" transform="translate(-58.67 227.52) rotate(-37.27)"/>
          <rect class="cls-7" x="62.98" y="188.36" width="35.34" height="12.05"/>
          <rect class="cls-7" x="24.48" y="188.36" width="35.34" height="12.05"/>
          <rect class="cls-7" x="313.27" y="202.73" width="35.34" height="12.05"/>
          <rect class="cls-7" x="82.24" y="202.73" width="35.34" height="12.05" transform="translate(-18.58 9.95) rotate(-5.22)"/>
          <rect class="cls-7" x="43.73" y="202.73" width="35.34" height="12.05"/>
          <rect class="cls-7" x="324.92" y="162.33" width="12.05" height="35.34" transform="translate(118.57 491.16) rotate(-84.23)"/>
          <rect class="cls-7" x="43.73" y="173.98" width="35.34" height="12.05"/>
        </g>
      </g>
      <g>
        <path class="cls-24" d="M243.37,317.71c-.67-.79-1.69-1.76-2.95-2.17-2.29-.74-2.19-3.12-4.46-4.14-2.27-1.02-3.51,.1-10.46-.24-6.95-.34-2.79-1.02-11.48-2.78-8.69-1.76-3.67-.07-7.29-.82-3.62-.75-5.85-.89-9.17-1.92s-6.14-1.65-9.04-4.63c-2.89-2.98-5.79-1.26-8.42-1-2.63,.27-7.1,.96-19.2,2.72-12.1,1.76-3.68,3.34-6.84,5.99-3.16,2.64-8.68-.53-11.31,1.27-2.63,1.8-9.21,4.01-13.24,3.81-3.26-.15-4.86,2.79-5.36,3.92h119.22Z"/>
        <path class="cls-10" d="M243.37,317.71c-.67-.79-1.69-1.76-2.95-2.17-2.29-.74-2.19-3.12-4.46-4.14-2.27-1.02-3.51,.1-10.46-.24-6.95-.34-2.79-1.02-11.48-2.78-8.69-1.76-3.67-.07-7.29-.82-3.62-.75-5.85-.89-9.17-1.92s-6.14-1.65-9.04-4.63c-2.89-2.98-5.79-1.26-8.42-1-2.63,.27-7.1,.96-19.2,2.72-12.1,1.76-3.68,3.34-6.84,5.99-3.16,2.64-8.68-.53-11.31,1.27-2.63,1.8-9.21,4.01-13.24,3.81-3.26-.15-4.86,2.79-5.36,3.92h119.22Z"/>
        <g>
          <polygon class="cls-24" points="156.08 304.54 160.86 311.58 193.12 303.71 188.16 296.63 156.08 304.54"/>
          <polygon class="cls-9" points="156.08 304.54 160.86 311.58 193.12 303.71 188.16 296.63 156.08 304.54"/>
        </g>
      </g>
      <polygon class="cls-24" points="188.82 311.58 197.75 303.65 202.76 306.58 209.32 307.46 201.09 315.91 188.82 311.58"/>
      <polygon class="cls-9" points="188.82 311.58 197.75 303.65 202.76 306.58 209.32 307.46 201.09 315.91 188.82 311.58"/>
      <path class="cls-24" d="M116.59,317.71c-1.26-1.25-3.37-3.24-4.32-3.4-1.38-.24-1.98-.36-4.35,0-2.37,.36-2.18-1.94-4.35-2.73-2.18-.79-6.33-2.37-8.7-3.36-2.37-.99-3.76,0-5.34,.86-1.58,.86-4.75,.33-8.87,2.5-4.12,2.18-7.35,3.85-10.12,4.33-1.54,.27-3.26,1.11-4.49,1.8h50.54Z"/>
      <path class="cls-10" d="M116.59,317.71c-1.26-1.25-3.37-3.24-4.32-3.4-1.38-.24-1.98-.36-4.35,0-2.37,.36-2.18-1.94-4.35-2.73-2.18-.79-6.33-2.37-8.7-3.36-2.37-.99-3.76,0-5.34,.86-1.58,.86-4.75,.33-8.87,2.5-4.12,2.18-7.35,3.85-10.12,4.33-1.54,.27-3.26,1.11-4.49,1.8h50.54Z"/>
    </g>
  </g>
  <g id="Speech_bubble" data-name="Speech bubble">
    <g>
      <path class="cls-16" d="M276.96,70.15h42.74c4.89,0,8.85,3.96,8.85,8.85v15c0,4.89-3.96,8.85-8.85,8.85h-28.4l-12.98,13.9,7.03-13.9h-8.39c-4.89,0-8.85-3.96-8.85-8.85v-15c0-4.89,3.96-8.85,8.85-8.85Z"/>
      <g>
        <path class="cls-1" d="M279.05,85.67c0-2.79,2.15-4.88,5.08-4.88s5.06,2.07,5.06,4.88-2.15,4.88-5.06,4.88-5.08-2.08-5.08-4.88Zm8.78,0c0-2.11-1.58-3.67-3.69-3.67s-3.72,1.55-3.72,3.67,1.58,3.67,3.72,3.67,3.69-1.55,3.69-3.67Z"/>
        <path class="cls-1" d="M290.41,86.83c0-2.15,1.59-3.68,3.76-3.68s3.75,1.53,3.75,3.68-1.58,3.69-3.75,3.69-3.76-1.54-3.76-3.69Zm6.19,0c0-1.54-1.04-2.53-2.43-2.53s-2.44,.99-2.44,2.53,1.05,2.55,2.44,2.55,2.43-1.01,2.43-2.55Z"/>
        <path class="cls-1" d="M307.21,86.83c0,2.22-1.54,3.69-3.65,3.69-1.02,0-1.92-.39-2.52-1.17v3.73h-1.31v-9.87h1.25v1.14c.59-.8,1.51-1.21,2.58-1.21,2.11,0,3.65,1.47,3.65,3.68Zm-1.32,0c0-1.53-1.05-2.53-2.44-2.53s-2.43,1.01-2.43,2.53,1.05,2.55,2.43,2.55,2.44-1.01,2.44-2.55Z"/>
        <path class="cls-1" d="M308.11,89.68l.54-1.04c.61,.44,1.59,.75,2.53,.75,1.21,0,1.72-.37,1.72-.98,0-1.62-4.56-.22-4.56-3.09,0-1.29,1.16-2.17,3.01-2.17,.94,0,2,.25,2.63,.65l-.56,1.04c-.65-.42-1.38-.57-2.08-.57-1.15,0-1.7,.42-1.7,1,0,1.7,4.58,.31,4.58,3.12,0,1.31-1.2,2.14-3.12,2.14-1.2,0-2.38-.37-2.98-.84Z"/>
        <path class="cls-1" d="M315.55,89.65c0-.49,.38-.87,.9-.87s.87,.38,.87,.87-.37,.87-.87,.87-.9-.39-.9-.87Zm.12-8.75h1.54l-.26,6.53h-1.04l-.25-6.53Z"/>
      </g>
    </g>
  </g>
  <g id="Character">
    <g>
      <g>
        <path class="cls-1" d="M203.03,192.39c.39,.41-.85,2.25-2.78,4.11s-3.82,3.04-4.21,2.63c-.39-.41,.85-2.25,2.78-4.11s3.82-3.04,4.21-2.63Z"/>
        <path class="cls-16" d="M205.55,197.03l22.18,22.99c.48,.5,.47,1.29-.03,1.78l-3.15,3.04c-.5,.49-1.3,.46-1.78-.03l-22.18-22.99,4.96-4.79Z"/>
        <polygon class="cls-16" points="206.57 198.15 203.66 192.68 196.31 199.78 201.67 202.87 206.57 198.15"/>
        <polygon class="cls-12" points="206.57 198.15 203.66 192.68 196.31 199.78 201.67 202.87 206.57 198.15"/>
        <rect class="cls-16" x="194.5" y="195.39" width="10.99" height="1.71" rx=".34" ry=".34" transform="translate(-80.19 193.89) rotate(-43.98)"/>
        <path class="cls-12" d="M227.42,219.7l.31,.32c.48,.5,.47,1.29-.03,1.78l-3.15,3.04c-.5,.49-1.3,.46-1.78-.03l-.31-.32,4.96-4.79Z"/>
        <path class="cls-12" d="M210.45,207.08h0c-.27,.26-.71,.25-.97-.02l-3.46-3.59c-.26-.27-.25-.71,.02-.97h0c.27-.26,.71-.25,.97,.02l3.46,3.59c.26,.27,.25,.71-.02,.97Z"/>
      </g>
      <path class="cls-23" d="M295.02,162.51c.76,.52,1.25,.87,1.83,1.3l1.64,1.27c1.05,.87,2.1,1.73,3.09,2.64,2.01,1.8,3.91,3.69,5.75,5.62,1.82,1.96,3.6,3.93,5.26,6.01l1.31,1.62c.5,.6,.94,1.21,1.38,1.82,.86,1.22,1.63,2.47,2.32,3.71,1.4,2.49,2.55,4.98,3.55,7.51,1.02,2.52,1.88,5.05,2.63,7.6,1.51,5.11,2.66,10.17,3.38,15.49l-6.37,1.56c-1.82-4.57-3.78-9.24-5.88-13.67-2.12-4.42-4.38-8.76-6.98-12.47-.64-.93-1.33-1.79-2-2.61-.69-.82-1.31-1.45-2.27-2.37-1.78-1.69-3.55-3.38-5.37-5-1.8-1.64-3.63-3.24-5.46-4.79-.92-.77-1.83-1.55-2.75-2.29l-1.36-1.1-1.23-.98,7.55-10.88Z"/>
      <g>
        <path class="cls-16" d="M287.2,158.1c11.02-.15,20.41,14.24,20.41,14.24l-11.1,11.72s-11.82-6.74-18.3-12.47c-8-7.07,.6-13.38,8.99-13.49Z"/>
        <g>
          <rect class="cls-2" x="301.13" y="163.87" width=".53" height="4.19" transform="translate(-14.8 301.64) rotate(-52.06)"/>
          <path class="cls-2" d="M294.38,160.15l-.76-.59c-.57-.26-1.16-.49-1.75-.69l2.19,1.7,.33-.42Z"/>
          <path class="cls-2" d="M305.48,169.49c-.14-.17-.28-.35-.44-.53l-.09,.12,.53,.41Z"/>
          <rect class="cls-2" x="297.53" y="161.23" width=".53" height="3.87" transform="translate(-13.97 297.72) rotate(-52.06)"/>
          <path class="cls-2" d="M278.61,162.15l-1.08-.84c-.14,.12-.28,.24-.41,.36l1.16,.9,.33-.42Z"/>
          <rect class="cls-2" x="290.61" y="170.11" width=".53" height="3.87" transform="translate(-23.61 295.78) rotate(-52.08)"/>
          <rect class="cls-2" x="281.75" y="163.23" width=".53" height="3.82" transform="translate(-21.61 286.03) rotate(-52.06)"/>
          <rect class="cls-2" x="294.21" y="172.76" width=".53" height="4.19" transform="translate(-24.45 299.65) rotate(-52.07)"/>
          <rect class="cls-2" x="285.35" y="165.82" width=".53" height="4.24" transform="translate(-22.42 289.99) rotate(-52.07)"/>
          <polygon class="cls-2" points="298.03 177.96 300.48 179.87 300.85 179.48 298.36 177.54 298.03 177.96"/>
          <rect class="cls-11" x="293.08" y="165.61" width="2.62" height="3.87" transform="translate(-18.72 296.75) rotate(-52.07)"/>
          <rect class="cls-11" x="284.22" y="158.73" width="2.62" height="3.82" transform="translate(-16.69 287.11) rotate(-52.07)"/>
          <rect class="cls-11" x="287.82" y="161.32" width="2.62" height="4.24" transform="translate(-17.52 291.02) rotate(-52.07)"/>
          <polygon class="cls-11" points="300.9 174.27 303.71 176.46 305.51 174.55 302.51 172.21 300.9 174.27"/>
          <rect class="cls-11" x="296.68" y="168.25" width="2.62" height="4.19" transform="translate(-19.55 300.68) rotate(-52.07)"/>
          <rect class="cls-11" x="277.33" y="167.57" width="2.62" height="3.82" transform="translate(-26.31 285.09) rotate(-52.07)"/>
          <rect class="cls-11" x="286.19" y="174.45" width="2.62" height="3.87" transform="translate(-28.35 294.74) rotate(-52.07)"/>
          <path class="cls-11" d="M275.11,165.07c-.09,.52-.11,1.05-.03,1.6l.79-1.01-.76-.59Z"/>
          <path class="cls-11" d="M294.29,182.76c1.37,.82,2.22,1.31,2.22,1.31l1.26-1.33-2.15-1.68-1.33,1.71Z"/>
          <path class="cls-11" d="M290.25,176.87l-1.61,2.06,2.18,1.7c.42,.26,.83,.52,1.21,.76l1.52-1.95-3.3-2.57Z"/>
          <rect class="cls-11" x="280.93" y="170.16" width="2.62" height="4.24" transform="translate(-27.14 289) rotate(-52.07)"/>
          <path class="cls-5" d="M276.03,169.1c.07,.11,.14,.22,.22,.33l.08-.1-.3-.23Z"/>
          <path class="cls-5" d="M284.94,158.28c-.08,.01-.17,.03-.25,.04l.14,.11,.11-.15Z"/>
          <path class="cls-5" d="M280.67,163.76l2.54-3.26-1.74-1.35c-.26,.09-.51,.19-.76,.29l-2.12,2.72,2.06,1.61Z"/>
          <rect class="cls-5" x="276.15" y="163.61" width="3.92" height="2.62" transform="translate(-22.92 282.92) rotate(-52.07)"/>
          <rect class="cls-2" x="279.21" y="161.86" width=".53" height="2.62" transform="translate(-21.01 283.31) rotate(-52.07)"/>
          <rect class="cls-5" x="279.21" y="161.86" width=".53" height="2.62" transform="translate(-21.01 283.31) rotate(-52.07)"/>
          <path class="cls-11" d="M284.82,158.43l-.14-.11c-1.11,.17-2.19,.45-3.21,.82l1.74,1.35,1.61-2.06Z"/>
          <path class="cls-5" d="M284.82,158.43l-.14-.11c-1.11,.17-2.19,.45-3.21,.82l1.74,1.35,1.61-2.06Z"/>
          <path class="cls-11" d="M276.33,169.33l1.61-2.06-2.06-1.61-.79,1.01c.12,.78,.42,1.6,.94,2.43l.3,.23Z"/>
          <path class="cls-5" d="M276.33,169.33l1.61-2.06-2.06-1.61-.79,1.01c.12,.78,.42,1.6,.94,2.43l.3,.23Z"/>
          <rect class="cls-5" x="284.99" y="170.5" width="3.92" height="2.62" transform="translate(-24.95 292.54) rotate(-52.07)"/>
          <path class="cls-5" d="M296.44,161.76l.35-.44c-.74-.48-1.5-.93-2.28-1.33l-.13,.17,2.06,1.61Z"/>
          <rect class="cls-5" x="291.87" y="161.64" width="3.98" height="2.62" transform="translate(-15.31 294.55) rotate(-52.07)"/>
          <rect class="cls-5" x="287.69" y="166.9" width="4.14" height="2.62" transform="translate(-21.04 293.36) rotate(-52.07)"/>
          <path class="cls-5" d="M283.1,174.62l-.42,.54c.7,.51,1.41,1.02,2.13,1.52l.35-.45-2.06-1.61Z"/>
          <rect class="cls-2" x="294.98" y="159.86" width=".53" height="2.62" transform="translate(-13.37 294.98) rotate(-52.07)"/>
          <rect class="cls-5" x="294.98" y="159.86" width=".53" height="2.62" transform="translate(-13.37 294.98) rotate(-52.07)"/>
          <rect class="cls-2" x="288.05" y="168.75" width=".53" height="2.62" transform="translate(-23.02 292.99) rotate(-52.08)"/>
          <rect class="cls-5" x="288.05" y="168.75" width=".53" height="2.62" transform="translate(-23.02 292.99) rotate(-52.08)"/>
          <rect class="cls-11" x="290.52" y="164.24" width="2.62" height="2.62" transform="translate(-18.13 293.98) rotate(-52.07)"/>
          <rect class="cls-5" x="290.52" y="164.24" width="2.62" height="2.62" transform="translate(-18.13 293.98) rotate(-52.07)"/>
          <rect class="cls-11" x="283.63" y="173.08" width="2.62" height="2.62" transform="translate(-27.76 291.95) rotate(-52.07)"/>
          <rect class="cls-5" x="283.63" y="173.08" width="2.62" height="2.62" transform="translate(-27.76 291.95) rotate(-52.07)"/>
          <path class="cls-5" d="M303.75,167.46c-.15-.17-.31-.34-.46-.51l-.07,.09,.53,.42Z"/>
          <rect class="cls-5" x="300.71" y="168.53" width="3.98" height="2.62" transform="translate(-17.32 304.22) rotate(-52.07)"/>
          <rect class="cls-5" x="293.83" y="177.39" width="3.92" height="2.62" transform="translate(-26.99 302.15) rotate(-52.07)"/>
          <rect class="cls-5" x="296.53" y="173.79" width="4.14" height="2.62" transform="translate(-23.06 302.99) rotate(-52.07)"/>
          <path class="cls-2" d="M302.89,167.47l2.06,1.61,.09-.12c-.39-.47-.83-.97-1.29-1.49l-.53-.42-.33,.42Z"/>
          <path class="cls-5" d="M302.89,167.47l2.06,1.61,.09-.12c-.39-.47-.83-.97-1.29-1.49l-.53-.42-.33,.42Z"/>
          <rect class="cls-2" x="296.89" y="175.64" width=".53" height="2.62" transform="translate(-25.08 302.55) rotate(-52.07)"/>
          <rect class="cls-5" x="296.89" y="175.64" width=".53" height="2.62" transform="translate(-25.08 302.55) rotate(-52.07)"/>
          <rect class="cls-11" x="299.36" y="171.13" width="2.62" height="2.62" transform="translate(-20.16 303.61) rotate(-52.07)"/>
          <rect class="cls-5" x="299.36" y="171.13" width="2.62" height="2.62" transform="translate(-20.16 303.61) rotate(-52.07)"/>
          <path class="cls-11" d="M293.55,179.44l-1.52,1.95c.84,.52,1.6,.98,2.25,1.37l1.33-1.71-2.06-1.61Z"/>
          <path class="cls-5" d="M293.55,179.44l-1.52,1.95c.84,.52,1.6,.98,2.25,1.37l1.33-1.71-2.06-1.61Z"/>
          <path class="cls-15" d="M279.34,171.68l-.41,.53c.13,.11,.27,.23,.41,.34l.43-.55-.42-.33Z"/>
          <rect class="cls-15" x="283.1" y="164.37" width="4.14" height=".53" transform="translate(-19.98 288.37) rotate(-52.07)"/>
          <rect class="cls-15" x="280.4" y="167.97" width="3.92" height=".53" transform="translate(-23.9 287.54) rotate(-52.07)"/>
          <path class="cls-15" d="M288.26,161.1l2.07-2.66c-.2-.04-.39-.08-.59-.11l-1.91,2.45,.42,.33Z"/>
          <rect class="cls-2" x="283.46" y="166.21" width=".53" height=".53" transform="translate(-21.99 287.95) rotate(-52.07)"/>
          <rect class="cls-15" x="283.46" y="166.21" width=".53" height=".53" transform="translate(-21.99 287.95) rotate(-52.07)"/>
          <rect class="cls-11" x="285.93" y="161.7" width="2.62" height=".53" transform="translate(-17.08 288.98) rotate(-52.07)"/>
          <rect class="cls-15" x="285.93" y="161.7" width="2.62" height=".53" transform="translate(-17.08 288.98) rotate(-52.07)"/>
          <rect class="cls-11" x="279.04" y="170.54" width="2.62" height=".53" transform="translate(-26.71 286.95) rotate(-52.07)"/>
          <rect class="cls-15" x="279.04" y="170.54" width="2.62" height=".53" transform="translate(-26.71 286.95) rotate(-52.07)"/>
          <rect class="cls-15" x="289.28" y="174.89" width="3.92" height=".53" transform="translate(-25.94 297.22) rotate(-52.07)"/>
          <path class="cls-15" d="M299.91,164.47l.36-.46c-.13-.12-.27-.23-.4-.35l-.38,.48,.42,.33Z"/>
          <path class="cls-15" d="M288.22,178.6l-.19,.24c.15,.1,.3,.2,.45,.29l.16-.2-.42-.33Z"/>
          <rect class="cls-15" x="296.16" y="166.03" width="3.98" height=".53" transform="translate(-16.29 299.24) rotate(-52.07)"/>
          <rect class="cls-15" x="291.98" y="171.29" width="4.14" height=".53" transform="translate(-22.02 298.05) rotate(-52.07)"/>
          <rect class="cls-2" x="299.27" y="164.25" width=".53" height=".53" transform="translate(-14.35 299.65) rotate(-52.07)"/>
          <rect class="cls-15" x="299.27" y="164.25" width=".53" height=".53" transform="translate(-14.35 299.65) rotate(-52.07)"/>
          <rect class="cls-2" x="292.35" y="173.13" width=".53" height=".53" transform="translate(-24.06 297.53) rotate(-52.05)"/>
          <rect class="cls-15" x="292.35" y="173.13" width=".53" height=".53" transform="translate(-24.06 297.53) rotate(-52.05)"/>
          <rect class="cls-11" x="294.82" y="168.63" width="2.62" height=".53" transform="translate(-19.12 298.66) rotate(-52.07)"/>
          <rect class="cls-15" x="294.82" y="168.63" width="2.62" height=".53" transform="translate(-19.12 298.66) rotate(-52.07)"/>
          <rect class="cls-11" x="287.93" y="177.47" width="2.62" height=".53" transform="translate(-28.76 296.59) rotate(-52.06)"/>
          <rect class="cls-15" x="287.93" y="177.47" width="2.62" height=".53" transform="translate(-28.76 296.59) rotate(-52.06)"/>
          <path class="cls-15" d="M307.61,172.34s-.04-.06-.1-.16l-1.17,1.5,1.27-1.34Z"/>
        </g>
      </g>
      <polygon class="cls-16" points="294.48 183.58 306.07 168.6 308.85 171.74 296.76 185.37 294.48 183.58"/>
      <polygon class="cls-5" points="308.85 171.74 304.52 176.62 297.11 184.97 296.76 185.37 294.48 183.58 294.62 183.41 294.86 183.1 302.07 173.78 305.44 169.43 306.08 168.6 308.85 171.74"/>
      <path class="cls-12" d="M304.52,176.62l-7.41,8.35c-.87-.4-1.71-.93-2.48-1.57-.43-.35-.82-.74-1.19-1.16-2.51-2.88-3.7-7.43-1.2-13.64,0,0,5.69,1.43,9.83,5.18,.76,.67,1.44,1.43,2.05,2.26,.14,.19,.28,.39,.41,.59Z"/>
      <g>
        <path class="cls-24" d="M249.21,139.63c-.06,.63-.52,1.08-.93,1.01-.41-.07-.66-.64-.56-1.26,.1-.63,.52-1.08,.93-1.01,.41,.07,.66,.67,.56,1.26Z"/>
        <path class="cls-19" d="M249.61,140.29c-1.06,1.8-2.37,3.45-3.89,4.89,.77,.77,1.85,1.16,2.93,1.06l.96-5.95Z"/>
        <path class="cls-24" d="M249.03,135.85s0,0,0,0c-.2-.02-.39,.13-.4,.34,0,.08,.04,.15,.09,.2,.04,.1,.13,.18,.24,.21,.95,.07,1.81,.59,2.32,1.39,.1,.18,.32,.25,.5,.16,0,0,0,0,0,0,.18-.09,.25-.32,.16-.5-.62-1.04-1.7-1.71-2.91-1.81Z"/>
        <path class="cls-23" d="M248.22,149.07c.06,.4,.12,.79,.22,1.17,.53,2.28,1.74,4.25,3.35,5.71,.42,.39,.87,.74,1.34,1.06,2.5,1.67,5.62,2.28,8.61,1.36,1.22-.36,2.43-.99,3.56-1.91,4.46-3.59,4.88-8.26,6.23-16.11,.32-1.69,.24-3.42-.24-5.06-1.67-5.78-7.71-9.1-13.47-7.43-8.1,2.28-10.5,13.91-9.59,21.21Z"/>
        <path class="cls-12" d="M251.79,155.95c.42,.39,.87,.74,1.34,1.06,2.5,1.67,5.62,2.28,8.61,1.36-.38-1.59-1.11-2.84-1.11-2.84,0,0-4.64-1.26-8.84,.42Z"/>
        <path class="cls-23" d="M272.29,161.68c-1.78,5.09-11.01,8.59-11.01,8.59,0,0-6.16,1.45-5.95-.84,2.88-2.24,3.61-4.55,3.21-6.78-.23-1.3-.85-2.57-1.64-3.78-.41-.64-2.29-2.48-2.78-3.09l7.77-12.43c1.43,5.95,4.92,16.43,10.4,18.33Z"/>
        <path class="cls-24" d="M257.73,124.35c2.16-.65,8.02-1.04,11.43,.3,10.55,4.16,8.49,10.38,8.49,10.38-.89-2.29-2.46-3.36-2.46-3.36,7.24,15.23-8.39,24.29-8.39,24.29-4.11-2.53-10.06-1.75-10.06-1.75,0,0-.36-7.29-2-9.84-1.65-2.55-2.19-7.57-1.16-10.21,1.03-2.64-1.86-1.7-1.86-1.7-1.75-2.17,2.86-7.16,6.02-8.11Z"/>
        <path class="cls-23" d="M257.75,143.44c-.67,1.66-1.75,2.82-3.03,3.21-1.69,.5-2.48-1.89-1.98-4.23,.46-2.08,1.88-4.92,3.56-4.33,1.68,.59,2.25,3.29,1.45,5.35Z"/>
      </g>
      <path class="cls-16" d="M255.79,165.59s4.95-7.76,13.48-8.41c8.54-.65,5.55,8.41,5.55,8.41h-19.03Z"/>
      <path class="cls-5" d="M255.79,165.59s4.95-7.76,13.48-8.41c8.54-.65,5.55,8.41,5.55,8.41h-19.03Z"/>
      <g>
        <path class="cls-16" d="M309.66,206.56c-12.56,4.02-35.59,11.4-41.7,13.36-1.42-3.77-.26-15.15-6.62-27.61-1.77-3.44-4.1-6.96-7.23-10.43-2.71-3.01-6.03-5.99-10.08-8.83,0,0,18.06-15.83,40.64-14.47,0,0,19.22,11.73,24.98,47.97Z"/>
        <g>
          <rect class="cls-2" x="268.71" y="164.23" width="4.24" height=".53" transform="translate(-37.89 93.07) rotate(-18.25)"/>
          <rect class="cls-2" x="264.59" y="165.66" width="3.82" height=".53" transform="translate(-38.55 91.79) rotate(-18.25)"/>
          <rect class="cls-2" x="258.01" y="167.75" width="4.3" height=".53" transform="translate(-39.52 89.88) rotate(-18.24)"/>
          <path class="cls-2" d="M246.83,172.13l-2.79,.92s0,0,0,0c.18,.13,.35,.26,.53,.38l2.44-.8-.17-.51Z"/>
          <rect class="cls-2" x="253.95" y="169.18" width="3.76" height=".53" transform="translate(-40.18 88.6) rotate(-18.24)"/>
          <rect class="cls-2" x="279.41" y="160.71" width="4.19" height=".53" transform="translate(-36.24 96.21) rotate(-18.24)"/>
          <rect class="cls-2" x="275.23" y="162.14" width="3.87" height=".53" transform="translate(-36.91 94.92) rotate(-18.24)"/>
          <rect class="cls-2" x="247.31" y="171.27" width="4.35" height=".53" transform="translate(-41.17 86.75) rotate(-18.25)"/>
          <path class="cls-2" d="M286.23,159.7c-.08-.07-.17-.14-.25-.2l.08,.25,.17-.06Z"/>
          <rect class="cls-2" x="268.12" y="176.36" width="3.82" height=".53" transform="translate(-41.72 93.42) rotate(-18.25)"/>
          <rect class="cls-2" x="261.54" y="178.45" width="4.3" height=".53" transform="translate(-42.7 91.56) rotate(-18.25)"/>
          <rect class="cls-2" x="272.24" y="174.93" width="4.24" height=".53" transform="translate(-41.05 94.69) rotate(-18.24)"/>
          <rect class="cls-2" x="278.76" y="172.84" width="3.87" height=".53" transform="translate(-40.08 96.57) rotate(-18.24)"/>
          <path class="cls-2" d="M293.83,169.06l.99-.33c-.12-.15-.23-.3-.34-.45l-.82,.27,.17,.51Z"/>
          <rect class="cls-2" x="282.94" y="171.41" width="4.19" height=".53" transform="translate(-39.42 97.89) rotate(-18.25)"/>
          <rect class="cls-2" x="289.41" y="169.32" width="3.93" height=".53" transform="translate(-38.44 99.73) rotate(-18.24)"/>
          <rect class="cls-2" x="257.47" y="179.88" width="3.76" height=".53" transform="translate(-43.37 90.27) rotate(-18.25)"/>
          <path class="cls-2" d="M255,181.3l-1.1,.36c.13,.15,.26,.29,.39,.44l.88-.29-.17-.51Z"/>
          <rect class="cls-2" x="292.93" y="180.02" width="3.93" height=".53" transform="translate(-41.62 101.41) rotate(-18.25)"/>
          <rect class="cls-2" x="265.07" y="189.14" width="4.3" height=".53" transform="translate(-45.87 93.19) rotate(-18.25)"/>
          <rect class="cls-2" x="286.47" y="182.11" width="4.19" height=".53" transform="translate(-42.59 99.52) rotate(-18.25)"/>
          <rect class="cls-2" x="275.77" y="185.63" width="4.24" height=".53" transform="translate(-44.23 96.36) rotate(-18.25)"/>
          <rect class="cls-2" x="282.29" y="183.54" width="3.87" height=".53" transform="translate(-43.3 98.4) rotate(-18.28)"/>
          <rect class="cls-2" x="261" y="190.57" width="3.76" height=".53" transform="translate(-46.53 91.9) rotate(-18.25)"/>
          <path class="cls-2" d="M297.35,179.76l3.55-1.17c-.08-.16-.16-.32-.25-.48l-3.47,1.15,.17,.51Z"/>
          <rect class="cls-2" x="271.64" y="187.05" width="3.82" height=".53" transform="translate(-44.9 95.07) rotate(-18.25)"/>
          <rect class="cls-2" x="279.29" y="196.32" width="4.24" height=".53" transform="translate(-47.4 97.97) rotate(-18.24)"/>
          <rect class="cls-2" x="285.82" y="194.23" width="3.87" height=".53" transform="translate(-46.43 99.88) rotate(-18.25)"/>
          <rect class="cls-2" x="300.69" y="189.29" width="4.13" height=".53" transform="translate(-44.13 104.33) rotate(-18.25)"/>
          <rect class="cls-2" x="296.46" y="190.72" width="3.93" height=".53" transform="translate(-44.79 103.03) rotate(-18.25)"/>
          <path class="cls-2" d="M268.11,200.7l-3.15,1.04c.05,.17,.09,.35,.14,.52l3.18-1.05-.17-.51Z"/>
          <rect class="cls-2" x="275.17" y="197.75" width="3.82" height=".53" transform="translate(-48.07 96.72) rotate(-18.25)"/>
          <rect class="cls-2" x="268.59" y="199.84" width="4.3" height=".53" transform="translate(-49.05 94.84) rotate(-18.25)"/>
          <rect class="cls-2" x="289.99" y="192.81" width="4.19" height=".53" transform="translate(-45.77 101.17) rotate(-18.25)"/>
          <rect class="cls-2" x="289.34" y="204.93" width="3.87" height=".53" transform="translate(-49.59 101.49) rotate(-18.24)"/>
          <rect class="cls-2" x="272.12" y="210.54" width="4.3" height=".53" transform="translate(-52.21 96.45) rotate(-18.24)"/>
          <rect class="cls-2" x="282.82" y="207.02" width="4.24" height=".53" transform="translate(-50.57 99.61) rotate(-18.24)"/>
          <rect class="cls-2" x="268.05" y="211.97" width="3.76" height=".53" transform="translate(-52.88 95.19) rotate(-18.25)"/>
          <rect class="cls-2" x="304.22" y="199.98" width="4.13" height=".53" transform="translate(-47.3 105.97) rotate(-18.25)"/>
          <rect class="cls-2" x="278.7" y="208.45" width="3.82" height=".53" transform="translate(-51.24 98.35) rotate(-18.25)"/>
          <rect class="cls-2" x="299.99" y="201.41" width="3.93" height=".53" transform="translate(-47.97 104.69) rotate(-18.25)"/>
          <rect class="cls-2" x="293.52" y="203.5" width="4.19" height=".53" transform="translate(-48.93 102.78) rotate(-18.24)"/>
          <path class="cls-11" d="M266.98,161.3l-.15-.47c-1.24,.38-2.45,.79-3.61,1.22l.14,.44,3.62-1.19Z"/>
          <path class="cls-11" d="M271.52,159.81l-.05-.16c-1.41,.3-2.79,.65-4.12,1.04l.15,.45,4.03-1.33Z"/>
          <path class="cls-11" d="M260.78,163.03c-.94,.4-1.86,.81-2.73,1.22l2.83-.93-.09-.29Z"/>
          <rect class="cls-11" x="266.36" y="169.99" width="3.82" height="2.62" transform="translate(-40.15 92.62) rotate(-18.25)"/>
          <rect class="cls-11" x="270.48" y="168.57" width="4.24" height="2.62" transform="translate(-39.49 93.91) rotate(-18.25)"/>
          <path class="cls-11" d="M252.92,174.99l-4.14,1.36,.18,.54c.61,.52,1.2,1.05,1.77,1.58l3.01-.99-.82-2.48Z"/>
          <path class="cls-11" d="M288.16,166.12l3.57-1.18c-.69-.78-1.36-1.48-1.98-2.1l-2.41,.79,.82,2.48Z"/>
          <rect class="cls-11" x="281.18" y="165.05" width="4.19" height="2.62" transform="translate(-37.84 97.06) rotate(-18.25)"/>
          <rect class="cls-11" x="277.01" y="166.48" width="3.87" height="2.62" transform="translate(-38.51 95.78) rotate(-18.25)"/>
          <rect class="cls-11" x="255.72" y="173.51" width="3.76" height="2.62" transform="translate(-41.79 89.45) rotate(-18.25)"/>
          <rect class="cls-11" x="259.78" y="172.08" width="4.3" height="2.62" transform="translate(-41.12 90.74) rotate(-18.25)"/>
          <rect class="cls-11" x="280.52" y="177.12" width="3.87" height="2.62" transform="translate(-41.67 97.41) rotate(-18.25)"/>
          <rect class="cls-11" x="263.29" y="182.73" width="4.3" height="2.62" transform="translate(-44.28 92.38) rotate(-18.25)"/>
          <rect class="cls-11" x="269.87" y="180.64" width="3.82" height="2.62" transform="translate(-43.3 94.25) rotate(-18.25)"/>
          <path class="cls-11" d="M295.91,175.37l2.73-.9c-.47-.79-.94-1.56-1.42-2.29l-2.14,.7,.82,2.48Z"/>
          <rect class="cls-11" x="273.99" y="179.21" width="4.24" height="2.62" transform="translate(-42.64 95.55) rotate(-18.25)"/>
          <rect class="cls-11" x="284.69" y="175.69" width="4.19" height="2.62" transform="translate(-41 98.71) rotate(-18.25)"/>
          <rect class="cls-11" x="259.23" y="184.16" width="3.76" height="2.62" transform="translate(-44.94 91.09) rotate(-18.25)"/>
          <rect class="cls-11" x="291.16" y="173.6" width="3.93" height="2.62" transform="translate(-40.03 100.58) rotate(-18.25)"/>
          <rect class="cls-11" x="277.5" y="189.86" width="4.24" height="2.62" transform="translate(-45.8 97.18) rotate(-18.25)"/>
          <rect class="cls-11" x="273.38" y="191.29" width="3.82" height="2.62" transform="translate(-46.46 95.88) rotate(-18.25)"/>
          <path class="cls-11" d="M265.99,194.28l-3.25,1.07c.35,.82,.68,1.63,.97,2.44l3.1-1.02-.82-2.48Z"/>
          <rect class="cls-11" x="294.67" y="184.25" width="3.93" height="2.62" transform="translate(-43.19 102.22) rotate(-18.25)"/>
          <rect class="cls-11" x="266.8" y="193.38" width="4.3" height="2.62" transform="translate(-47.43 94) rotate(-18.25)"/>
          <rect class="cls-11" x="284.03" y="187.77" width="3.87" height="2.62" transform="translate(-44.82 99.05) rotate(-18.25)"/>
          <rect class="cls-11" x="288.2" y="186.34" width="4.19" height="2.62" transform="translate(-44.16 100.34) rotate(-18.25)"/>
          <rect class="cls-11" x="298.9" y="182.82" width="4.13" height="2.62" transform="translate(-42.52 103.51) rotate(-18.25)"/>
          <rect class="cls-11" x="287.54" y="198.41" width="3.87" height="2.62" transform="translate(-47.98 100.7) rotate(-18.25)"/>
          <rect class="cls-11" x="276.89" y="201.93" width="3.82" height="2.62" transform="translate(-49.62 97.53) rotate(-18.25)"/>
          <rect class="cls-11" x="302.41" y="193.47" width="4.13" height="2.62" transform="translate(-45.68 105.13) rotate(-18.25)"/>
          <rect class="cls-11" x="270.31" y="204.02" width="4.3" height="2.62" transform="translate(-50.59 95.64) rotate(-18.25)"/>
          <path class="cls-11" d="M270.32,207.41l-.82-2.48-3.54,1.17c.01,.08,.03,.15,.04,.22l.75,2.27,3.57-1.18Z"/>
          <rect class="cls-11" x="298.18" y="194.9" width="3.93" height="2.62" transform="translate(-46.34 103.84) rotate(-18.25)"/>
          <rect class="cls-11" x="291.71" y="196.98" width="4.19" height="2.62" transform="translate(-47.31 101.96) rotate(-18.25)"/>
          <rect class="cls-11" x="281.01" y="200.5" width="4.24" height="2.62" transform="translate(-48.95 98.8) rotate(-18.25)"/>
          <rect class="cls-11" x="280.4" y="212.58" width="3.82" height="2.62" transform="translate(-52.78 99.15) rotate(-18.25)"/>
          <rect class="cls-11" x="284.52" y="211.15" width="4.24" height="2.62" transform="translate(-52.12 100.45) rotate(-18.25)"/>
          <path class="cls-11" d="M306.44,207.31l3.17-1.05c-.14-.88-.3-1.75-.45-2.6l-3.54,1.17,.82,2.48Z"/>
          <rect class="cls-11" x="301.69" y="205.54" width="3.93" height="2.62" transform="translate(-49.5 105.5) rotate(-18.25)"/>
          <path class="cls-11" d="M277.61,214.06l-4.08,1.35,.81,2.47c.64-.21,1.31-.42,2-.64l2.08-.69-.82-2.48Z"/>
          <rect class="cls-11" x="291.05" y="209.06" width="3.87" height="2.62" transform="translate(-51.13 102.29) rotate(-18.24)"/>
          <path class="cls-11" d="M269.44,216.75l.8,2.43c1.03-.33,2.24-.72,3.58-1.15l-.81-2.46-3.57,1.18Z"/>
          <rect class="cls-11" x="295.22" y="207.63" width="4.19" height="2.62" transform="translate(-50.47 103.6) rotate(-18.25)"/>
          <path class="cls-5" d="M268.23,213.08l-1.24,.41c.15,1.5,.28,2.82,.43,3.93l2.02-.67-1.21-3.67Z"/>
          <path class="cls-5" d="M266.75,208.59l-.35,.11c.23,1.52,.39,2.94,.53,4.24l1.13-.37-1.31-3.98Z"/>
          <path class="cls-5" d="M261.02,191.74c.16,.3,.32,.6,.47,.9l-.32-.96-.16,.05Z"/>
          <rect class="cls-5" x="254.3" y="176.96" width="2.62" height="4.03" transform="translate(-43.19 89.04) rotate(-18.25)"/>
          <rect class="cls-5" x="252.21" y="170.59" width="2.62" height="4.09" transform="translate(-41.31 88.06) rotate(-18.25)"/>
          <path class="cls-5" d="M259.73,187.3l-1.13,.37c.8,1.2,1.52,2.4,2.16,3.59l.25-.08-1.28-3.88Z"/>
          <path class="cls-5" d="M253.96,169.78l-.95-2.89c-.82,.47-1.58,.93-2.3,1.38l.77,2.33,2.48-.82Z"/>
          <path class="cls-5" d="M257.65,180.99l-2.48,.82,.71,2.16c.4,.49,.79,.98,1.15,1.47l1.88-.62-1.26-3.83Z"/>
          <rect class="cls-2" x="251.49" y="170.18" width="2.62" height=".53" transform="translate(-40.65 87.7) rotate(-18.24)"/>
          <rect class="cls-5" x="251.49" y="170.18" width="2.62" height=".53" transform="translate(-40.65 87.7) rotate(-18.24)"/>
          <rect class="cls-2" x="255.02" y="180.87" width="2.62" height=".53" transform="translate(-43.83 89.36) rotate(-18.25)"/>
          <rect class="cls-5" x="255.02" y="180.87" width="2.62" height=".53" transform="translate(-43.83 89.36) rotate(-18.25)"/>
          <path class="cls-2" d="M261.01,191.18l-.25,.08c.09,.16,.17,.32,.26,.48l.16-.05-.17-.51Z"/>
          <path class="cls-5" d="M261.01,191.18l-.25,.08c.09,.16,.17,.32,.26,.48l.16-.05-.17-.51Z"/>
          <path class="cls-2" d="M268.07,212.57l-1.13,.37c.02,.18,.04,.36,.06,.54l1.24-.41-.17-.51Z"/>
          <path class="cls-5" d="M268.07,212.57l-1.13,.37c.02,.18,.04,.36,.06,.54l1.24-.41-.17-.51Z"/>
          <rect class="cls-11" x="253.26" y="174.51" width="2.62" height="2.62" transform="translate(-42.26 88.57) rotate(-18.25)"/>
          <rect class="cls-5" x="253.26" y="174.51" width="2.62" height="2.62" transform="translate(-42.26 88.57) rotate(-18.25)"/>
          <path class="cls-11" d="M258.91,184.81l-1.88,.62c.56,.75,1.07,1.49,1.57,2.24l1.13-.37-.82-2.48Z"/>
          <path class="cls-5" d="M258.91,184.81l-1.88,.62c.56,.75,1.07,1.49,1.57,2.24l1.13-.37-.82-2.48Z"/>
          <path class="cls-11" d="M266,206.32c.15,.82,.29,1.61,.4,2.38l.35-.11-.75-2.27Z"/>
          <path class="cls-5" d="M266,206.32c.15,.82,.29,1.61,.4,2.38l.35-.11-.75-2.27Z"/>
          <path class="cls-11" d="M267.42,217.42c.14,1.02,.3,1.87,.54,2.5,.6-.19,1.38-.44,2.29-.73l-.8-2.43-2.02,.67Z"/>
          <path class="cls-5" d="M267.42,217.42c.14,1.02,.3,1.87,.54,2.5,.6-.19,1.38-.44,2.29-.73l-.8-2.43-2.02,.67Z"/>
          <rect class="cls-5" x="264.95" y="173.45" width="2.62" height="4.03" transform="translate(-41.55 92.19) rotate(-18.25)"/>
          <rect class="cls-5" x="266.38" y="177.78" width="2.62" height="4.03" transform="translate(-42.84 92.86) rotate(-18.25)"/>
          <rect class="cls-5" x="273.42" y="199.18" width="2.62" height="3.92" transform="translate(-49.17 96.13) rotate(-18.25)"/>
          <rect class="cls-5" x="262.86" y="167.08" width="2.62" height="4.09" transform="translate(-39.67 91.23) rotate(-18.25)"/>
          <rect class="cls-5" x="275.51" y="205.38" width="2.62" height="4.19" transform="translate(-51.05 97.11) rotate(-18.25)"/>
          <rect class="cls-5" x="269.9" y="188.48" width="2.62" height="3.98" transform="translate(-46 94.49) rotate(-18.25)"/>
          <rect class="cls-5" x="268.47" y="184.09" width="2.62" height="4.08" transform="translate(-44.72 93.84) rotate(-18.25)"/>
          <rect class="cls-5" x="271.99" y="194.74" width="2.62" height="4.14" transform="translate(-47.88 95.47) rotate(-18.25)"/>
          <path class="cls-5" d="M278.42,216.54v.02c.81-.26,1.64-.52,2.5-.8v-.04s-2.5,.82-2.5,.82Z"/>
          <rect class="cls-5" x="261.43" y="162.81" width="2.62" height="3.97" transform="translate(-38.39 90.55) rotate(-18.25)"/>
          <rect class="cls-5" x="276.93" y="209.88" width="2.62" height="3.87" transform="translate(-52.33 97.78) rotate(-18.25)"/>
          <rect class="cls-2" x="262.14" y="166.67" width="2.62" height=".53" transform="translate(-39.05 90.98) rotate(-18.27)"/>
          <rect class="cls-5" x="262.14" y="166.67" width="2.62" height=".53" transform="translate(-39.05 90.98) rotate(-18.27)"/>
          <rect class="cls-2" x="265.66" y="177.36" width="2.62" height=".53" transform="translate(-42.19 92.52) rotate(-18.25)"/>
          <rect class="cls-5" x="265.66" y="177.36" width="2.62" height=".53" transform="translate(-42.19 92.52) rotate(-18.25)"/>
          <rect class="cls-2" x="269.19" y="188.06" width="2.62" height=".53" transform="translate(-45.37 94.18) rotate(-18.25)"/>
          <rect class="cls-5" x="269.19" y="188.06" width="2.62" height=".53" transform="translate(-45.37 94.18) rotate(-18.25)"/>
          <rect class="cls-2" x="272.72" y="198.76" width="2.62" height=".53" transform="translate(-48.54 95.81) rotate(-18.25)"/>
          <rect class="cls-5" x="272.72" y="198.76" width="2.62" height=".53" transform="translate(-48.54 95.81) rotate(-18.25)"/>
          <rect class="cls-2" x="276.25" y="209.46" width="2.62" height=".53" transform="translate(-51.74 97.54) rotate(-18.26)"/>
          <rect class="cls-5" x="276.25" y="209.46" width="2.62" height=".53" transform="translate(-51.74 97.54) rotate(-18.26)"/>
          <path class="cls-11" d="M263.36,162.5l-.14-.44c-.83,.31-1.64,.63-2.44,.97l.09,.29,2.48-.82Z"/>
          <path class="cls-5" d="M263.36,162.5l-.14-.44c-.83,.31-1.64,.63-2.44,.97l.09,.29,2.48-.82Z"/>
          <rect class="cls-11" x="263.91" y="171" width="2.62" height="2.62" transform="translate(-40.61 91.69) rotate(-18.24)"/>
          <rect class="cls-5" x="263.91" y="171" width="2.62" height="2.62" transform="translate(-40.61 91.69) rotate(-18.24)"/>
          <rect class="cls-11" x="267.42" y="181.65" width="2.62" height="2.62" transform="translate(-43.77 93.33) rotate(-18.25)"/>
          <rect class="cls-5" x="267.42" y="181.65" width="2.62" height="2.62" transform="translate(-43.77 93.33) rotate(-18.25)"/>
          <rect class="cls-11" x="270.93" y="192.29" width="2.62" height="2.62" transform="translate(-46.93 94.99) rotate(-18.25)"/>
          <rect class="cls-5" x="270.93" y="192.29" width="2.62" height="2.62" transform="translate(-46.93 94.99) rotate(-18.25)"/>
          <rect class="cls-11" x="274.44" y="202.94" width="2.62" height="2.62" transform="translate(-50.09 96.62) rotate(-18.25)"/>
          <rect class="cls-5" x="274.44" y="202.94" width="2.62" height="2.62" transform="translate(-50.09 96.62) rotate(-18.25)"/>
          <rect class="cls-11" x="277.95" y="213.59" width="2.62" height="2.62" transform="translate(-53.24 98.23) rotate(-18.24)"/>
          <rect class="cls-5" x="277.95" y="213.59" width="2.62" height="2.62" transform="translate(-53.24 98.23) rotate(-18.24)"/>
          <rect class="cls-5" x="280.54" y="184.97" width="2.62" height="3.98" transform="translate(-44.37 97.67) rotate(-18.25)"/>
          <rect class="cls-5" x="287.58" y="206.37" width="2.62" height="3.87" transform="translate(-50.7 100.92) rotate(-18.25)"/>
          <path class="cls-5" d="M272.76,163.58l2.48-.82-1.19-3.61c-.39,.06-.78,.13-1.17,.2l-1.37,.45,1.24,3.77Z"/>
          <rect class="cls-5" x="286.15" y="201.87" width="2.62" height="4.19" transform="translate(-49.41 100.27) rotate(-18.25)"/>
          <rect class="cls-5" x="279.11" y="180.58" width="2.62" height="4.08" transform="translate(-43.08 97) rotate(-18.25)"/>
          <rect class="cls-5" x="275.6" y="169.94" width="2.62" height="4.03" transform="translate(-39.92 95.37) rotate(-18.25)"/>
          <path class="cls-5" d="M289.07,213.03l.04,.11c.83-.27,1.66-.53,2.49-.8l-.04-.13-2.48,.82Z"/>
          <rect class="cls-5" x="273.51" y="163.57" width="2.62" height="4.09" transform="translate(-38.04 94.38) rotate(-18.25)"/>
          <rect class="cls-5" x="284.06" y="195.67" width="2.62" height="3.92" transform="translate(-47.53 99.29) rotate(-18.25)"/>
          <rect class="cls-5" x="277.02" y="174.27" width="2.62" height="4.03" transform="translate(-41.2 96.02) rotate(-18.25)"/>
          <rect class="cls-5" x="282.63" y="191.23" width="2.62" height="4.14" transform="translate(-46.25 98.62) rotate(-18.25)"/>
          <rect class="cls-2" x="272.78" y="163.16" width="2.62" height=".53" transform="translate(-37.38 94.01) rotate(-18.24)"/>
          <rect class="cls-5" x="272.78" y="163.16" width="2.62" height=".53" transform="translate(-37.38 94.01) rotate(-18.24)"/>
          <rect class="cls-2" x="276.31" y="173.85" width="2.62" height=".53" transform="translate(-40.56 95.69) rotate(-18.25)"/>
          <rect class="cls-5" x="276.31" y="173.85" width="2.62" height=".53" transform="translate(-40.56 95.69) rotate(-18.25)"/>
          <rect class="cls-2" x="279.84" y="184.55" width="2.62" height=".53" transform="translate(-43.73 97.33) rotate(-18.25)"/>
          <rect class="cls-5" x="279.84" y="184.55" width="2.62" height=".53" transform="translate(-43.73 97.33) rotate(-18.25)"/>
          <rect class="cls-2" x="283.36" y="195.25" width="2.62" height=".53" transform="translate(-46.9 98.94) rotate(-18.24)"/>
          <rect class="cls-5" x="283.36" y="195.25" width="2.62" height=".53" transform="translate(-46.9 98.94) rotate(-18.24)"/>
          <rect class="cls-2" x="286.89" y="205.95" width="2.62" height=".53" transform="translate(-50.11 100.7) rotate(-18.26)"/>
          <rect class="cls-5" x="286.89" y="205.95" width="2.62" height=".53" transform="translate(-50.11 100.7) rotate(-18.26)"/>
          <path class="cls-11" d="M271.52,159.81l1.37-.45c-.48,.09-.95,.19-1.42,.29l.05,.16Z"/>
          <path class="cls-5" d="M271.52,159.81l1.37-.45c-.48,.09-.95,.19-1.42,.29l.05,.16Z"/>
          <rect class="cls-11" x="274.56" y="167.49" width="2.62" height="2.62" transform="translate(-38.98 94.85) rotate(-18.24)"/>
          <rect class="cls-5" x="274.56" y="167.49" width="2.62" height="2.62" transform="translate(-38.98 94.85) rotate(-18.24)"/>
          <rect class="cls-11" x="278.07" y="178.14" width="2.62" height="2.62" transform="translate(-42.14 96.51) rotate(-18.25)"/>
          <rect class="cls-5" x="278.07" y="178.14" width="2.62" height="2.62" transform="translate(-42.14 96.51) rotate(-18.25)"/>
          <rect class="cls-11" x="281.58" y="188.78" width="2.62" height="2.62" transform="translate(-45.29 98.12) rotate(-18.25)"/>
          <rect class="cls-5" x="281.58" y="188.78" width="2.62" height="2.62" transform="translate(-45.29 98.12) rotate(-18.25)"/>
          <rect class="cls-11" x="285.09" y="199.43" width="2.62" height="2.62" transform="translate(-48.45 99.75) rotate(-18.24)"/>
          <rect class="cls-5" x="285.09" y="199.43" width="2.62" height="2.62" transform="translate(-48.45 99.75) rotate(-18.24)"/>
          <rect class="cls-11" x="288.59" y="210.08" width="2.62" height="2.62" transform="translate(-51.62 101.42) rotate(-18.25)"/>
          <rect class="cls-5" x="288.59" y="210.08" width="2.62" height="2.62" transform="translate(-51.62 101.42) rotate(-18.25)"/>
          <rect class="cls-5" x="294.71" y="192.16" width="2.62" height="3.92" transform="translate(-45.9 102.46) rotate(-18.25)"/>
          <rect class="cls-5" x="286.24" y="166.43" width="2.62" height="4.03" transform="translate(-38.28 98.5) rotate(-18.25)"/>
          <rect class="cls-5" x="284.15" y="160.06" width="2.62" height="4.09" transform="translate(-36.4 97.52) rotate(-18.24)"/>
          <rect class="cls-5" x="296.8" y="198.36" width="2.62" height="4.19" transform="translate(-47.78 103.44) rotate(-18.25)"/>
          <rect class="cls-5" x="291.19" y="181.46" width="2.62" height="3.98" transform="translate(-42.74 100.82) rotate(-18.25)"/>
          <rect class="cls-5" x="293.28" y="187.72" width="2.62" height="4.14" transform="translate(-44.61 101.79) rotate(-18.25)"/>
          <path class="cls-5" d="M299.72,209.52l.07,.2c.84-.27,1.67-.54,2.49-.8l-.07-.22-2.48,.82Z"/>
          <path class="cls-5" d="M285.72,159.31c-.66-.49-1.04-.73-1.04-.73-.6-.04-1.19-.05-1.78-.07l.51,1.55,2.31-.76Z"/>
          <rect class="cls-5" x="287.67" y="170.76" width="2.62" height="4.03" transform="translate(-39.57 99.17) rotate(-18.25)"/>
          <rect class="cls-5" x="298.23" y="202.86" width="2.62" height="3.87" transform="translate(-49.07 104.11) rotate(-18.25)"/>
          <rect class="cls-5" x="289.76" y="177.07" width="2.62" height="4.08" transform="translate(-41.45 100.14) rotate(-18.25)"/>
          <path class="cls-2" d="M283.58,160.58l2.48-.82-.08-.25c-.09-.07-.18-.13-.26-.2l-2.31,.76,.17,.51Z"/>
          <path class="cls-5" d="M283.58,160.58l2.48-.82-.08-.25c-.09-.07-.18-.13-.26-.2l-2.31,.76,.17,.51Z"/>
          <rect class="cls-2" x="286.96" y="170.34" width="2.62" height=".53" transform="translate(-38.92 98.84) rotate(-18.25)"/>
          <rect class="cls-5" x="286.96" y="170.34" width="2.62" height=".53" transform="translate(-38.92 98.84) rotate(-18.25)"/>
          <rect class="cls-2" x="290.48" y="181.04" width="2.62" height=".53" transform="translate(-42.1 100.49) rotate(-18.25)"/>
          <rect class="cls-5" x="290.48" y="181.04" width="2.62" height=".53" transform="translate(-42.1 100.49) rotate(-18.25)"/>
          <rect class="cls-2" x="294.01" y="191.74" width="2.62" height=".53" transform="translate(-45.27 102.13) rotate(-18.25)"/>
          <rect class="cls-5" x="294.01" y="191.74" width="2.62" height=".53" transform="translate(-45.27 102.13) rotate(-18.25)"/>
          <rect class="cls-2" x="297.54" y="202.44" width="2.62" height=".53" transform="translate(-48.44 103.76) rotate(-18.25)"/>
          <rect class="cls-5" x="297.54" y="202.44" width="2.62" height=".53" transform="translate(-48.44 103.76) rotate(-18.25)"/>
          <rect class="cls-11" x="285.2" y="163.98" width="2.62" height="2.62" transform="translate(-37.35 98.02) rotate(-18.25)"/>
          <rect class="cls-5" x="285.2" y="163.98" width="2.62" height="2.62" transform="translate(-37.35 98.02) rotate(-18.25)"/>
          <rect class="cls-11" x="288.71" y="174.63" width="2.62" height="2.62" transform="translate(-40.51 99.67) rotate(-18.25)"/>
          <rect class="cls-5" x="288.71" y="174.63" width="2.62" height="2.62" transform="translate(-40.51 99.67) rotate(-18.25)"/>
          <rect class="cls-11" x="292.22" y="185.27" width="2.62" height="2.62" transform="translate(-43.66 101.29) rotate(-18.25)"/>
          <rect class="cls-5" x="292.22" y="185.27" width="2.62" height="2.62" transform="translate(-43.66 101.29) rotate(-18.25)"/>
          <rect class="cls-11" x="295.73" y="195.92" width="2.62" height="2.62" transform="translate(-46.82 102.93) rotate(-18.25)"/>
          <rect class="cls-5" x="295.73" y="195.92" width="2.62" height="2.62" transform="translate(-46.82 102.93) rotate(-18.25)"/>
          <rect class="cls-11" x="299.24" y="206.57" width="2.62" height="2.62" transform="translate(-49.97 104.53) rotate(-18.24)"/>
          <rect class="cls-5" x="299.24" y="206.57" width="2.62" height="2.62" transform="translate(-49.97 104.53) rotate(-18.24)"/>
          <path class="cls-5" d="M302.63,182.2c-.15-.34-.3-.68-.46-1.01l.35,1.05,.11-.04Z"/>
          <path class="cls-5" d="M308.16,199.35l.09-.03c-.32-1.4-.66-2.76-1.02-4.08l-.39,.13,1.31,3.98Z"/>
          <path class="cls-5" d="M304.64,188.65l.51-.17c-.48-1.35-.97-2.63-1.48-3.87l-.32,.11,1.3,3.93Z"/>
          <path class="cls-5" d="M306.03,192.88l.49-.16c-.39-1.28-.78-2.53-1.2-3.73l-.51,.17,1.23,3.72Z"/>
          <path class="cls-5" d="M308.49,200.33c-.04-.16-.07-.32-.11-.48l-.05,.02,.15,.47Z"/>
          <path class="cls-2" d="M304.81,189.16l.51-.17c-.06-.17-.12-.34-.18-.51l-.51,.17,.17,.51Z"/>
          <path class="cls-5" d="M304.81,189.16l.51-.17c-.06-.17-.12-.34-.18-.51l-.51,.17,.17,.51Z"/>
          <path class="cls-2" d="M308.33,199.86l.05-.02c-.04-.18-.08-.35-.12-.52l-.09,.03,.17,.51Z"/>
          <path class="cls-5" d="M308.33,199.86l.05-.02c-.04-.18-.08-.35-.12-.52l-.09,.03,.17,.51Z"/>
          <path class="cls-11" d="M303.34,184.72l.32-.11c-.34-.83-.68-1.63-1.03-2.41l-.11,.04,.82,2.48Z"/>
          <path class="cls-5" d="M303.34,184.72l.32-.11c-.34-.83-.68-1.63-1.03-2.41l-.11,.04,.82,2.48Z"/>
          <path class="cls-11" d="M306.85,195.37l.39-.13c-.23-.86-.47-1.7-.72-2.52l-.49,.16,.82,2.48Z"/>
          <path class="cls-5" d="M306.85,195.37l.39-.13c-.23-.86-.47-1.7-.72-2.52l-.49,.16,.82,2.48Z"/>
          <path class="cls-15" d="M247.5,172.47l-.51,.17,1.18,3.59c.09,.08,.2,.15,.29,.23l.32-.1-1.28-3.88Z"/>
          <path class="cls-15" d="M247.34,171.96l-.39-1.17c-.15,.11-.31,.22-.45,.33l.33,1.01,.51-.17Z"/>
          <rect class="cls-2" x="246.9" y="172.03" width=".53" height=".53" transform="translate(-41.51 86.03) rotate(-18.24)"/>
          <rect class="cls-15" x="246.9" y="172.03" width=".53" height=".53" transform="translate(-41.51 86.03) rotate(-18.24)"/>
          <path class="cls-11" d="M248.47,176.45c.17,.14,.33,.29,.49,.43l-.18-.54-.32,.1Z"/>
          <path class="cls-15" d="M248.47,176.45c.17,.14,.33,.29,.49,.43l-.18-.54-.32,.1Z"/>
          <path class="cls-15" d="M258.04,168.43l-1.19-3.61c-.16,.08-.32,.16-.48,.24l1.16,3.53,.51-.17Z"/>
          <rect class="cls-15" x="270.97" y="207.22" width=".53" height="4.19" transform="translate(-51.9 95.46) rotate(-18.25)"/>
          <rect class="cls-15" x="272.4" y="211.72" width=".53" height="3.87" transform="translate(-53.19 96.14) rotate(-18.25)"/>
          <rect class="cls-15" x="268.88" y="201.02" width=".53" height="3.92" transform="translate(-50.01 94.43) rotate(-18.24)"/>
          <rect class="cls-15" x="267.45" y="196.58" width=".53" height="4.14" transform="translate(-48.76 93.88) rotate(-18.26)"/>
          <rect class="cls-15" x="265.36" y="190.32" width=".53" height="3.98" transform="translate(-46.86 92.83) rotate(-18.25)"/>
          <rect class="cls-15" x="261.84" y="179.62" width=".53" height="4.03" transform="translate(-43.7 91.21) rotate(-18.25)"/>
          <rect class="cls-15" x="263.93" y="185.93" width=".53" height="4.08" transform="translate(-45.57 92.17) rotate(-18.25)"/>
          <rect class="cls-15" x="258.32" y="168.92" width=".53" height="4.09" transform="translate(-40.53 89.56) rotate(-18.25)"/>
          <rect class="cls-15" x="260.41" y="175.29" width=".53" height="4.03" transform="translate(-42.42 90.58) rotate(-18.26)"/>
          <rect class="cls-2" x="257.6" y="168.5" width=".53" height=".53" transform="translate(-39.92 89.38) rotate(-18.28)"/>
          <rect class="cls-15" x="257.6" y="168.5" width=".53" height=".53" transform="translate(-39.92 89.38) rotate(-18.28)"/>
          <rect class="cls-2" x="261.13" y="179.2" width=".53" height=".53" transform="translate(-43.05 90.88) rotate(-18.25)"/>
          <rect class="cls-15" x="261.13" y="179.2" width=".53" height=".53" transform="translate(-43.05 90.88) rotate(-18.25)"/>
          <rect class="cls-2" x="264.65" y="189.9" width=".53" height=".53" transform="translate(-46.21 92.47) rotate(-18.24)"/>
          <rect class="cls-15" x="264.65" y="189.9" width=".53" height=".53" transform="translate(-46.21 92.47) rotate(-18.24)"/>
          <rect class="cls-2" x="268.18" y="200.6" width=".53" height=".53" transform="translate(-49.4 94.16) rotate(-18.25)"/>
          <rect class="cls-15" x="268.18" y="200.6" width=".53" height=".53" transform="translate(-49.4 94.16) rotate(-18.25)"/>
          <rect class="cls-2" x="271.71" y="211.3" width=".53" height=".53" transform="translate(-52.56 95.77) rotate(-18.24)"/>
          <rect class="cls-15" x="271.71" y="211.3" width=".53" height=".53" transform="translate(-52.56 95.77) rotate(-18.24)"/>
          <rect class="cls-11" x="259.37" y="172.84" width=".53" height="2.62" transform="translate(-41.48 90.07) rotate(-18.25)"/>
          <rect class="cls-15" x="259.37" y="172.84" width=".53" height="2.62" transform="translate(-41.48 90.07) rotate(-18.25)"/>
          <rect class="cls-11" x="262.88" y="183.49" width=".53" height="2.62" transform="translate(-44.62 91.64) rotate(-18.24)"/>
          <rect class="cls-15" x="262.88" y="183.49" width=".53" height="2.62" transform="translate(-44.62 91.64) rotate(-18.24)"/>
          <rect class="cls-11" x="266.39" y="194.13" width=".53" height="2.62" transform="translate(-47.8 93.37) rotate(-18.26)"/>
          <rect class="cls-15" x="266.39" y="194.13" width=".53" height="2.62" transform="translate(-47.8 93.37) rotate(-18.26)"/>
          <rect class="cls-11" x="269.9" y="204.78" width=".53" height="2.62" transform="translate(-50.96 95) rotate(-18.26)"/>
          <rect class="cls-15" x="269.9" y="204.78" width=".53" height="2.62" transform="translate(-50.96 95) rotate(-18.26)"/>
          <path class="cls-11" d="M273.01,215.57l.81,2.46c.17-.05,.34-.11,.51-.16l-.81-2.47-.51,.17Z"/>
          <path class="cls-15" d="M273.01,215.57l.81,2.46c.17-.05,.34-.11,.51-.16l-.81-2.47-.51,.17Z"/>
          <rect class="cls-15" x="267.59" y="161.12" width=".53" height="3.97" transform="translate(-37.6 92.07) rotate(-18.25)"/>
          <rect class="cls-15" x="283.09" y="208.19" width=".53" height="3.87" transform="translate(-51.54 99.29) rotate(-18.25)"/>
          <rect class="cls-15" x="279.58" y="197.49" width=".53" height="3.92" transform="translate(-48.38 97.64) rotate(-18.25)"/>
          <rect class="cls-15" x="278.15" y="193.05" width=".53" height="4.14" transform="translate(-47.11 97.03) rotate(-18.26)"/>
          <rect class="cls-15" x="271.11" y="171.76" width=".53" height="4.03" transform="translate(-40.76 93.7) rotate(-18.25)"/>
          <rect class="cls-15" x="272.54" y="176.1" width=".53" height="4.03" transform="translate(-42.06 94.42) rotate(-18.26)"/>
          <rect class="cls-15" x="276.06" y="186.8" width=".53" height="3.98" transform="translate(-45.22 96.02) rotate(-18.25)"/>
          <path class="cls-15" d="M284.53,214.53l.02,.07c.17-.05,.34-.11,.51-.16l-.02-.07-.51,.17Z"/>
          <rect class="cls-15" x="269.02" y="165.4" width=".53" height="4.09" transform="translate(-38.88 92.73) rotate(-18.25)"/>
          <rect class="cls-15" x="274.63" y="182.41" width=".53" height="4.08" transform="translate(-43.93 95.36) rotate(-18.25)"/>
          <rect class="cls-15" x="281.67" y="203.7" width=".53" height="4.19" transform="translate(-50.26 98.61) rotate(-18.25)"/>
          <rect class="cls-2" x="268.3" y="164.98" width=".53" height=".53" transform="translate(-38.23 92.35) rotate(-18.24)"/>
          <rect class="cls-15" x="268.3" y="164.98" width=".53" height=".53" transform="translate(-38.23 92.35) rotate(-18.24)"/>
          <rect class="cls-2" x="271.82" y="175.68" width=".53" height=".53" transform="translate(-41.41 94.03) rotate(-18.25)"/>
          <rect class="cls-15" x="271.82" y="175.68" width=".53" height=".53" transform="translate(-41.41 94.03) rotate(-18.25)"/>
          <rect class="cls-2" x="275.35" y="186.37" width=".53" height=".53" transform="translate(-44.58 95.69) rotate(-18.25)"/>
          <rect class="cls-15" x="275.35" y="186.37" width=".53" height=".53" transform="translate(-44.58 95.69) rotate(-18.25)"/>
          <rect class="cls-2" x="278.88" y="197.07" width=".53" height=".53" transform="translate(-47.74 97.28) rotate(-18.24)"/>
          <rect class="cls-15" x="278.88" y="197.07" width=".53" height=".53" transform="translate(-47.74 97.28) rotate(-18.24)"/>
          <rect class="cls-2" x="282.41" y="207.77" width=".53" height=".53" transform="translate(-50.92 98.96) rotate(-18.25)"/>
          <rect class="cls-15" x="282.41" y="207.77" width=".53" height=".53" transform="translate(-50.92 98.96) rotate(-18.25)"/>
          <path class="cls-11" d="M267.49,161.13l-.15-.45c-.17,.05-.34,.1-.51,.15l.15,.47,.51-.17Z"/>
          <path class="cls-15" d="M267.49,161.13l-.15-.45c-.17,.05-.34,.1-.51,.15l.15,.47,.51-.17Z"/>
          <rect class="cls-11" x="270.07" y="169.31" width=".53" height="2.62" transform="translate(-39.83 93.24) rotate(-18.25)"/>
          <rect class="cls-15" x="270.07" y="169.31" width=".53" height="2.62" transform="translate(-39.83 93.24) rotate(-18.25)"/>
          <rect class="cls-11" x="273.58" y="179.96" width=".53" height="2.62" transform="translate(-42.99 94.87) rotate(-18.25)"/>
          <rect class="cls-15" x="273.58" y="179.96" width=".53" height="2.62" transform="translate(-42.99 94.87) rotate(-18.25)"/>
          <rect class="cls-11" x="277.09" y="190.61" width=".53" height="2.62" transform="translate(-46.14 96.47) rotate(-18.24)"/>
          <rect class="cls-15" x="277.09" y="190.61" width=".53" height="2.62" transform="translate(-46.14 96.47) rotate(-18.24)"/>
          <rect class="cls-11" x="280.6" y="201.25" width=".53" height="2.62" transform="translate(-49.31 98.15) rotate(-18.25)"/>
          <rect class="cls-15" x="280.6" y="201.25" width=".53" height="2.62" transform="translate(-49.31 98.15) rotate(-18.25)"/>
          <rect class="cls-11" x="284.11" y="211.9" width=".53" height="2.62" transform="translate(-52.46 99.78) rotate(-18.25)"/>
          <rect class="cls-15" x="284.11" y="211.9" width=".53" height="2.62" transform="translate(-52.46 99.78) rotate(-18.25)"/>
          <rect class="cls-15" x="292.36" y="200.17" width=".53" height="4.19" transform="translate(-48.62 101.8) rotate(-18.25)"/>
          <rect class="cls-15" x="288.84" y="189.52" width=".53" height="4.14" transform="translate(-45.47 100.21) rotate(-18.26)"/>
          <rect class="cls-15" x="293.79" y="204.67" width=".53" height="3.87" transform="translate(-49.91 102.47) rotate(-18.25)"/>
          <rect class="cls-15" x="286.76" y="183.27" width=".53" height="3.98" transform="translate(-43.59 99.23) rotate(-18.26)"/>
          <rect class="cls-15" x="279.72" y="161.87" width=".53" height="4.09" transform="translate(-37.24 95.9) rotate(-18.24)"/>
          <path class="cls-15" d="M295.23,211l.05,.16c.17-.05,.34-.11,.51-.16l-.05-.16-.51,.17Z"/>
          <path class="cls-15" d="M279.43,161.38l-.91-2.76c-.18,.01-.36,.03-.55,.05l.95,2.88,.51-.17Z"/>
          <rect class="cls-15" x="290.27" y="193.97" width=".53" height="3.92" transform="translate(-46.72 100.77) rotate(-18.24)"/>
          <rect class="cls-15" x="281.81" y="168.24" width=".53" height="4.03" transform="translate(-39.13 96.9) rotate(-18.25)"/>
          <rect class="cls-15" x="285.33" y="178.88" width=".53" height="4.08" transform="translate(-42.29 98.52) rotate(-18.25)"/>
          <rect class="cls-15" x="283.24" y="172.57" width=".53" height="4.03" transform="translate(-40.41 97.56) rotate(-18.25)"/>
          <rect class="cls-2" x="278.99" y="161.45" width=".53" height=".53" transform="translate(-36.61 95.66) rotate(-18.26)"/>
          <rect class="cls-15" x="278.99" y="161.45" width=".53" height=".53" transform="translate(-36.61 95.66) rotate(-18.26)"/>
          <rect class="cls-2" x="282.52" y="172.15" width=".53" height=".53" transform="translate(-39.77 97.22) rotate(-18.25)"/>
          <rect class="cls-15" x="282.52" y="172.15" width=".53" height=".53" transform="translate(-39.77 97.22) rotate(-18.25)"/>
          <rect class="cls-2" x="286.05" y="182.85" width=".53" height=".53" transform="translate(-42.93 98.83) rotate(-18.24)"/>
          <rect class="cls-15" x="286.05" y="182.85" width=".53" height=".53" transform="translate(-42.93 98.83) rotate(-18.24)"/>
          <rect class="cls-2" x="289.58" y="193.54" width=".53" height=".53" transform="translate(-46.12 100.55) rotate(-18.26)"/>
          <rect class="cls-15" x="289.58" y="193.54" width=".53" height=".53" transform="translate(-46.12 100.55) rotate(-18.26)"/>
          <rect class="cls-2" x="293.1" y="204.24" width=".53" height=".53" transform="translate(-49.27 102.11) rotate(-18.24)"/>
          <rect class="cls-15" x="293.1" y="204.24" width=".53" height=".53" transform="translate(-49.27 102.11) rotate(-18.24)"/>
          <rect class="cls-11" x="280.77" y="165.79" width=".53" height="2.62" transform="translate(-38.19 96.39) rotate(-18.25)"/>
          <rect class="cls-15" x="280.77" y="165.79" width=".53" height="2.62" transform="translate(-38.19 96.39) rotate(-18.25)"/>
          <rect class="cls-11" x="284.28" y="176.43" width=".53" height="2.62" transform="translate(-41.33 97.98) rotate(-18.24)"/>
          <rect class="cls-15" x="284.28" y="176.43" width=".53" height="2.62" transform="translate(-41.33 97.98) rotate(-18.24)"/>
          <rect class="cls-11" x="287.79" y="187.08" width=".53" height="2.62" transform="translate(-44.5 99.68) rotate(-18.25)"/>
          <rect class="cls-15" x="287.79" y="187.08" width=".53" height="2.62" transform="translate(-44.5 99.68) rotate(-18.25)"/>
          <rect class="cls-11" x="291.3" y="197.72" width=".53" height="2.62" transform="translate(-47.68 101.37) rotate(-18.26)"/>
          <rect class="cls-15" x="291.3" y="197.72" width=".53" height="2.62" transform="translate(-47.68 101.37) rotate(-18.26)"/>
          <rect class="cls-11" x="294.81" y="208.37" width=".53" height="2.62" transform="translate(-50.81 102.92) rotate(-18.24)"/>
          <rect class="cls-15" x="294.81" y="208.37" width=".53" height="2.62" transform="translate(-50.81 102.92) rotate(-18.24)"/>
          <rect class="cls-15" x="300.97" y="190.44" width=".53" height="3.92" transform="translate(-45.08 103.95) rotate(-18.24)"/>
          <path class="cls-15" d="M305.93,207.48l.08,.25c.17-.06,.34-.11,.51-.16l-.08-.25-.51,.17Z"/>
          <path class="cls-15" d="M293.66,168.55l-.73-2.22c-.31-.37-.62-.73-.92-1.07l1.14,3.46,.51-.17Z"/>
          <rect class="cls-15" x="303.06" y="196.64" width=".53" height="4.19" transform="translate(-46.98 104.98) rotate(-18.25)"/>
          <rect class="cls-15" x="296.02" y="175.35" width=".53" height="4.08" transform="translate(-40.64 101.68) rotate(-18.25)"/>
          <rect class="cls-15" x="299.54" y="186" width=".53" height="4.14" transform="translate(-43.81 103.33) rotate(-18.25)"/>
          <rect class="cls-15" x="297.45" y="179.74" width=".53" height="3.98" transform="translate(-41.94 102.41) rotate(-18.26)"/>
          <rect class="cls-15" x="304.49" y="201.14" width=".53" height="3.87" transform="translate(-48.27 105.69) rotate(-18.26)"/>
          <rect class="cls-15" x="293.93" y="169.04" width=".53" height="4.03" transform="translate(-38.76 100.67) rotate(-18.24)"/>
          <rect class="cls-2" x="293.22" y="168.62" width=".53" height=".53" transform="translate(-38.12 100.38) rotate(-18.25)"/>
          <rect class="cls-15" x="293.22" y="168.62" width=".53" height=".53" transform="translate(-38.12 100.38) rotate(-18.25)"/>
          <rect class="cls-2" x="296.75" y="179.32" width=".53" height=".53" transform="translate(-41.29 102.02) rotate(-18.25)"/>
          <rect class="cls-15" x="296.75" y="179.32" width=".53" height=".53" transform="translate(-41.29 102.02) rotate(-18.25)"/>
          <rect class="cls-2" x="300.27" y="190.02" width=".53" height=".53" transform="translate(-44.47 103.68) rotate(-18.25)"/>
          <rect class="cls-15" x="300.27" y="190.02" width=".53" height=".53" transform="translate(-44.47 103.68) rotate(-18.25)"/>
          <rect class="cls-2" x="303.8" y="200.72" width=".53" height=".53" transform="translate(-47.63 105.28) rotate(-18.24)"/>
          <rect class="cls-15" x="303.8" y="200.72" width=".53" height=".53" transform="translate(-47.63 105.28) rotate(-18.24)"/>
          <rect class="cls-11" x="294.98" y="172.91" width=".53" height="2.62" transform="translate(-39.69 101.16) rotate(-18.24)"/>
          <rect class="cls-15" x="294.98" y="172.91" width=".53" height="2.62" transform="translate(-39.69 101.16) rotate(-18.24)"/>
          <rect class="cls-11" x="298.49" y="183.55" width=".53" height="2.62" transform="translate(-42.85 102.79) rotate(-18.24)"/>
          <rect class="cls-15" x="298.49" y="183.55" width=".53" height="2.62" transform="translate(-42.85 102.79) rotate(-18.24)"/>
          <rect class="cls-11" x="302" y="194.2" width=".53" height="2.62" transform="translate(-46.03 104.52) rotate(-18.26)"/>
          <rect class="cls-15" x="302" y="194.2" width=".53" height="2.62" transform="translate(-46.03 104.52) rotate(-18.26)"/>
          <rect class="cls-11" x="305.51" y="204.84" width=".53" height="2.62" transform="translate(-49.17 106.1) rotate(-18.25)"/>
          <rect class="cls-15" x="305.51" y="204.84" width=".53" height="2.62" transform="translate(-49.17 106.1) rotate(-18.25)"/>
        </g>
      </g>
      <path class="cls-12" d="M261.34,192.31c-1.77-3.44-4.1-6.96-7.23-10.43,1.7-1.61,4.18-2.55,7.62-2.25,0,0,1.95,6.13-.4,12.68Z"/>
      <polygon class="cls-16" points="258.38 193.8 239.69 190.69 239.8 194.88 257.92 196.66 258.38 193.8"/>
      <polygon class="cls-5" points="258.38 193.8 239.69 190.69 239.8 194.88 257.92 196.66 258.38 193.8"/>
      <g>
        <path class="cls-16" d="M333.52,216.99l1.35,2.28c.38,.65,.19,1.48-.44,1.89l-119.07,76.92-2.79-4.7,118.99-76.86c.67-.43,1.56-.22,1.97,.46Z"/>
        <path class="cls-11" d="M333.52,216.99l1.35,2.28c.38,.65,.19,1.48-.44,1.89l-119.07,76.92-2.79-4.7,118.99-76.86c.67-.43,1.56-.22,1.97,.46Z"/>
        <g>
          <path class="cls-24" d="M209.6,295.95s-9.46-13.81-6.53-28.41c0,0,3.42,12.72,12.48,24.9l-5.95,3.51Z"/>
          <path class="cls-4" d="M209.6,295.95s-9.46-13.81-6.53-28.41c0,0,3.42,12.72,12.48,24.9l-5.95,3.51Z"/>
          <path class="cls-24" d="M211.58,299.31s7.53,14.95,21.74,19.42c0,0-9.49-9.13-15.79-22.94l-5.95,3.51Z"/>
          <path class="cls-4" d="M211.58,299.31s7.53,14.95,21.74,19.42c0,0-9.49-9.13-15.79-22.94l-5.95,3.51Z"/>
        </g>
        <rect class="cls-24" x="210.54" y="290.69" width="6.74" height="9.95" transform="translate(68.21 630.25) rotate(-120.58)"/>
        <rect class="cls-3" x="210.54" y="290.69" width="6.74" height="9.95" transform="translate(68.21 630.25) rotate(-120.58)"/>
      </g>
      <g>
        <path class="cls-23" d="M320.54,216.32l-.09,10.24,8.85-1.36s1.07-7.15-4.11-10.11l-4.65,1.22Z"/>
        <polygon class="cls-23" points="322.68 230.12 330.17 230.43 329.3 225.2 320.45 226.56 322.68 230.12"/>
      </g>
      <polygon class="cls-23" points="348.1 297.96 348.55 305.28 331.64 307.06 331.19 299.73 348.1 297.96"/>
      <path class="cls-16" d="M348.88,305.58c-.04-.06-.12-.08-.19-.06-.07,.02-.12,.08-.12,.15,0,.13-.21,3.07,.62,4.02,.17,.2,.37,.3,.61,.32,.41,.03,.6-.16,.69-.32,.25-.46-.03-1.33-.44-2.18-.38-.79-.88-1.56-1.16-1.94Zm.01,.62c.77,1.14,1.56,2.82,1.28,3.33-.04,.07-.11,.15-.36,.14-.14,0-.26-.08-.37-.2-.07-.08-.13-.18-.18-.29-.37-.77-.39-2.22-.38-2.98Z"/>
      <path class="cls-16" d="M348.82,305.54c-.05-.03-.12-.03-.17,0-.07,.04-1.77,1.08-2.05,2.25-.09,.36-.04,.69,.15,1,.25,.41,.53,.43,.72,.37,.81-.24,1.47-2.51,1.44-3.48,0-.03,0-.05-.02-.07-.02-.03-.04-.06-.07-.08Zm-1.89,2.34c.19-.77,1.14-1.52,1.62-1.86-.1,1.05-.7,2.66-1.18,2.81-.04,.01-.16,.05-.32-.22-.02-.03-.04-.06-.05-.09-.1-.2-.12-.41-.06-.64Z"/>
      <path class="cls-24" d="M347.64,305.36l-3.48-7.21c-.13-.27-.06-.59,.18-.78l5.24-4.14c.54-.43,1.34-.25,1.63,.38,1.21,2.62,2.88,6.46,4.45,9.73,1.85,3.82,3.65,7.03,5.81,11.51,1.31,2.71-1.07,4.79-1.87,3.77-3.63-4.62-5.78-8.78-10.69-11.92-.53-.34-1.01-.77-1.28-1.34Z"/>
      <path class="cls-24" d="M341.5,311.24s-54.08,9.6-71.08,4.88c-10.64-2.95-10.98-31.5-8.96-57.44,.59-7.68,1.39-15.13,2.18-21.62,1.54-12.57,3.06-21.53,3.06-21.53l43.07-9.52s3.75,16.56-1.84,29.27c-2.47,5.65-6.79,10.54-14.1,12.88,0,0-3.79,12.11-6.8,24.45-2.75,11.29-4.86,22.77-2.84,25.38,2.98,3.86,56.67-.05,56.67-.05l.65,13.28Z"/>
      <path class="cls-6" d="M341.5,311.24s-54.08,9.6-71.08,4.88c-10.64-2.95-10.98-31.5-8.96-57.44,.59-7.68,1.39-15.13,2.18-21.62,1.54-12.57,3.06-21.53,3.06-21.53l43.07-9.52s3.75,16.56-1.84,29.27c-2.47,5.65-6.79,10.54-14.1,12.88,0,0-3.79,12.11-6.8,24.45-2.75,11.29-4.86,22.77-2.84,25.38,2.98,3.86,56.67-.05,56.67-.05l.65,13.28Z"/>
      <path class="cls-11" d="M262.34,248.77c-.32,3.22-.62,6.55-.88,9.92,6.1,4.12,16.6,10.43,25.57,13.94,2.62-10.74,5.83-21.29,6.62-23.86h-31.3Z"/>
      <path class="cls-16" d="M251.62,311.41c.07-.01,.13-.07,.14-.14s-.02-.14-.08-.18c-.11-.06-2.67-1.52-3.89-1.19-.25,.07-.44,.2-.55,.41-.21,.36-.12,.61-.01,.76,.3,.42,1.21,.55,2.16,.55,.88,0,1.78-.11,2.25-.21Zm-.56-.26c-1.36,.19-3.22,.18-3.56-.29-.04-.06-.09-.17,.03-.38,.07-.12,.18-.2,.34-.24,.1-.03,.21-.04,.34-.04,.86,0,2.17,.61,2.85,.96Z"/>
      <path class="cls-16" d="M251.69,311.38c.05-.04,.08-.1,.07-.16,0-.08-.21-2.06-1.14-2.83-.28-.23-.61-.33-.96-.3-.48,.05-.62,.29-.65,.49-.13,.83,1.62,2.42,2.51,2.81,.02,.01,.05,.02,.07,.02,.04,0,.07-.01,.1-.03Zm-1.29-2.72c.61,.5,.87,1.68,.97,2.26-.9-.54-2.09-1.79-2.01-2.29,0-.04,.03-.16,.34-.2,.04,0,.07,0,.1,0,.22,0,.42,.07,.6,.23Z"/>
      <polygon class="cls-23" points="260.46 310.9 253.64 313.6 246.7 298.08 253.52 295.38 260.46 310.9"/>
      <path class="cls-24" d="M252.36,310.39h8.01c.3,0,.56,.21,.62,.5l1.45,6.52c.15,.68-.36,1.32-1.06,1.3-2.89-.05-7.06-.22-10.7-.22-4.25,0-7.91,.23-12.89,.23-3.01,0-3.85-3.04-2.59-3.32,5.74-1.26,10.42-1.39,15.38-4.45,.54-.33,1.13-.57,1.77-.57Z"/>
      <path class="cls-24" d="M309.66,206.56l-3.44,32.83c-1.7,3.91-10.78,11.08-15.06,11.63-3.18,.41-6.74,.61-10.46,.7-6.08,.14-12.57-.07-18.47-.35-3.78-.18-7.31-.4-10.33-.58-5.53-.32-9.37-.53-9.92-.19-1.99,1.25,16.43,51.91,16.43,51.91l-11.3,.25s-25.19-43.21-27.55-57.57c-.87-5.3-1.62-11.9,8.47-16.96,6.16-3.09,23.18-4.43,33.02-4.96,4.35-.23,7.3-.3,7.3-.3l-.3-1.36-1.35-6.05,42.97-8.99Z"/>
      <path class="cls-6" d="M309.66,206.56l-3.44,32.83c-1.7,3.91-10.78,11.08-15.06,11.63-3.18,.41-6.74,.61-10.46,.7-6.08,.14-12.57-.07-18.47-.35-3.78-.18-7.31-.4-10.33-.58-5.53-.32-9.37-.53-9.92-.19-1.99,1.25,16.43,51.91,16.43,51.91l-11.3,.25s-25.19-43.21-27.55-57.57c-.87-5.3-1.62-11.9,8.47-16.96,6.16-3.09,23.18-4.43,33.02-4.96,4.35-.23,7.3-.3,7.3-.3l-.3-1.36-1.35-6.05,42.97-8.99Z"/>
      <path class="cls-11" d="M292.05,226.06l8.37-1.62s.4,7.1,0,10.84l-4.1,2.85-3.45-1.5s-.21-7.57-.83-10.56Z"/>
      <g>
        <polygon points="269.37 215.85 270.08 219.29 265.96 220.12 266.26 216.5 269.37 215.85"/>
        <polygon points="283.68 212.82 284.45 216.4 271.63 218.98 270.87 215.53 283.68 212.82"/>
        <polygon points="299.66 209.45 300.42 213.19 286.08 216.07 285.33 212.47 299.66 209.45"/>
        <polygon points="310.92 211.08 302.09 212.85 302.08 212.85 301.3 209.1 310.08 207.25 310.92 211.08"/>
      </g>
      <path class="cls-23" d="M218.97,207.18l-4.45-2.69c-1.09-.66-2.44-.76-3.61-.26l-2.93,1.24c-1.96,.83-2.91,3.06-2.16,5.06l.84,2.22c.49,1.29,1.61,2.24,2.97,2.5l4.87,.94s4.62-.25,6.81-3.56l-2.34-5.45Z"/>
      <path class="cls-23" d="M259.04,176.46c-.67,5.12-1.56,10.14-2.58,15.2-.52,2.53-1.06,5.06-1.7,7.61-.32,1.28-.64,2.56-1.01,3.88-.4,1.34-.76,2.6-1.45,4.33-.07,.18-.23,.52-.34,.77-.09,.21-.35,.69-.59,1.08-.49,.75-1.04,1.39-1.58,1.87-1.09,.99-2.08,1.55-3.01,1.99-1.85,.84-3.42,1.2-4.93,1.5-3.01,.57-5.76,.63-8.48,.65-5.43-.08-10.58-.63-15.81-1.7l.44-6.54c4.91-.5,9.93-.96,14.63-1.75,2.34-.36,4.65-.88,6.59-1.49,.95-.31,1.82-.69,2.24-1.01,.2-.14,.29-.27,.12-.16-.07,.05-.23,.19-.37,.4-.09,.11-.18,.32-.16,.23,0-.04-.01,.01,.02-.11,.18-.66,.45-1.87,.65-2.99,.22-1.15,.44-2.35,.64-3.55l1.18-7.35c.77-4.93,1.53-9.94,2.41-14.85l13.1,1.98Z"/>
      <g>
        <path class="cls-16" d="M241.93,177.87l-.82,16.6,16.11,1.05s3.61-9.45,4.46-18.05c1.06-10.63-17.37-10.21-19.75,.4Z"/>
        <g>
          <rect class="cls-2" x="244.15" y="177.57" width="4.19" height=".53" transform="translate(41.16 401.9) rotate(-83.37)"/>
          <rect class="cls-2" x="243.78" y="182.11" width="3.87" height=".53" transform="translate(36.21 405.41) rotate(-83.37)"/>
          <path class="cls-2" d="M247.05,173.19l.23-2c-.19,.1-.39,.21-.58,.32l-.19,1.62,.53,.06Z"/>
          <rect class="cls-2" x="242.82" y="188.74" width="4.24" height=".53" transform="translate(28.94 410.51) rotate(-83.37)"/>
          <polygon class="cls-2" points="244.37 191.61 244.02 194.67 244.55 194.7 244.9 191.67 244.37 191.61"/>
          <rect class="cls-2" x="254.97" y="183.41" width="3.87" height=".53" transform="translate(44.82 417.68) rotate(-83.38)"/>
          <rect class="cls-2" x="255.34" y="178.87" width="4.19" height=".53" transform="translate(49.78 414.18) rotate(-83.37)"/>
          <rect class="cls-2" x="254.01" y="190.04" width="4.24" height=".53" transform="translate(37.55 422.78) rotate(-83.38)"/>
          <path class="cls-2" d="M258.24,174.49l.4-3.44c-.16-.1-.33-.2-.51-.28l-.43,3.66,.53,.06Z"/>
          <polygon class="cls-2" points="255.56 192.91 255.27 195.4 255.81 195.44 256.09 192.97 255.56 192.91"/>
          <rect class="cls-11" x="248.39" y="188.34" width="4.24" height="2.62" transform="translate(33.22 416.6) rotate(-83.37)"/>
          <rect class="cls-11" x="249.72" y="177.18" width="4.19" height="2.62" transform="translate(45.45 408.02) rotate(-83.37)"/>
          <path class="cls-11" d="M253.65,173.96l.45-3.9-2.23-.26c-.12,.01-.25,.03-.37,.05l-.44,3.81,2.6,.3Z"/>
          <polygon class="cls-11" points="248.91 192.14 248.58 194.97 251.19 195.14 251.51 192.44 248.91 192.14"/>
          <rect class="cls-11" x="249.35" y="181.71" width="3.87" height="2.62" transform="translate(40.47 411.49) rotate(-83.37)"/>
          <rect class="cls-5" x="252.93" y="184.59" width="2.62" height="4.08" transform="translate(39.51 417.63) rotate(-83.37)"/>
          <rect class="cls-5" x="246.3" y="183.84" width="2.62" height="4.03" transform="translate(34.41 410.36) rotate(-83.37)"/>
          <polygon class="cls-5" points="245.23 184.27 241.64 183.85 241.51 186.47 244.92 186.86 245.23 184.27"/>
          <path class="cls-5" d="M256.64,188.23l2.82,.33c.23-.81,.45-1.67,.67-2.56l-3.19-.37-.3,2.6Z"/>
          <rect class="cls-2" x="244.03" y="185.33" width="2.62" height=".53" transform="translate(32.63 407.84) rotate(-83.36)"/>
          <rect class="cls-5" x="244.03" y="185.33" width="2.62" height=".53" transform="translate(32.63 407.84) rotate(-83.36)"/>
          <rect class="cls-2" x="255.22" y="186.63" width="2.62" height=".53" transform="translate(41.28 420.15) rotate(-83.37)"/>
          <rect class="cls-5" x="255.22" y="186.63" width="2.62" height=".53" transform="translate(41.28 420.15) rotate(-83.37)"/>
          <rect class="cls-11" x="249.6" y="184.94" width="2.62" height="2.62" transform="translate(36.95 413.98) rotate(-83.37)"/>
          <rect class="cls-5" x="249.6" y="184.94" width="2.62" height="2.62" transform="translate(36.95 413.98) rotate(-83.37)"/>
          <path class="cls-5" d="M246.22,175.73l.3-2.6-1.73-.2c-.75,.69-1.39,1.5-1.89,2.41l3.32,.39Z"/>
          <path class="cls-5" d="M257.94,177.09l3.74,.43s0-.03,0-.05c.1-.96,.03-1.82-.17-2.6l-3.28-.38-.3,2.6Z"/>
          <rect class="cls-5" x="254.22" y="173.45" width="2.62" height="4.08" transform="translate(51.73 409.08) rotate(-83.38)"/>
          <rect class="cls-5" x="247.59" y="172.71" width="2.62" height="4.03" transform="translate(46.59 401.78) rotate(-83.37)"/>
          <rect class="cls-2" x="245.33" y="174.19" width="2.62" height=".53" transform="translate(44.89 399.32) rotate(-83.38)"/>
          <rect class="cls-5" x="245.33" y="174.19" width="2.62" height=".53" transform="translate(44.89 399.32) rotate(-83.38)"/>
          <rect class="cls-2" x="256.52" y="175.49" width="2.62" height=".53" transform="translate(53.48 411.58) rotate(-83.37)"/>
          <rect class="cls-5" x="256.52" y="175.49" width="2.62" height=".53" transform="translate(53.48 411.58) rotate(-83.37)"/>
          <rect class="cls-11" x="250.9" y="173.8" width="2.62" height="2.62" transform="translate(49.14 405.4) rotate(-83.37)"/>
          <rect class="cls-5" x="250.9" y="173.8" width="2.62" height="2.62" transform="translate(49.14 405.4) rotate(-83.37)"/>
          <path class="cls-15" d="M256.09,192.97l1.95,.23c.05-.16,.11-.34,.17-.52l-2.06-.24-.06,.53Z"/>
          <polygon class="cls-15" points="244.43 191.08 241.3 190.72 241.27 191.25 244.37 191.61 244.43 191.08"/>
          <rect class="cls-15" x="253.3" y="190.37" width=".53" height="4.08" transform="translate(33.14 422.04) rotate(-83.36)"/>
          <rect class="cls-15" x="246.67" y="189.62" width=".53" height="4.03" transform="translate(28.09 414.82) rotate(-83.37)"/>
          <rect class="cls-2" x="244.4" y="191.11" width=".53" height=".53" transform="translate(26.26 412.25) rotate(-83.35)"/>
          <rect class="cls-15" x="244.4" y="191.11" width=".53" height=".53" transform="translate(26.26 412.25) rotate(-83.35)"/>
          <rect class="cls-2" x="255.59" y="192.41" width=".53" height=".53" transform="translate(34.95 424.6) rotate(-83.37)"/>
          <rect class="cls-15" x="255.59" y="192.41" width=".53" height=".53" transform="translate(34.95 424.6) rotate(-83.37)"/>
          <rect class="cls-11" x="249.97" y="190.72" width=".53" height="2.62" transform="translate(30.62 418.44) rotate(-83.37)"/>
          <rect class="cls-15" x="249.97" y="190.72" width=".53" height="2.62" transform="translate(30.62 418.44) rotate(-83.37)"/>
          <polygon class="cls-15" points="245.73 179.89 241.85 179.44 241.83 179.98 245.67 180.42 245.73 179.89"/>
          <rect class="cls-15" x="254.6" y="179.18" width=".53" height="4.08" transform="translate(45.42 413.45) rotate(-83.37)"/>
          <path class="cls-15" d="M257.39,181.78l3.59,.42c.03-.17,.06-.35,.1-.53l-3.62-.42-.06,.53Z"/>
          <rect class="cls-15" x="247.97" y="178.44" width=".53" height="4.03" transform="translate(40.35 406.21) rotate(-83.37)"/>
          <rect class="cls-2" x="245.7" y="179.92" width=".53" height=".53" transform="translate(38.65 403.76) rotate(-83.39)"/>
          <rect class="cls-15" x="245.7" y="179.92" width=".53" height=".53" transform="translate(38.65 403.76) rotate(-83.39)"/>
          <rect class="cls-2" x="256.89" y="181.22" width=".53" height=".53" transform="translate(47.21 415.99) rotate(-83.37)"/>
          <rect class="cls-15" x="256.89" y="181.22" width=".53" height=".53" transform="translate(47.21 415.99) rotate(-83.37)"/>
          <rect class="cls-11" x="251.27" y="179.53" width=".53" height="2.62" transform="translate(42.88 409.82) rotate(-83.37)"/>
          <rect class="cls-15" x="251.27" y="179.53" width=".53" height="2.62" transform="translate(42.88 409.82) rotate(-83.37)"/>
          <path class="cls-15" d="M257.43,170.45c-1-.4-2.12-.64-3.28-.71l-.04,.33,3.32,.39Z"/>
          <path class="cls-11" d="M254.14,169.74c-.74-.05-1.51-.02-2.27,.07l2.23,.26,.04-.33Z"/>
          <path class="cls-15" d="M254.14,169.74c-.74-.05-1.51-.02-2.27,.07l2.23,.26,.04-.33Z"/>
        </g>
      </g>
      <path class="cls-1" d="M202.81,183.55l4.66-11.31s-6.85,2.3-7.03-5.9c0,0-3.78,11.53-13.05,4.27,0,0-.69,8.08-3.02,10.76-2.33,2.68-7.25,2.8-7.25,2.8,0,0,3.48,3.66,3.54,5.75s-3.74,4.45-3.74,4.45l9.68,2.75s-3.78-.77-3.6-5.61c.18-4.85,5.05-12.42,12.76-15.21s9.93-.19,7.06,7.25Z"/>
    </g>
  </g>
</svg>