<?xml version="1.0" encoding="UTF-8"?>
<svg id="OBJECTS" xmlns="http://www.w3.org/2000/svg" viewBox="0 0 376.54 286.54">
  <defs>
    <style>
      .cls-1 {
        fill: #eb8e78;
      }

      .cls-2 {
        fill: #eee0d2;
      }

      .cls-3 {
        fill: #4e5785;
      }

      .cls-4 {
        fill: #4f9fdb;
      }

      .cls-5 {
        fill: #64aced;
      }

      .cls-6 {
        fill: #f7f5e8;
      }

      .cls-7 {
        fill: #469f9a;
      }

      .cls-8 {
        fill: #3a3565;
      }

      .cls-9 {
        fill: #e75d74;
      }

      .cls-10 {
        fill: #ffdc48;
      }
    </style>
  </defs>
  <rect class="cls-6" x="13.19" y="260.9" width="363.35" height="25.64" rx="12.82" ry="12.82"/>
  <path class="cls-9" d="M273.17,20.29h-105.15V63.94c2.87-1.14,6.04-1.65,9.39-1.31,9.88,1,17.7,9.39,17.99,19.32,.33,11.33-8.76,20.62-20.01,20.62-2.6,0-5.08-.51-7.36-1.42v43.65h43.49c-1.19,3.24-1.63,6.84-.89,10.64,1.82,9.26,10.04,16.19,19.48,16.27,11.14,.09,20.2-8.91,20.2-20.02,0-2.43-.46-4.74-1.25-6.89h43.49V39.66c0-10.7-8.67-19.37-19.37-19.37Z"/>
  <path class="cls-10" d="M292.54,245.87v-102.01h-43.65c1.14,2.87,1.65,6.04,1.31,9.39-1,9.88-9.39,17.7-19.32,17.99-11.33,.33-20.62-8.76-20.62-20.01,0-2.6,.51-5.08,1.42-7.36h-43.65v43.49c-3.24-1.19-6.84-1.63-10.64-.89-9.26,1.82-16.19,10.04-16.27,19.48-.09,11.14,8.91,20.2,20.02,20.2,2.43,0,4.74-.46,6.89-1.25v43.49h102.01c12.43,0,22.51-10.08,22.51-22.51Z"/>
  <path class="cls-7" d="M65.27,268.37h103.37v-43.65c-2.87,1.14-6.04,1.65-9.39,1.31-9.88-1-17.7-9.39-17.99-19.32-.33-11.33,8.76-20.62,20.01-20.62,2.6,0,5.08,.51,7.36,1.42v-43.65h-43.49c1.19-3.24,1.63-6.84,.89-10.64-1.82-9.26-10.04-16.19-19.48-16.27-11.14-.09-20.2,8.91-20.2,20.02,0,2.43,.46,4.74,1.25,6.89H44.12v103.37c0,11.68,9.47,21.15,21.15,21.15Z"/>
  <path class="cls-5" d="M13.37,33.78L0,135.28l43.28,5.7c-.85-3.37-.86-7.03,.26-10.73,2.62-8.6,10.87-14.5,19.85-14.15,11.96,.46,20.67,11.04,19.14,22.63-.34,2.58-1.17,4.97-2.37,7.12l43.28,5.7,5.68-43.12c3.05,1.6,6.56,2.51,10.44,2.27,9.42-.59,17.36-7.84,18.67-17.19,1.55-11.03-6.19-21.19-17.21-22.64-2.41-.32-4.76-.16-6.99,.34l5.68-43.12L38.22,14.72c-12.12-1.6-23.25,6.94-24.85,19.06Z"/>
  <path class="cls-1" d="M153.45,57.3l-2,4.21s.66,2.44,.02,4.84,.84,2.82-.64,2.4-.78-4.49-.78-4.49c0,0-1.7,6.46-3.01,6.41s-3.49-1.42-2.01-6.77c.7-2.51,2.75-4.19,2.75-4.19l2.01-4.59,3.65,2.17Z"/>
  <path class="cls-1" d="M191.8,64.41l-1.65,4.37s-2.22,1.22-3.5,3.34c-1.29,2.12-2.61,1.35-1.29,2.12s3.78-2.55,3.78-2.55c0,0-3.47,5.71-2.54,6.61s3.44,1.53,6.27-3.25c1.33-2.24,1.11-4.88,1.11-4.88l1.91-4.63-4.09-1.13Z"/>
  <path class="cls-1" d="M298.78,197.23s-5.34,2.31-6.44-2.59c-.35-1.55-.45-5.81-.81-7.42-.77-3.47-2.18-6.18-1.02-5.49,1.7,1.01,4.31,9.99,4.31,9.99l5.38,1.46-1.43,4.05Z"/>
  <path class="cls-1" d="M296.02,208.94s-5.33,2.33-6.45-2.57c-.35-1.55-.47-5.81-.83-7.42-.78-3.47-2.2-6.17-1.03-5.48,1.7,1,4.34,9.97,4.34,9.97l5.38,1.45-1.41,4.05Z"/>
  <path class="cls-4" d="M343.61,190.45c-6.98-2.79-18.98,12-36.28,12.56-9.52,.31-12.28,.84-12.28,.84l.56,6.7s24,4.19,39.63,.56,15.35-17.86,8.37-20.65Z"/>
  <path class="cls-10" d="M186.65,23.73s8.83,13.39,8.83,18.54-4.89,23.5-4.89,23.5l4.47,1.37s10.72-18.35,11.75-24.53c1.03-6.18-4.31-20.94-4.31-20.94,0,0,10.08,1.51,9.73-1.24s19.58,0,19.58,0c0,0,.34-18.55-5.5-18.55s-21.1-3.98-36.42-.36c-11.21,2.65-23,8.26-30.56,23.71-7.56,15.46-9.96,31.6-9.96,31.6l4.12,2.06s10.99-29.19,19.58-32.97,8.95-4.39,13.58-2.2Z"/>
  <path class="cls-8" d="M329.94,167.57s-4.28,.37-3.91-3.72,2.66-4.59,10.6-2.42c4.96,1.35,8.42,2.59,9.3,3.91,1.53,2.3,2.04,6.9-.18,11.35-1.39,2.79-5.95,5.77-5.95,5.77l-9.86-14.88Z"/>
  <path class="cls-1" d="M333.29,184.31s3.07,2.51,1.12,6.98l9.49-5.3-3.91-6.7-6.7,5.02Z"/>
  <path class="cls-5" d="M331.33,203.29l1.67-11.72,11.39-9.38,.61,3.79s9.77,7.53,14.79,21.49,5.3,36.84,5.3,36.84l-30.42-14.79s-6.98-9.77-3.35-26.23Z"/>
  <path class="cls-8" d="M363.7,261.33c-5.06,2.89-43.53,4.74-43.53,4.74,0,0-12-3.63-9.49-8.93,3.33-7.03,27.07-14.23,27.07-14.23l-2.51-13.4,30.42,14.79s3.91,13.67-1.95,17.02Z"/>
  <path class="cls-5" d="M338.31,187.1c-5.59,.17-19.53,5.02-28.19,5.02s-12.56-.84-12.56-.84l-.28,6.42s6.42,5.3,22.05,5.86,22.6,1.95,25.95-1.67,2.23-15.07-6.98-14.79Z"/>
  <path class="cls-8" d="M331.05,222.27c-5.05-2.33-8.09,1.4-9.77,2.51s-4.74,7.81-1.4,10.6,8.65,15.35,14.51,17.86,12.56,4.47,12.56,4.47c0,0,3.07-4.74,5.86-4.74,0,0-10.88-25.67-21.77-30.7Z"/>
  <polygon class="cls-1" points="101.15 270.54 101.15 253.24 108.4 253.8 106.73 271.1 101.15 270.54"/>
  <path class="cls-1" d="M108.36,134.71c-2.72-1.39-4.05,2.07-4.05,2.07,0,0-.06-6.34-2.26-7.33-3.5-1.57-6.42,1.19-8.08,4.81-1.06,0-2.79,.23-2.75,1.6,.03,.98,.76,1.85,1.49,2.48-.49,2.85-.15,5.48,1.34,6.45,4.72,3.07,5.79,1.78,9.45,1.54,1.75-.11,1.55-3.41,2.63-3.69,1.38-.35,5.07-6.49,2.24-7.93Z"/>
  <polygon class="cls-1" points="45.89 252.13 39.75 257.15 42.54 261.06 50.36 256.03 45.89 252.13"/>
  <polygon class="cls-1" points="106.12 142.64 104.45 155.33 95.71 153.22 98.52 144.92 106.12 142.64"/>
  <path class="cls-8" d="M98.73,129.34s2.6,22.33,5.95,22.51,8.93-6.33,11.16-10.6,2.42-13.21-5.4-15.63c-7.23-2.24-11.91,.19-11.72,3.72Z"/>
  <path class="cls-1" d="M350.87,251.01s5.96,7.39,6.56,9.84c.95,3.93,.51,3.58,.51,3.58l-7.91-.58-3.07-6.14,3.91-6.7Z"/>
  <path class="cls-8" d="M348.08,263.85l-9.77,1.12,1.12,4.19s2.51,.84,6.14,.28,5.02-1.67,5.02-1.67c0,0,.56,1.67,3.35,1.67s3.91-.84,3.91-.84l.28-4.47-10.05-.28Z"/>
  <path class="cls-3" d="M72.12,187.94s-5.58,15.07-5.58,20.09,1.67,20.09-3.91,26.79-16.74,17.3-16.74,17.3l4.47,3.91s20.65-7.26,27.91-16.74,14.51-35.16,14.51-35.16l-20.65-16.19Z"/>
  <path class="cls-3" d="M78.26,190.73s-7.26,11.16-1.67,16.19,18.42,22.88,20.65,26.79,0,15.63,2.79,23.44l7.26,2.23s4.47-25.12,1.12-38.51-10.6-28.47-10.6-28.47l-19.53-1.67Z"/>
  <path class="cls-9" d="M101.33,149.8c-7.87,.58-32.84-.37-52.93-10.42l-1.67,6.14s34,15.97,32.09,20.65c-6.14,15.07-10.6,30.7-10.6,30.7,0,0,7.98,3.84,17.3,6.14,6.55,1.62,14.34,1.65,16.19-1.12,0,0,5.03-18.33,10.42-27.91,3.35-5.95,1.3-9.67,5.21-15.26s15.26-31.26,16.37-39.07l-6.6-3.16s-10.7,32.19-25.77,33.3Z"/>
  <path class="cls-5" d="M127.38,275.01l-20.65-3.91-5.58-.56,.56,6.7s15.63,5.58,25.67-2.23Z"/>
  <path class="cls-5" d="M41.05,254.73l4.47,5.58s-.74,8.93-5.95,15.63-6.51,4.09-6.51,4.09c0,0,3.53-5.21,3.53-11.16s-1.12-10.05-1.12-10.05l5.58-4.09Z"/>
  <path class="cls-1" d="M129.15,118.17l1.86-4.28s-.74-2.42-.19-4.84-.93-2.79,.56-2.42,.93,4.47,.93,4.47c0,0,1.49-6.51,2.79-6.51s3.53,1.3,2.23,6.7c-.61,2.53-2.6,4.28-2.6,4.28l-1.86,4.65-3.72-2.05Z"/>
  <path class="cls-1" d="M49.7,140.03l-4.04-2.34s-.84-2.39-2.72-4-.91-2.8-1.88-1.62,1.9,4.15,1.9,4.15c0,0-5.06-4.36-6.11-3.59s-2.07,3.15,2.18,6.72c1.99,1.68,4.64,1.9,4.64,1.9l4.26,2.64,1.78-3.85Z"/>
  <path class="cls-1" d="M183.06,24.59s11.16,0,10.6-4.47-8.34-4.79-8.34-4.79l-2.26,9.25Z"/>
  <path class="cls-1" d="M180.18,8.9c-2.71,1.4-.68,4.5-.68,4.5,0,0-5.19-3.65-7.28-2.43-3.32,1.93-2.78,5.91-.8,9.37-.61,.86-1.44,2.4-.3,3.17,.81,.55,1.95,.46,2.88,.24,2.03,2.06,4.37,3.31,6.02,2.67,5.24-2.05,4.82-3.67,6.75-6.78,.93-1.49-1.87-3.25-1.46-4.29,.52-1.33-2.32-7.9-5.14-6.44Z"/>
  <path class="cls-8" d="M167.93,16.49c-2.27-5.11-2.45-6.72,.37-8.19s2.77-2.51,5.51-5.55c2.74-3.04,12.47,1.74,13.99,5.61s4.05,7.17,.45,8.93-3.62,9.01-6.74,4.69-4.08-6.31-6.67-6.77c-2.95-.53-5.43,4.62-6.92,1.27Z"/>
  <path class="cls-7" d="M228.17,2.32s16.37-2.23,17.86,11.16-14.88,25.67-14.88,25.67c0,0,11.16-2.23,21.95,1.86l.74,5.95s-40.68,5.25-39.07-5.95c2.22-15.44,11.52-39.3,13.4-38.7Z"/>
  <path class="cls-2" d="M253.1,41.02s3.72-1.86,5.77-1.86,3.53,7.07,7.07,9.67,6.51,4.84,5.58,5.58-8.56-.74-11.72-2.79c-3.72-2.42-5.95-4.65-5.95-4.65l-.74-5.95Z"/>
  <path class="cls-1" d="M341.85,171.47c-2.86-1.07-2.31,1.4-2.31,1.4,0,0-.72-6.48-3.07-7.03-6.44-1.49-8.7,3.33-9.35,8.61l-2.53,4.75,2.33,.16c.09,3.58,.6,6.45,.6,6.45,3.28,.24,8.96-.93,12.28-3.35,1.42-1.03-.27-3.7,.77-4.09,1.33-.5,4.25-5.78,1.28-6.9Z"/>
</svg>